<?xml version="1.0" encoding="UTF-8" standalone="no"?>
<!DOCTYPE svg PUBLIC "-//W3C//DTD SVG 20010904//EN"
              "http://www.w3.org/TR/2001/REC-SVG-20010904/DTD/svg10.dtd">

<svg xmlns="http://www.w3.org/2000/svg"
     width="17.4933in" height="8.92in"
     viewBox="0 0 2624 1338">
  <path id="acl"
        fill="none" stroke="black" stroke-width="1"
        d="M 2028.42,784.00
           C 2027.98,780.67 2027.01,774.06 2031.14,772.66
             2037.06,770.64 2038.00,779.30 2038.58,783.00
             2038.58,783.00 2042.58,811.00 2042.58,811.00
             2043.12,814.87 2043.14,820.57 2045.58,823.68
             2047.74,826.42 2059.39,833.87 2063.00,836.42
             2063.00,836.42 2088.00,853.34 2088.00,853.34
             2088.00,853.34 2134.00,867.86 2134.00,867.86
             2134.00,867.86 2154.00,873.98 2154.00,873.98
             2156.18,874.65 2161.86,876.53 2163.91,876.08
             2167.85,875.20 2174.88,862.72 2177.19,859.00
             2177.19,859.00 2208.33,811.00 2208.33,811.00
             2211.78,805.82 2218.46,794.10 2223.04,790.96
             2226.84,788.36 2239.28,784.54 2240.81,781.61
             2241.96,779.40 2240.50,771.70 2240.13,769.00
             2239.21,762.39 2235.68,742.27 2237.05,737.00
             2237.05,737.00 2249.57,699.00 2249.57,699.00
             2249.57,699.00 2260.03,656.00 2260.03,656.00
             2260.03,656.00 2272.48,624.00 2272.48,624.00
             2272.48,624.00 2280.55,589.01 2280.55,589.01
             2282.06,581.33 2279.91,574.54 2278.40,567.00
             2278.40,567.00 2271.00,531.00 2271.00,531.00
             2270.09,526.47 2265.90,513.07 2270.43,510.19
             2277.73,505.57 2279.42,521.11 2280.20,525.00
             2280.20,525.00 2288.40,565.00 2288.40,565.00
             2289.34,569.71 2292.15,580.94 2291.81,585.00
             2291.81,585.00 2288.42,601.00 2288.42,601.00
             2288.42,601.00 2282.25,628.00 2282.25,628.00
             2282.25,628.00 2270.08,659.00 2270.08,659.00
             2270.08,659.00 2260.26,700.00 2260.26,700.00
             2260.26,700.00 2247.76,738.00 2247.76,738.00
             2246.17,744.34 2250.20,767.04 2251.38,775.00
             2251.57,778.45 2253.06,784.77 2251.38,787.89
             2248.81,793.86 2232.91,795.52 2227.52,801.22
             2227.52,801.22 2216.33,818.00 2216.33,818.00
             2216.33,818.00 2192.95,854.00 2192.95,854.00
             2192.95,854.00 2177.11,878.99 2177.11,878.99
             2175.77,883.55 2182.95,887.55 2186.00,890.00
             2186.00,890.00 2206.00,906.20 2206.00,906.20
             2208.71,908.38 2213.31,911.62 2214.36,915.00
             2215.93,920.09 2207.71,928.17 2204.58,932.00
             2204.58,932.00 2169.00,975.00 2169.00,975.00
             2169.00,975.00 2197.00,995.37 2197.00,995.37
             2200.40,997.92 2207.13,1002.42 2208.98,1006.01
             2210.63,1009.23 2210.95,1022.83 2211.00,1027.00
             2211.06,1032.08 2214.32,1045.23 2208.86,1047.92
             2205.66,1049.50 2203.09,1046.95 2202.31,1043.98
             2202.31,1043.98 2201.00,1024.00 2201.00,1024.00
             2200.96,1020.93 2200.40,1013.66 2198.98,1011.09
             2197.19,1007.84 2187.44,1001.21 2184.00,998.63
             2184.00,998.63 2147.00,972.32 2147.00,972.32
             2147.00,972.32 2110.10,948.79 2110.10,948.79
             2105.24,944.19 2098.28,929.16 2093.91,927.36
             2091.43,925.95 2087.61,927.08 2085.00,927.36
             2085.00,927.36 2067.00,931.16 2067.00,931.16
             2061.68,931.67 2044.82,925.01 2039.00,922.81
             2039.00,922.81 2003.00,909.60 2003.00,909.60
             1998.28,907.13 1982.24,893.65 1977.00,889.39
             1977.00,889.39 1961.00,876.25 1961.00,876.25
             1958.79,874.38 1955.49,871.87 1954.66,869.00
             1953.42,864.75 1957.21,862.48 1961.00,863.76
             1963.79,864.69 1972.16,871.93 1975.00,874.20
             1975.00,874.20 2007.00,899.78 2007.00,899.78
             2007.00,899.78 2040.00,912.05 2040.00,912.05
             2040.00,912.05 2065.00,920.59 2065.00,920.59
             2065.00,920.59 2088.00,917.00 2088.00,917.00
             2085.93,910.50 2082.13,907.42 2080.94,903.00
             2080.94,903.00 2080.00,869.00 2080.00,869.00
             2080.00,866.56 2080.21,863.34 2078.98,861.18
             2077.56,858.69 2073.41,856.30 2071.00,854.66
             2071.00,854.66 2056.00,844.28 2056.00,844.28
             2051.46,841.11 2039.37,832.26 2035.00,830.48
             2035.00,830.48 2014.00,826.00 2014.00,826.00
             2004.43,824.12 1984.88,820.01 1976.00,820.04
             1976.00,820.04 1963.00,820.04 1963.00,820.04
             1963.00,820.04 1951.00,821.19 1951.00,821.19
             1951.00,821.19 1920.00,821.19 1920.00,821.19
             1916.70,821.08 1913.46,818.81 1914.66,815.10
             1916.12,810.56 1922.23,811.01 1926.00,811.00
             1926.00,811.00 1955.00,811.00 1955.00,811.00
             1955.00,811.00 1978.00,810.00 1978.00,810.00
             1978.00,810.00 2033.00,819.00 2033.00,819.00
             2033.00,819.00 2028.42,784.00 2028.42,784.00 Z
           M 2144.00,881.42
           C 2144.00,881.42 2108.00,870.58 2108.00,870.58
             2108.00,870.58 2090.17,866.00 2090.17,866.00
             2090.17,866.00 2090.17,898.00 2090.17,898.00
             2091.04,901.68 2095.62,910.12 2098.52,912.40
             2101.80,914.99 2110.17,912.56 2114.00,911.51
             2121.04,909.58 2135.95,899.18 2143.00,894.81
             2147.18,892.21 2153.40,889.14 2156.00,885.00
             2156.00,885.00 2144.00,881.42 2144.00,881.42 Z
           M 2181.00,898.60
           C 2178.60,896.68 2172.73,891.51 2170.00,890.96
             2165.85,890.12 2154.88,898.40 2151.00,900.81
             2151.00,900.81 2120.00,920.02 2120.00,920.02
             2116.94,921.26 2109.46,922.53 2106.00,923.00
             2107.32,927.54 2108.49,929.08 2110.95,933.00
             2118.29,944.73 2123.63,945.92 2135.00,953.05
             2135.00,953.05 2161.00,969.00 2161.00,969.00
             2161.00,969.00 2190.20,934.00 2190.20,934.00
             2194.41,928.79 2201.16,922.32 2203.00,916.00
             2203.00,916.00 2181.00,898.60 2181.00,898.60 Z" />
</svg>
