<?xml version="1.0" encoding="UTF-8" standalone="no"?>
<!DOCTYPE svg PUBLIC "-//W3C//DTD SVG 20010904//EN"
              "http://www.w3.org/TR/2001/REC-SVG-20010904/DTD/svg10.dtd">

<svg xmlns="http://www.w3.org/2000/svg"
     width="17.4933in" height="8.92in"
     viewBox="0 0 2624 1338">
  <path id="atsf"
        fill="none" stroke="black" stroke-width="1"
        d="M 1067.00,658.01
           C 1063.93,656.21 1057.75,653.42 1056.66,649.91
             1055.32,645.64 1059.37,643.68 1063.00,644.51
             1066.09,645.22 1079.31,653.28 1083.00,655.42
             1087.88,658.25 1104.75,668.89 1109.00,669.52
             1112.56,670.05 1124.81,667.24 1129.00,666.40
             1129.00,666.40 1173.00,658.17 1173.00,658.17
             1173.00,658.17 1192.00,659.00 1192.00,659.00
             1192.00,659.00 1215.00,660.00 1215.00,660.00
             1215.00,660.00 1230.00,661.00 1230.00,661.00
             1230.00,661.00 1292.00,661.00 1292.00,661.00
             1292.00,661.00 1354.00,654.28 1354.00,654.28
             1354.00,654.28 1398.00,649.78 1398.00,649.78
             1398.00,649.78 1442.00,626.30 1442.00,626.30
             1473.68,608.91 1504.73,585.02 1533.00,562.45
             1533.00,562.45 1567.00,535.83 1567.00,535.83
             1567.00,535.83 1594.00,509.17 1594.00,509.17
             1594.00,509.17 1610.00,494.29 1610.00,494.29
             1610.00,494.29 1639.00,471.00 1639.00,471.00
             1644.47,466.62 1655.43,456.98 1661.00,454.33
             1661.00,454.33 1709.00,439.34 1709.00,439.34
             1714.52,437.62 1724.70,435.42 1728.83,431.73
             1728.83,431.73 1755.79,397.00 1755.79,397.00
             1758.06,394.11 1763.88,385.22 1768.40,389.61
             1772.41,393.52 1765.71,400.89 1763.37,404.00
             1763.37,404.00 1734.83,440.61 1734.83,440.61
             1731.00,443.93 1718.39,447.31 1713.00,448.86
             1713.00,448.86 1665.00,463.99 1665.00,463.99
             1660.50,466.29 1646.83,477.73 1642.00,481.60
             1642.00,481.60 1614.00,504.17 1614.00,504.17
             1614.00,504.17 1588.00,529.91 1588.00,529.91
             1588.00,529.91 1570.00,546.56 1570.00,546.56
             1570.00,546.56 1528.00,579.42 1528.00,579.42
             1528.00,579.42 1488.00,609.14 1488.00,609.14
             1488.00,609.14 1468.00,623.46 1468.00,623.46
             1468.00,623.46 1425.00,647.58 1425.00,647.58
             1421.90,649.33 1410.48,654.94 1409.06,657.39
             1407.62,659.86 1409.43,666.09 1409.92,669.00
             1411.09,675.96 1414.41,690.84 1413.71,697.00
             1413.71,697.00 1410.00,740.00 1410.00,740.00
             1410.00,740.00 1410.00,780.00 1410.00,780.00
             1410.02,790.01 1412.78,801.05 1414.58,811.00
             1414.58,811.00 1423.65,857.00 1423.65,857.00
             1423.65,857.00 1429.81,888.00 1429.81,888.00
             1429.72,891.71 1427.37,896.42 1426.05,900.00
             1426.05,900.00 1417.69,923.00 1417.69,923.00
             1416.20,927.18 1414.12,931.51 1414.47,936.00
             1414.47,936.00 1417.72,970.00 1417.72,970.00
             1418.26,974.58 1417.70,978.56 1419.65,983.00
             1421.23,986.60 1433.37,1001.88 1436.58,1006.00
             1436.58,1006.00 1462.04,1039.00 1462.04,1039.00
             1466.52,1043.74 1481.67,1057.92 1484.15,1062.00
             1486.34,1065.60 1489.60,1078.60 1490.00,1083.00
             1490.00,1083.00 1530.00,1076.25 1530.00,1076.25
             1533.39,1075.70 1542.82,1074.53 1541.26,1080.96
             1540.19,1085.35 1532.71,1086.11 1529.00,1086.75
             1529.00,1086.75 1500.00,1091.80 1500.00,1091.80
             1496.88,1092.40 1488.78,1094.32 1486.05,1093.36
             1480.10,1091.28 1478.40,1074.74 1475.89,1069.00
             1473.60,1063.74 1456.97,1047.30 1452.00,1043.23
             1447.53,1039.56 1441.49,1039.29 1436.00,1038.20
             1427.27,1036.46 1404.64,1033.38 1398.00,1030.18
             1398.00,1030.18 1353.00,1006.45 1353.00,1006.45
             1353.00,1006.45 1311.00,992.91 1311.00,992.91
             1311.00,992.91 1288.00,979.60 1288.00,979.60
             1288.00,979.60 1263.00,964.70 1263.00,964.70
             1263.00,964.70 1234.00,939.16 1234.00,939.16
             1234.00,939.16 1193.00,903.73 1193.00,903.73
             1187.92,899.39 1169.55,883.38 1165.00,881.10
             1161.96,879.57 1150.98,877.12 1147.00,876.13
             1147.00,876.13 1115.00,868.13 1115.00,868.13
             1115.00,868.13 1097.00,863.37 1097.00,863.37
             1097.00,863.37 1020.00,852.72 1020.00,852.72
             1020.00,852.72 967.00,846.00 967.00,846.00
             967.00,846.00 961.00,897.00 961.00,897.00
             961.00,897.00 961.00,913.00 961.00,913.00
             961.00,913.00 962.16,927.00 962.16,927.00
             962.16,927.00 962.16,938.00 962.16,938.00
             962.16,938.00 975.05,974.00 975.05,974.00
             976.64,978.27 982.44,991.10 981.17,994.94
             980.67,996.47 979.51,997.86 977.90,998.26
             973.15,999.42 970.90,992.28 969.68,989.00
             969.68,989.00 958.19,958.00 958.19,958.00
             955.24,950.25 952.04,944.39 952.00,936.00
             952.00,936.00 952.00,920.00 952.00,920.00
             952.00,920.00 951.00,897.00 951.00,897.00
             951.00,897.00 954.15,868.00 954.15,868.00
             954.15,868.00 956.29,851.00 956.29,851.00
             956.78,848.48 957.72,845.17 956.29,842.90
             954.50,840.48 945.96,835.80 943.00,833.95
             943.00,833.95 911.00,813.88 911.00,813.88
             911.00,813.88 888.00,797.42 888.00,797.42
             885.40,795.56 879.99,791.17 877.00,790.89
             874.17,790.61 863.19,795.13 860.00,796.40
             860.00,796.40 826.00,809.40 826.00,809.40
             821.33,811.25 812.79,815.23 808.00,814.44
             808.00,814.44 779.00,804.67 779.00,804.67
             779.00,804.67 751.00,795.43 751.00,795.43
             751.00,795.43 728.00,789.85 728.00,789.85
             728.00,789.85 708.00,784.63 708.00,784.63
             705.09,783.91 702.03,782.73 699.32,784.63
             697.17,786.15 694.06,791.59 692.60,794.00
             692.60,794.00 681.05,813.00 681.05,813.00
             679.52,815.43 675.67,820.40 676.64,823.28
             677.33,825.35 684.72,833.76 686.59,836.00
             686.59,836.00 710.92,865.00 710.92,865.00
             713.28,867.83 719.60,874.77 720.38,878.00
             721.26,881.61 718.63,884.40 715.00,883.34
             711.46,882.32 705.16,874.06 702.59,871.00
             702.59,871.00 674.92,838.00 674.92,838.00
             671.49,833.90 664.83,827.57 665.26,822.00
             665.60,817.67 669.90,811.73 672.19,808.00
             675.96,801.85 686.96,784.53 689.00,779.00
             689.00,779.00 657.00,767.68 657.00,767.68
             653.47,766.38 646.53,763.13 643.00,763.88
             640.21,764.47 633.68,769.21 631.00,771.00
             631.00,771.00 607.00,787.00 607.00,787.00
             602.61,789.94 598.53,793.82 593.00,793.92
             593.00,793.92 585.00,793.09 585.00,793.09
             585.00,793.09 557.00,791.09 557.00,791.09
             551.88,790.74 539.33,790.73 535.00,788.92
             535.00,788.92 489.00,761.00 489.00,761.00
             487.09,767.71 478.96,781.04 475.22,788.00
             473.37,791.44 471.16,795.61 466.99,796.48
             464.59,796.98 459.60,795.70 457.00,795.25
             457.00,795.25 434.00,790.90 434.00,790.90
             430.87,790.25 425.68,788.36 426.74,784.13
             427.75,780.14 432.96,780.67 436.00,781.09
             436.00,781.09 454.00,784.40 454.00,784.40
             456.31,784.86 460.73,786.03 462.90,785.31
             466.06,784.27 467.87,779.75 469.42,777.00
             469.42,777.00 482.00,754.00 482.00,754.00
             482.00,754.00 433.00,731.42 433.00,731.42
             427.78,729.15 412.72,722.97 409.81,718.90
             407.99,716.35 403.97,704.70 402.58,701.00
             402.58,701.00 387.58,661.00 387.58,661.00
             387.58,661.00 356.28,597.00 356.28,597.00
             356.28,597.00 342.28,565.00 342.28,565.00
             340.93,561.88 338.52,554.75 335.73,553.02
             333.15,551.43 320.66,551.96 317.00,552.00
             310.54,552.08 295.80,554.29 290.06,552.57
             285.26,551.14 285.39,546.13 288.31,544.17
             290.40,542.78 294.52,543.00 297.00,543.00
             297.00,543.00 313.00,543.00 313.00,543.00
             313.00,543.00 323.00,542.05 323.00,542.05
             323.00,542.05 335.00,542.05 335.00,542.05
             345.62,542.15 345.64,547.29 349.42,556.00
             349.42,556.00 361.28,583.00 361.28,583.00
             361.28,583.00 384.44,631.00 384.44,631.00
             384.44,631.00 394.69,651.00 394.69,651.00
             394.69,651.00 404.81,678.00 404.81,678.00
             404.81,678.00 413.81,702.00 413.81,702.00
             416.09,708.01 416.94,712.17 423.00,715.59
             423.00,715.59 469.00,737.14 469.00,737.14
             469.00,737.14 488.99,746.41 488.99,746.41
             492.59,748.45 493.87,750.57 497.09,752.91
             497.09,752.91 521.00,768.05 521.00,768.05
             521.00,768.05 539.00,779.02 539.00,779.02
             545.31,781.57 549.86,780.58 556.00,781.17
             556.00,781.17 591.00,783.70 591.00,783.70
             595.42,783.31 601.27,778.82 605.00,776.33
             605.00,776.33 630.00,759.67 630.00,759.67
             633.73,757.18 639.45,752.56 644.00,752.67
             647.59,752.76 658.08,757.10 662.00,758.58
             662.00,758.58 695.00,770.77 695.00,770.77
             695.00,770.77 714.00,775.87 714.00,775.87
             714.00,775.87 761.00,787.72 761.00,787.72
             761.00,787.72 794.00,799.00 794.00,799.00
             794.00,799.00 808.00,803.58 808.00,803.58
             812.59,804.27 822.41,799.82 827.00,798.00
             827.00,798.00 859.00,785.80 859.00,785.80
             862.93,784.25 873.29,779.83 877.00,779.79
             882.62,779.74 892.25,787.91 897.00,791.29
             897.00,791.29 923.00,809.66 923.00,809.66
             923.00,809.66 943.00,821.81 943.00,821.81
             948.52,825.19 960.75,834.96 967.00,832.55
             967.00,832.55 992.00,818.86 992.00,818.86
             992.00,818.86 1023.00,801.47 1023.00,801.47
             1028.54,797.19 1036.60,786.78 1041.41,781.00
             1044.79,776.94 1056.65,763.71 1058.15,760.00
             1059.07,757.72 1059.99,745.95 1060.00,743.00
             1060.00,743.00 1060.00,729.00 1060.00,729.00
             1060.00,729.00 1061.00,710.00 1061.00,710.00
             1061.14,700.07 1065.60,699.13 1073.00,693.86
             1073.00,693.86 1098.00,676.00 1098.00,676.00
             1098.00,676.00 1067.00,658.01 1067.00,658.01 Z
           M 1345.00,665.28
           C 1345.00,665.28 1292.00,671.00 1292.00,671.00
             1292.00,671.00 1232.00,671.00 1232.00,671.00
             1232.00,671.00 1216.00,670.00 1216.00,670.00
             1216.00,670.00 1192.00,669.00 1192.00,669.00
             1192.00,669.00 1180.00,668.01 1180.00,668.01
             1171.31,667.82 1156.97,671.23 1148.00,673.00
             1148.00,673.00 1111.00,680.48 1111.00,680.48
             1105.67,682.60 1098.07,688.59 1093.00,692.00
             1089.59,694.30 1073.45,704.95 1072.02,707.32
             1070.83,709.30 1071.00,712.66 1070.72,715.00
             1070.72,715.00 1070.00,738.00 1070.00,738.00
             1070.00,738.00 1068.79,753.00 1068.79,753.00
             1069.00,755.28 1069.11,758.88 1068.79,761.00
             1067.31,766.11 1058.43,775.59 1054.75,780.00
             1054.75,780.00 1030.99,807.79 1030.99,807.79
             1026.57,811.63 1016.53,816.45 1011.00,819.58
             1011.00,819.58 991.00,830.58 991.00,830.58
             986.70,833.00 983.55,833.62 981.00,838.00
             981.00,838.00 1012.00,841.72 1012.00,841.72
             1012.00,841.72 1067.00,849.27 1067.00,849.27
             1067.00,849.27 1089.00,852.27 1089.00,852.27
             1091.84,852.68 1098.48,853.89 1101.00,853.52
             1105.06,852.94 1119.45,845.49 1124.00,843.24
             1124.00,843.24 1164.00,824.24 1164.00,824.24
             1164.00,824.24 1193.00,810.35 1193.00,810.35
             1199.19,808.02 1202.06,811.76 1200.83,814.90
             1199.97,817.10 1196.99,818.70 1195.00,819.73
             1195.00,819.73 1179.00,827.25 1179.00,827.25
             1179.00,827.25 1144.00,844.14 1144.00,844.14
             1137.53,847.02 1122.03,854.00 1117.00,858.00
             1117.00,858.00 1154.00,867.63 1154.00,867.63
             1154.00,867.63 1170.00,872.14 1170.00,872.14
             1170.00,872.14 1197.00,894.58 1197.00,894.58
             1197.00,894.58 1234.00,926.17 1234.00,926.17
             1234.00,926.17 1267.00,955.48 1267.00,955.48
             1267.00,955.48 1295.00,972.42 1295.00,972.42
             1295.00,972.42 1314.00,983.24 1314.00,983.24
             1314.00,983.24 1355.00,996.45 1355.00,996.45
             1355.00,996.45 1403.00,1021.53 1403.00,1021.53
             1403.00,1021.53 1441.00,1029.00 1441.00,1029.00
             1441.00,1029.00 1419.00,999.00 1419.00,999.00
             1419.00,999.00 1409.41,985.00 1409.41,985.00
             1409.41,985.00 1405.83,950.00 1405.83,950.00
             1405.83,950.00 1404.76,930.00 1404.76,930.00
             1404.76,930.00 1414.81,902.00 1414.81,902.00
             1414.81,902.00 1419.39,887.00 1419.39,887.00
             1419.39,887.00 1413.42,857.00 1413.42,857.00
             1413.42,857.00 1404.39,811.00 1404.39,811.00
             1404.39,811.00 1400.00,781.00 1400.00,781.00
             1400.00,781.00 1400.00,741.00 1400.00,741.00
             1400.00,741.00 1403.90,694.00 1403.90,694.00
             1403.90,694.00 1398.00,660.00 1398.00,660.00
             1398.00,660.00 1345.00,665.28 1345.00,665.28 Z" />
</svg>
