<?xml version="1.0" encoding="UTF-8" standalone="no"?>
<!DOCTYPE svg PUBLIC "-//W3C//DTD SVG 20010904//EN"
              "http://www.w3.org/TR/2001/REC-SVG-20010904/DTD/svg10.dtd">

<svg xmlns="http://www.w3.org/2000/svg"
     width="17.4933in" height="8.92in"
     viewBox="0 0 2624 1338">
  <path id="bm"
        fill="none" stroke="black" stroke-width="1"
        d="M 2401.00,176.44
           C 2403.50,177.25 2406.45,178.33 2407.34,181.10
             2408.39,184.36 2406.04,186.48 2402.98,186.82
             2400.05,187.14 2390.34,184.24 2387.00,183.29
             2383.89,182.41 2378.03,180.26 2375.00,180.88
             2371.31,181.63 2364.82,186.96 2359.00,188.48
             2359.00,188.48 2331.00,193.25 2331.00,193.25
             2331.00,193.25 2303.00,197.83 2303.00,197.83
             2294.46,198.50 2293.31,192.57 2296.45,189.73
             2298.89,187.53 2309.34,186.36 2313.00,185.75
             2313.00,185.75 2356.00,178.37 2356.00,178.37
             2359.81,177.13 2368.96,171.74 2371.62,168.82
             2379.10,160.63 2384.94,142.55 2388.69,132.00
             2388.69,132.00 2398.70,104.00 2398.70,104.00
             2399.98,100.91 2402.58,96.88 2406.61,98.59
             2412.60,101.13 2406.41,112.87 2405.00,117.00
             2405.00,117.00 2398.00,137.00 2398.00,137.00
             2398.00,137.00 2392.13,154.00 2392.13,154.00
             2392.13,154.00 2383.00,172.00 2383.00,172.00
             2388.03,172.45 2396.05,174.83 2401.00,176.44 Z" />
</svg>
