<?xml version="1.0" encoding="UTF-8" standalone="no"?>
<!DOCTYPE svg PUBLIC "-//W3C//DTD SVG 20010904//EN"
              "http://www.w3.org/TR/2001/REC-SVG-20010904/DTD/svg10.dtd">

<svg xmlns="http://www.w3.org/2000/svg"
     width="17.4933in" height="8.92in"
     viewBox="0 0 2624 1338">
  <path id="bo"
        fill="none" stroke="black" stroke-width="1"
        d="M 2142.00,406.45
           C 2142.00,406.45 2107.00,395.22 2107.00,395.22
             2107.00,395.22 2076.00,379.43 2076.00,379.43
             2072.27,378.79 2064.93,381.18 2061.00,382.12
             2052.12,384.22 2029.82,390.26 2022.00,389.96
             2022.00,389.96 1966.00,386.09 1966.00,386.09
             1966.00,386.09 1941.00,388.84 1941.00,388.84
             1941.00,388.84 1883.00,396.08 1883.00,396.08
             1883.00,396.08 1851.00,401.41 1851.00,401.41
             1851.00,401.41 1834.00,403.87 1834.00,403.87
             1834.00,403.87 1804.00,395.28 1804.00,395.28
             1804.00,395.28 1786.00,389.65 1786.00,389.65
             1783.47,388.73 1780.31,387.51 1779.08,384.90
             1777.59,381.75 1779.98,379.28 1783.02,378.75
             1785.97,378.24 1792.79,380.94 1796.00,381.86
             1796.00,381.86 1834.00,393.20 1834.00,393.20
             1837.67,393.54 1846.03,391.91 1850.00,391.25
             1850.00,391.25 1878.00,386.59 1878.00,386.59
             1878.00,386.59 1940.00,378.83 1940.00,378.83
             1940.00,378.83 1969.00,376.01 1969.00,376.01
             1969.00,376.01 2024.00,379.79 2024.00,379.79
             2024.00,379.79 2063.00,370.79 2063.00,370.79
             2066.87,369.93 2074.32,367.79 2078.00,368.43
             2081.55,369.04 2086.76,372.34 2090.00,374.14
             2090.00,374.14 2112.00,385.74 2112.00,385.74
             2112.00,385.74 2148.00,397.51 2148.00,397.51
             2148.00,397.51 2177.00,414.59 2177.00,414.59
             2181.57,416.65 2189.91,416.68 2195.00,417.17
             2195.00,417.17 2220.00,419.05 2220.00,419.05
             2224.52,418.62 2231.62,414.89 2236.00,413.00
             2236.00,413.00 2256.83,404.07 2256.83,404.07
             2259.56,402.31 2272.60,387.43 2275.58,384.00
             2275.58,384.00 2291.72,366.00 2291.72,366.00
             2294.04,363.36 2297.56,358.65 2301.00,357.66
             2305.09,356.48 2309.69,360.42 2303.81,368.00
             2303.81,368.00 2282.28,392.00 2282.28,392.00
             2280.65,393.86 2274.73,400.20 2274.18,402.00
             2273.23,405.10 2276.00,406.51 2275.62,411.00
             2275.62,411.00 2266.02,441.00 2266.02,441.00
             2265.04,444.17 2264.40,448.92 2260.87,450.22
             2257.77,451.36 2254.57,449.31 2252.00,447.79
             2252.00,447.79 2232.00,435.42 2232.00,435.42
             2219.20,427.50 2213.20,429.25 2199.00,427.67
             2193.93,427.33 2184.70,425.91 2180.00,427.67
             2180.00,427.67 2145.00,446.74 2145.00,446.74
             2125.16,456.41 2087.01,471.87 2066.00,477.96
             2066.00,477.96 2011.00,485.29 2011.00,485.29
             2011.00,485.29 1950.00,504.28 1950.00,504.28
             1950.00,504.28 1916.00,515.28 1916.00,515.28
             1903.78,518.96 1888.18,523.49 1877.00,529.26
             1877.00,529.26 1843.00,547.86 1843.00,547.86
             1843.00,547.86 1823.00,558.69 1823.00,558.69
             1823.00,558.69 1786.00,571.67 1786.00,571.67
             1786.00,571.67 1759.00,580.79 1759.00,580.79
             1759.00,580.79 1736.00,579.17 1736.00,579.17
             1730.64,578.66 1711.80,578.03 1708.15,576.28
             1704.66,574.60 1704.26,570.21 1707.31,568.17
             1709.07,567.00 1711.79,567.02 1713.83,567.12
             1713.83,567.12 1731.00,569.06 1731.00,569.06
             1731.00,569.06 1739.00,569.06 1739.00,569.06
             1742.21,569.66 1754.46,570.87 1757.00,570.45
             1757.00,570.45 1781.00,562.34 1781.00,562.34
             1781.00,562.34 1820.00,548.40 1820.00,548.40
             1820.00,548.40 1878.00,516.87 1878.00,516.87
             1878.00,516.87 1919.00,503.33 1919.00,503.33
             1919.00,503.33 1980.00,483.98 1980.00,483.98
             1980.00,483.98 2005.00,476.04 2005.00,476.04
             2005.00,476.04 2058.00,469.19 2058.00,469.19
             2070.60,466.68 2108.00,451.60 2121.00,445.86
             2134.04,440.10 2157.33,429.67 2168.00,421.00
             2168.00,421.00 2142.00,406.45 2142.00,406.45 Z
           M 2235.00,424.00
           C 2237.95,428.92 2250.51,435.55 2256.00,438.00
             2258.63,432.00 2263.35,418.30 2264.00,412.00
             2264.00,412.00 2235.00,424.00 2235.00,424.00 Z" />
</svg>
