<?xml version="1.0" encoding="UTF-8" standalone="no"?>
<!DOCTYPE svg PUBLIC "-//W3C//DTD SVG 20010904//EN"
              "http://www.w3.org/TR/2001/REC-SVG-20010904/DTD/svg10.dtd">

<svg xmlns="http://www.w3.org/2000/svg"
     width="17.4933in" height="8.92in"
     viewBox="0 0 2624 1338">
  <path id="cbq"
        fill="none" stroke="black" stroke-width="1"
        d="M 1054.29,610.00
           C 1054.29,610.00 1058.00,628.00 1058.00,628.00
             1058.00,628.00 1064.92,665.00 1064.92,665.00
             1064.92,665.00 1068.75,689.00 1068.75,689.00
             1069.34,692.54 1069.85,698.04 1071.74,700.99
             1073.94,704.43 1086.08,713.81 1090.00,717.08
             1096.06,722.13 1111.20,735.34 1117.00,738.66
             1117.00,738.66 1135.00,747.31 1135.00,747.31
             1135.00,747.31 1148.00,753.69 1148.00,753.69
             1148.00,753.69 1162.00,760.35 1162.00,760.35
             1167.39,763.59 1170.20,768.17 1174.00,773.00
             1174.00,773.00 1192.63,797.00 1192.63,797.00
             1195.83,801.25 1199.52,806.83 1204.04,809.65
             1204.04,809.65 1243.00,827.31 1243.00,827.31
             1243.00,827.31 1302.00,853.25 1302.00,853.25
             1302.00,853.25 1351.00,866.44 1351.00,866.44
             1351.00,866.44 1377.00,882.68 1377.00,882.68
             1380.94,885.17 1389.87,890.37 1392.83,893.21
             1395.60,895.86 1401.46,904.39 1404.12,908.00
             1404.12,908.00 1418.07,928.00 1418.07,928.00
             1420.05,932.94 1416.98,936.54 1413.03,935.34
             1409.77,934.36 1406.41,928.75 1404.37,926.00
             1404.37,926.00 1387.49,903.09 1387.49,903.09
             1383.63,898.63 1376.08,894.58 1371.00,891.31
             1371.00,891.31 1344.00,874.53 1344.00,874.53
             1344.00,874.53 1299.00,863.28 1299.00,863.28
             1299.00,863.28 1241.00,837.86 1241.00,837.86
             1241.00,837.86 1213.00,825.42 1213.00,825.42
             1213.00,825.42 1197.04,818.03 1197.04,818.03
             1192.83,815.20 1188.04,808.19 1184.87,804.00
             1184.87,804.00 1167.00,781.00 1167.00,781.00
             1163.77,776.90 1160.48,771.78 1156.00,769.07
             1156.00,769.07 1121.00,752.31 1121.00,752.31
             1121.00,752.31 1111.00,747.65 1111.00,747.65
             1111.00,747.65 1082.00,724.08 1082.00,724.08
             1078.40,721.08 1063.87,709.68 1062.14,706.83
             1060.09,703.47 1059.23,694.22 1058.58,690.00
             1058.58,690.00 1052.39,653.00 1052.39,653.00
             1052.39,653.00 1047.00,626.00 1047.00,626.00
             1047.00,626.00 1044.29,613.00 1044.29,613.00
             1041.77,593.84 1040.03,564.39 1040.00,545.00
             1040.00,545.00 1039.04,533.00 1039.04,533.00
             1039.04,533.00 1039.04,518.00 1039.04,518.00
             1039.04,518.00 1038.08,507.00 1038.08,507.00
             1038.08,507.00 1039.00,496.00 1039.00,496.00
             1039.00,496.00 1040.81,462.00 1040.81,462.00
             1040.81,462.00 1034.42,439.00 1034.42,439.00
             1033.44,435.57 1029.97,422.56 1028.16,420.51
             1026.15,418.23 1021.88,417.77 1019.00,417.20
             1019.00,417.20 996.00,412.80 996.00,412.80
             983.99,410.48 973.19,405.10 962.00,400.28
             962.00,400.28 940.04,390.96 940.04,390.96
             933.67,387.68 927.96,371.84 925.00,365.00
             925.00,365.00 915.75,344.00 915.75,344.00
             915.75,344.00 901.63,286.00 901.63,286.00
             901.63,286.00 895.20,262.00 895.20,262.00
             894.70,259.27 893.37,254.86 895.20,252.31
             895.74,251.22 896.77,250.61 898.04,250.37
             902.45,249.56 903.87,253.64 904.84,257.00
             904.84,257.00 915.35,298.00 915.35,298.00
             915.35,298.00 925.54,340.00 925.54,340.00
             925.54,340.00 935.22,362.00 935.22,362.00
             937.33,366.50 941.84,378.56 945.22,381.30
             945.22,381.30 963.00,389.28 963.00,389.28
             980.45,396.81 988.08,400.82 1007.00,404.60
             1007.00,404.60 1035.00,410.41 1035.00,410.41
             1035.00,410.41 1064.00,430.42 1064.00,430.42
             1066.83,432.44 1073.06,437.23 1076.00,438.14
             1080.28,439.80 1094.42,439.11 1099.00,438.14
             1098.37,435.41 1096.81,416.22 1097.15,414.00
             1097.64,410.79 1100.15,407.23 1103.78,409.08
             1106.68,410.56 1106.80,414.20 1107.15,417.00
             1107.15,417.00 1109.00,439.00 1109.00,439.00
             1109.00,439.00 1138.00,439.00 1138.00,439.00
             1138.00,439.00 1150.00,439.91 1150.00,439.91
             1150.00,439.91 1186.00,442.91 1186.00,442.91
             1186.00,442.91 1223.00,446.60 1223.00,446.60
             1223.00,446.60 1244.00,456.75 1244.00,456.75
             1244.00,456.75 1277.00,473.25 1277.00,473.25
             1277.00,473.25 1294.00,481.66 1294.00,481.66
             1299.45,483.99 1309.86,485.27 1316.00,486.13
             1316.00,486.13 1343.00,490.27 1343.00,490.27
             1343.00,490.27 1388.00,497.18 1388.00,497.18
             1392.74,497.09 1397.30,492.61 1401.00,489.88
             1401.00,489.88 1424.00,472.88 1424.00,472.88
             1426.78,470.83 1432.81,466.09 1436.00,465.52
             1438.93,464.99 1443.11,466.73 1446.00,467.58
             1446.00,467.58 1470.00,475.24 1470.00,475.24
             1479.70,477.70 1504.83,477.02 1516.00,477.00
             1526.16,476.98 1536.32,473.00 1546.00,470.02
             1546.00,470.02 1575.00,461.58 1575.00,461.58
             1575.00,461.58 1591.00,456.76 1591.00,456.76
             1591.00,456.76 1615.00,455.00 1615.00,455.00
             1615.00,455.00 1653.00,453.00 1653.00,453.00
             1655.07,452.97 1657.00,452.98 1659.00,452.30
             1663.48,450.79 1677.43,438.85 1682.00,435.20
             1682.00,435.20 1709.00,413.77 1709.00,413.77
             1709.00,413.77 1740.00,394.00 1740.00,394.00
             1740.00,394.00 1760.00,381.70 1760.00,381.70
             1763.70,380.53 1768.87,382.04 1767.34,386.91
             1766.47,389.72 1762.37,392.10 1760.00,393.66
             1760.00,393.66 1741.00,405.69 1741.00,405.69
             1741.00,405.69 1715.00,422.44 1715.00,422.44
             1715.00,422.44 1689.00,443.00 1689.00,443.00
             1685.48,445.81 1671.62,456.24 1669.93,459.17
             1668.53,461.92 1669.52,465.09 1669.93,468.00
             1669.93,468.00 1671.72,484.00 1671.72,484.00
             1671.72,484.00 1673.46,498.00 1673.46,498.00
             1673.46,498.00 1684.67,534.00 1684.67,534.00
             1684.67,534.00 1700.12,556.00 1700.12,556.00
             1702.45,559.18 1708.95,567.53 1709.53,571.00
             1710.16,574.81 1707.47,577.38 1704.03,576.34
             1701.31,575.52 1699.03,572.19 1697.37,570.00
             1697.37,570.00 1686.42,555.00 1686.42,555.00
             1683.50,550.94 1677.37,542.99 1675.38,539.00
             1675.38,539.00 1670.33,524.00 1670.33,524.00
             1670.33,524.00 1663.67,502.00 1663.67,502.00
             1663.67,502.00 1659.00,463.00 1659.00,463.00
             1659.00,463.00 1634.00,464.00 1634.00,464.00
             1634.00,464.00 1617.00,465.00 1617.00,465.00
             1617.00,465.00 1593.00,467.15 1593.00,467.15
             1593.00,467.15 1549.00,480.02 1549.00,480.02
             1539.32,483.00 1529.16,486.98 1519.00,487.00
             1519.00,487.00 1499.00,487.00 1499.00,487.00
             1499.00,487.00 1476.00,486.00 1476.00,486.00
             1462.04,485.98 1455.54,479.94 1443.00,478.00
             1444.63,483.61 1448.64,502.43 1450.85,505.99
             1452.63,508.84 1468.44,522.94 1472.00,526.17
             1486.55,539.33 1486.51,540.10 1497.00,556.00
             1497.00,556.00 1510.91,578.00 1510.91,578.00
             1513.08,583.39 1509.74,586.45 1506.01,585.34
             1502.32,584.25 1499.66,579.06 1497.66,576.00
             1497.66,576.00 1481.67,552.00 1481.67,552.00
             1471.43,536.68 1447.75,520.31 1441.72,511.83
             1439.85,509.20 1438.93,504.22 1438.13,501.00
             1438.13,501.00 1433.00,479.00 1433.00,479.00
             1433.00,479.00 1401.00,502.89 1401.00,502.89
             1401.00,502.89 1389.00,513.28 1389.00,513.28
             1389.00,513.28 1365.00,533.26 1365.00,533.26
             1365.00,533.26 1338.00,536.17 1338.00,536.17
             1338.00,536.17 1286.00,541.17 1286.00,541.17
             1286.00,541.17 1219.00,548.21 1219.00,548.21
             1219.00,548.21 1167.00,561.59 1167.00,561.59
             1167.00,561.59 1153.00,560.15 1153.00,560.15
             1153.00,560.15 1110.00,555.10 1110.00,555.10
             1110.00,555.10 1089.00,562.19 1089.00,562.19
             1089.00,562.19 1051.00,577.00 1051.00,577.00
             1051.00,577.00 1054.29,610.00 1054.29,610.00 Z
           M 1044.98,439.00
           C 1044.98,439.00 1050.96,462.00 1050.96,462.00
             1050.96,462.00 1050.00,475.00 1050.00,475.00
             1050.00,475.00 1048.18,510.00 1048.18,510.00
             1048.18,510.00 1049.00,529.00 1049.00,529.00
             1049.00,529.00 1050.00,545.00 1050.00,545.00
             1050.00,545.00 1051.00,565.00 1051.00,565.00
             1051.00,565.00 1092.00,550.19 1092.00,550.19
             1095.36,548.91 1105.05,545.03 1108.00,544.68
             1111.12,544.32 1117.55,545.56 1121.00,545.95
             1121.00,545.95 1167.00,550.91 1167.00,550.91
             1167.00,550.91 1220.00,537.61 1220.00,537.61
             1220.00,537.61 1240.00,535.83 1240.00,535.83
             1240.00,535.83 1295.00,530.28 1295.00,530.28
             1295.00,530.28 1346.00,525.28 1346.00,525.28
             1350.17,524.79 1357.08,524.87 1361.00,523.43
             1366.21,521.51 1377.62,510.99 1380.00,506.00
             1380.00,506.00 1325.00,497.75 1325.00,497.75
             1325.00,497.75 1291.00,491.54 1291.00,491.54
             1291.00,491.54 1239.00,465.75 1239.00,465.75
             1239.00,465.75 1217.00,455.53 1217.00,455.53
             1217.00,455.53 1185.00,452.83 1185.00,452.83
             1185.00,452.83 1138.00,449.00 1138.00,449.00
             1138.00,449.00 1081.00,449.00 1081.00,449.00
             1081.00,449.00 1073.00,448.28 1073.00,448.28
             1073.00,448.28 1043.00,428.00 1043.00,428.00
             1043.00,428.00 1044.98,439.00 1044.98,439.00 Z" />
</svg>
