<?xml version="1.0" encoding="UTF-8" standalone="no"?>
<!DOCTYPE svg PUBLIC "-//W3C//DTD SVG 20010904//EN"
              "http://www.w3.org/TR/2001/REC-SVG-20010904/DTD/svg10.dtd">

<svg xmlns="http://www.w3.org/2000/svg"
     width="17.4933in" height="8.92in"
     viewBox="0 0 2624 1338">
  <path id="cmstpp"
        fill="none" stroke="black" stroke-width="1"
        d="M 798.00,198.00
           C 798.00,198.00 839.00,198.00 839.00,198.00
             839.00,198.00 851.00,198.71 851.00,198.71
             851.00,198.71 860.00,198.71 860.00,198.71
             860.00,198.71 877.00,200.72 877.00,200.72
             877.00,200.72 907.00,204.15 907.00,204.15
             907.00,204.15 955.00,211.13 955.00,211.13
             955.00,211.13 973.00,213.74 973.00,213.74
             977.53,213.81 984.48,210.54 989.00,209.00
             989.00,209.00 1027.00,195.31 1027.00,195.31
             1032.64,193.30 1040.02,189.78 1046.00,190.11
             1049.67,190.31 1060.94,194.01 1065.00,195.33
             1065.00,195.33 1093.00,203.98 1093.00,203.98
             1117.48,211.58 1160.19,223.10 1185.00,227.58
             1185.00,227.58 1243.00,237.83 1243.00,237.83
             1243.00,237.83 1325.00,244.83 1325.00,244.83
             1325.00,244.83 1365.00,248.28 1365.00,248.28
             1365.00,248.28 1425.00,258.42 1425.00,258.42
             1425.00,258.42 1468.00,267.21 1468.00,267.21
             1472.18,267.50 1478.75,265.44 1483.00,264.37
             1483.00,264.37 1510.00,257.63 1510.00,257.63
             1515.13,256.34 1522.76,254.23 1528.00,254.81
             1532.57,255.32 1539.85,259.84 1544.00,262.14
             1544.00,262.14 1578.00,280.02 1578.00,280.02
             1583.58,281.98 1590.05,280.03 1596.00,280.02
             1596.00,280.02 1625.00,278.98 1625.00,278.98
             1627.57,278.97 1631.72,278.52 1634.00,278.98
             1637.88,279.69 1646.30,284.49 1650.00,286.58
             1650.00,286.58 1686.00,305.06 1686.00,305.06
             1686.00,305.06 1724.00,311.59 1724.00,311.59
             1727.67,312.20 1737.22,313.21 1739.87,314.93
             1744.49,317.95 1747.78,334.25 1749.42,340.00
             1753.36,353.83 1758.04,363.15 1764.46,376.00
             1765.77,379.15 1769.08,386.49 1764.46,388.92
             1758.76,392.20 1754.49,379.61 1752.74,376.00
             1743.12,356.12 1744.81,361.87 1738.58,340.00
             1737.55,336.39 1735.38,326.00 1732.57,324.01
             1730.65,322.65 1720.88,321.40 1718.00,320.92
             1718.00,320.92 1683.00,315.07 1683.00,315.07
             1675.49,313.03 1653.52,300.09 1645.00,295.76
             1636.72,291.55 1634.44,289.02 1625.00,289.00
             1625.00,289.00 1596.00,290.00 1596.00,290.00
             1596.00,290.00 1580.00,290.98 1580.00,290.98
             1573.56,290.80 1570.60,288.07 1565.00,285.25
             1565.00,285.25 1540.00,271.86 1540.00,271.86
             1535.42,269.32 1528.20,264.77 1523.00,265.32
             1523.00,265.32 1484.00,274.87 1484.00,274.87
             1480.47,275.76 1473.30,277.81 1470.00,277.82
             1470.00,277.82 1435.00,271.00 1435.00,271.00
             1435.00,271.00 1363.00,258.28 1363.00,258.28
             1363.00,258.28 1335.00,255.83 1335.00,255.83
             1335.00,255.83 1271.00,250.09 1271.00,250.09
             1271.00,250.09 1239.00,247.83 1239.00,247.83
             1239.00,247.83 1210.00,242.42 1210.00,242.42
             1210.00,242.42 1170.00,235.34 1170.00,235.34
             1170.00,235.34 1143.00,228.37 1143.00,228.37
             1143.00,228.37 1090.00,213.98 1090.00,213.98
             1090.00,213.98 1063.00,205.66 1063.00,205.66
             1063.00,205.66 1046.00,200.70 1046.00,200.70
             1042.17,200.35 1030.22,205.21 1026.00,206.81
             1026.00,206.81 993.00,218.69 993.00,218.69
             988.34,220.36 979.63,224.11 975.00,224.25
             975.00,224.25 952.00,221.08 952.00,221.08
             952.00,221.08 914.00,215.28 914.00,215.28
             914.00,215.28 847.00,208.00 847.00,208.00
             847.00,208.00 800.00,208.00 800.00,208.00
             790.12,208.02 766.83,213.23 756.00,215.40
             751.42,216.32 741.29,219.05 737.18,217.26
             733.47,215.65 731.00,209.50 729.25,206.00
             729.25,206.00 719.31,186.00 719.31,186.00
             717.59,182.25 715.63,176.38 712.61,173.64
             710.42,171.64 702.16,168.26 699.00,166.86
             699.00,166.86 668.00,153.22 668.00,153.22
             668.00,153.22 630.00,130.60 630.00,130.60
             630.00,130.60 617.00,122.98 617.00,122.98
             617.00,122.98 592.00,116.13 592.00,116.13
             592.00,116.13 563.28,109.04 563.28,109.04
             558.97,108.52 548.50,113.27 544.00,114.95
             544.00,114.95 517.00,125.05 517.00,125.05
             513.70,126.28 506.09,129.45 503.00,129.75
             500.05,130.05 495.05,128.81 492.00,128.20
             492.00,128.20 449.00,119.40 449.00,119.40
             449.00,119.40 425.00,114.41 425.00,114.41
             425.00,114.41 395.00,100.69 395.00,100.69
             395.00,100.69 372.06,89.64 372.06,89.64
             369.35,87.92 366.86,84.64 369.03,81.43
             370.66,79.02 373.59,79.39 376.00,80.12
             376.00,80.12 395.00,88.76 395.00,88.76
             395.00,88.76 430.00,104.96 430.00,104.96
             430.00,104.96 481.00,115.58 481.00,115.58
             486.14,116.71 498.33,119.69 503.00,118.79
             503.00,118.79 545.00,103.32 545.00,103.32
             549.42,101.69 557.51,98.14 562.00,98.26
             562.00,98.26 585.00,103.63 585.00,103.63
             585.00,103.63 622.00,113.64 622.00,113.64
             622.00,113.64 675.00,144.75 675.00,144.75
             675.00,144.75 705.00,158.00 705.00,158.00
             709.16,159.78 717.76,163.14 720.61,166.21
             722.97,168.75 726.51,176.53 728.25,180.00
             728.25,180.00 742.00,208.00 742.00,208.00
             752.90,205.11 787.76,198.02 798.00,198.00 Z" />
</svg>
