<?xml version="1.0" encoding="UTF-8" standalone="no"?>
<!DOCTYPE svg PUBLIC "-//W3C//DTD SVG 20010904//EN"
              "http://www.w3.org/TR/2001/REC-SVG-20010904/DTD/svg10.dtd">

<svg xmlns="http://www.w3.org/2000/svg"
     width="17.4933in" height="8.92in"
     viewBox="0 0 2624 1338">
  <path id="cnw"
        fill="none" stroke="black" stroke-width="1"
        d="M 1119.00,380.00
           C 1119.00,380.00 1117.99,366.00 1117.99,366.00
             1117.99,366.00 1117.99,356.00 1117.99,356.00
             1117.29,352.39 1116.13,346.52 1117.99,343.28
             1120.88,338.98 1136.88,339.19 1142.00,338.96
             1142.00,338.96 1165.00,337.09 1165.00,337.09
             1184.18,335.78 1189.56,336.49 1209.00,331.63
             1209.00,331.63 1268.00,316.29 1268.00,316.29
             1268.00,316.29 1309.00,305.18 1309.00,305.18
             1309.00,305.18 1331.00,306.00 1331.00,306.00
             1331.00,306.00 1341.00,307.00 1341.00,307.00
             1341.00,307.00 1353.00,307.00 1353.00,307.00
             1353.00,307.00 1365.00,308.00 1365.00,308.00
             1365.00,308.00 1382.00,308.96 1382.00,308.96
             1382.00,308.96 1399.00,307.17 1399.00,307.17
             1399.00,307.17 1436.00,303.17 1436.00,303.17
             1436.00,303.17 1468.00,300.17 1468.00,300.17
             1468.00,300.17 1486.00,298.41 1486.00,298.41
             1494.07,297.00 1495.99,292.19 1500.63,286.00
             1500.63,286.00 1523.18,256.22 1523.18,256.22
             1527.81,251.89 1535.89,251.72 1542.00,250.87
             1542.00,250.87 1572.00,246.58 1572.00,246.58
             1572.00,246.58 1588.00,244.63 1588.00,244.63
             1592.82,245.01 1598.21,250.20 1602.00,253.12
             1602.00,253.12 1632.00,276.03 1632.00,276.03
             1636.09,278.31 1644.17,279.43 1649.00,280.40
             1649.00,280.40 1684.00,287.12 1684.00,287.12
             1684.00,287.12 1720.00,303.75 1720.00,303.75
             1726.06,306.78 1740.63,312.69 1743.92,318.04
             1743.92,318.04 1749.69,334.00 1749.69,334.00
             1749.69,334.00 1762.76,367.00 1762.76,367.00
             1764.65,370.85 1770.34,379.71 1767.96,383.72
             1766.00,387.03 1757.71,387.66 1754.00,388.40
             1754.00,388.40 1715.00,396.00 1715.00,396.00
             1715.00,396.00 1683.00,400.28 1683.00,400.28
             1683.00,400.28 1647.00,404.96 1647.00,404.96
             1647.00,404.96 1637.00,404.96 1637.00,404.96
             1637.00,404.96 1627.00,406.00 1627.00,406.00
             1627.00,406.00 1592.00,408.00 1592.00,408.00
             1592.00,408.00 1540.00,408.00 1540.00,408.00
             1531.47,408.10 1506.73,415.56 1497.00,418.12
             1491.64,419.52 1484.62,420.23 1480.61,424.22
             1480.61,424.22 1451.92,459.00 1451.92,459.00
             1449.29,462.17 1444.41,469.67 1439.99,469.47
             1437.73,469.38 1428.97,463.74 1426.00,462.25
             1426.00,462.25 1388.00,442.12 1388.00,442.12
             1380.71,439.39 1372.54,441.91 1365.00,442.12
             1365.00,442.12 1348.00,442.12 1348.00,442.12
             1348.00,442.12 1334.00,443.00 1334.00,443.00
             1321.90,443.06 1316.42,440.60 1305.00,437.42
             1305.00,437.42 1259.00,424.89 1259.00,424.89
             1259.00,424.89 1216.00,418.72 1216.00,418.72
             1197.84,416.33 1185.74,413.78 1167.00,414.00
             1167.00,414.00 1154.00,415.00 1154.00,415.00
             1154.00,415.00 1122.00,416.00 1122.00,416.00
             1122.00,416.00 1105.00,417.00 1105.00,417.00
             1105.00,417.00 1050.00,417.00 1050.00,417.00
             1050.00,417.00 1039.00,417.96 1039.00,417.96
             1030.32,418.30 1010.51,411.82 1001.00,409.37
             996.85,408.30 985.58,406.50 987.66,399.99
             989.77,393.58 1001.47,398.69 1006.00,399.99
             1017.29,402.86 1031.56,407.95 1043.00,408.00
             1043.00,408.00 1067.00,407.00 1067.00,407.00
             1067.00,407.00 1105.00,407.00 1105.00,407.00
             1105.00,407.00 1121.00,406.00 1121.00,406.00
             1121.00,406.00 1119.00,380.00 1119.00,380.00 Z
           M 1748.31,360.00
           C 1748.31,360.00 1741.34,341.00 1741.34,341.00
             1739.94,336.96 1736.96,326.10 1734.49,323.39
             1732.02,320.66 1717.24,313.87 1713.00,311.75
             1705.05,307.78 1688.71,298.86 1681.00,296.90
             1681.00,296.90 1630.00,286.39 1630.00,286.39
             1625.23,284.44 1604.57,267.58 1599.00,263.21
             1593.93,259.23 1589.82,254.65 1583.00,255.17
             1583.00,255.17 1550.00,259.87 1550.00,259.87
             1550.00,259.87 1532.09,262.73 1532.09,262.73
             1528.24,264.37 1523.03,272.46 1520.37,276.00
             1520.37,276.00 1494.96,308.83 1494.96,308.83
             1494.96,308.83 1485.00,317.08 1485.00,317.08
             1485.00,317.08 1452.00,343.92 1452.00,343.92
             1448.10,347.15 1438.15,354.52 1435.70,358.04
             1433.28,361.50 1426.53,383.40 1424.67,389.00
             1424.67,389.00 1418.67,407.00 1418.67,407.00
             1417.77,409.70 1416.30,413.16 1416.88,416.00
             1417.42,418.65 1422.35,426.21 1423.99,429.00
             1423.99,429.00 1440.00,456.00 1440.00,456.00
             1440.00,456.00 1442.00,456.00 1442.00,456.00
             1442.00,456.00 1463.80,429.00 1463.80,429.00
             1466.35,425.85 1474.41,415.58 1477.09,413.72
             1481.07,410.96 1500.00,406.99 1506.00,405.29
             1515.95,402.47 1529.96,398.02 1540.00,398.00
             1540.00,398.00 1591.00,398.00 1591.00,398.00
             1591.00,398.00 1622.00,396.00 1622.00,396.00
             1643.37,395.75 1694.38,389.48 1716.00,385.58
             1716.00,385.58 1756.00,378.00 1756.00,378.00
             1754.78,371.50 1751.00,365.97 1748.31,360.00 Z
           M 1419.00,315.17
           C 1419.00,315.17 1379.00,318.99 1379.00,318.99
             1379.00,318.99 1370.00,318.00 1370.00,318.00
             1370.00,318.00 1359.00,318.00 1359.00,318.00
             1359.00,318.00 1345.00,317.00 1345.00,317.00
             1345.00,317.00 1331.00,316.00 1331.00,316.00
             1331.00,316.00 1311.00,315.18 1311.00,315.18
             1311.00,315.18 1276.00,324.58 1276.00,324.58
             1276.00,324.58 1199.00,344.54 1199.00,344.54
             1199.00,344.54 1145.00,348.83 1145.00,348.83
             1145.00,348.83 1127.00,351.00 1127.00,351.00
             1127.00,351.00 1129.09,381.00 1129.09,381.00
             1129.09,381.00 1130.00,390.00 1130.00,390.00
             1130.13,392.74 1130.66,403.50 1132.60,405.04
             1134.41,406.33 1137.89,405.37 1140.00,405.04
             1140.00,405.04 1155.00,405.04 1155.00,405.04
             1155.00,405.04 1165.00,404.04 1165.00,404.04
             1165.00,404.04 1178.00,404.04 1178.00,404.04
             1178.00,404.04 1211.00,407.85 1211.00,407.85
             1211.00,407.85 1260.00,414.67 1260.00,414.67
             1260.00,414.67 1278.00,419.58 1278.00,419.58
             1278.00,419.58 1307.00,427.42 1307.00,427.42
             1317.90,430.45 1323.36,433.01 1335.00,433.00
             1335.00,433.00 1351.00,431.85 1351.00,431.85
             1351.00,431.85 1367.00,431.85 1367.00,431.85
             1373.56,431.92 1381.56,429.90 1388.00,431.85
             1388.00,431.85 1424.00,449.00 1424.00,449.00
             1421.76,442.93 1415.18,432.96 1411.60,427.00
             1410.06,424.44 1406.97,419.80 1406.51,417.00
             1405.79,412.63 1411.98,396.06 1413.67,391.00
             1413.67,391.00 1421.67,367.00 1421.67,367.00
             1423.10,362.71 1424.73,356.50 1427.42,353.01
             1427.42,353.01 1479.00,309.00 1479.00,309.00
             1479.00,309.00 1419.00,315.17 1419.00,315.17 Z
           M 1424.00,449.00
           C 1424.00,449.00 1425.00,450.00 1425.00,450.00
             1425.00,450.00 1425.00,449.00 1425.00,449.00
             1425.00,449.00 1424.00,449.00 1424.00,449.00 Z" />
</svg>
