<?xml version="1.0" encoding="UTF-8" standalone="no"?>
<!DOCTYPE svg PUBLIC "-//W3C//DTD SVG 20010904//EN"
              "http://www.w3.org/TR/2001/REC-SVG-20010904/DTD/svg10.dtd">

<svg xmlns="http://www.w3.org/2000/svg"
     width="17.4933in" height="8.92in"
     viewBox="0 0 2624 1338">
  <path id="co"
        fill="none" stroke="black" stroke-width="1"
        d="M 2003.37,478.00
           C 2003.37,478.00 1992.30,447.04 1992.30,447.04
             1992.30,447.04 1958.39,415.83 1958.39,415.83
             1954.59,411.40 1953.15,403.59 1951.33,398.00
             1951.33,398.00 1938.39,358.00 1938.39,358.00
             1936.25,352.53 1929.66,340.16 1929.79,335.00
             1929.90,330.84 1932.48,327.40 1934.58,324.00
             1938.97,316.89 1943.30,306.83 1951.00,303.04
             1951.00,303.04 2001.00,279.14 2001.00,279.14
             2001.00,279.14 2037.00,256.94 2037.00,256.94
             2037.00,256.94 2049.00,249.66 2049.00,249.66
             2049.00,249.66 2062.00,244.58 2062.00,244.58
             2062.00,244.58 2087.00,235.32 2087.00,235.32
             2089.99,234.21 2096.04,231.55 2099.00,231.67
             2103.80,231.85 2110.56,238.70 2112.13,243.00
             2113.72,247.37 2110.78,250.43 2107.00,249.34
             2103.20,248.26 2101.06,243.81 2097.00,243.36
             2094.70,243.10 2090.27,245.10 2088.00,245.95
             2088.00,245.95 2068.00,253.58 2068.00,253.58
             2068.00,253.58 2055.00,258.32 2055.00,258.32
             2055.00,258.32 2004.00,289.55 2004.00,289.55
             2004.00,289.55 1983.00,299.75 1983.00,299.75
             1983.00,299.75 1954.18,313.63 1954.18,313.63
             1951.01,316.22 1947.80,322.34 1945.60,326.00
             1944.48,327.87 1941.78,332.10 1941.28,334.00
             1940.16,338.28 1948.01,353.48 1949.72,359.00
             1949.72,359.00 1960.66,393.00 1960.66,393.00
             1962.13,397.60 1963.75,405.25 1966.51,408.96
             1966.51,408.96 1993.00,433.07 1993.00,433.07
             1996.14,435.92 2000.53,439.30 2002.44,443.01
             2002.44,443.01 2013.09,474.00 2013.09,474.00
             2015.10,478.88 2021.19,488.11 2024.19,493.00
             2026.66,497.03 2031.20,505.77 2035.09,507.99
             2038.12,509.72 2044.45,509.85 2048.00,510.28
             2048.00,510.28 2084.00,514.55 2084.00,514.55
             2089.07,515.87 2111.02,529.61 2117.00,533.20
             2119.59,534.75 2126.37,539.25 2129.00,539.51
             2133.01,539.92 2145.96,530.51 2150.00,527.95
             2157.78,523.01 2165.06,516.97 2174.00,514.29
             2174.00,514.29 2196.00,508.37 2196.00,508.37
             2199.01,507.59 2206.53,505.74 2208.82,504.15
             2212.17,501.83 2218.12,490.99 2220.69,487.00
             2232.68,468.35 2227.42,475.78 2241.87,459.00
             2244.77,455.63 2252.36,445.19 2256.95,445.54
             2258.23,445.64 2259.27,446.24 2259.97,447.32
             2262.74,451.56 2257.26,457.03 2254.73,460.00
             2232.16,486.53 2239.20,478.14 2221.00,506.04
             2221.00,506.04 2234.00,506.04 2234.00,506.04
             2234.00,506.04 2244.00,507.00 2244.00,507.00
             2244.00,507.00 2258.00,507.00 2258.00,507.00
             2261.44,507.05 2267.02,507.11 2268.34,511.13
             2269.40,514.31 2266.91,516.68 2263.98,517.13
             2263.98,517.13 2245.00,517.13 2245.00,517.13
             2245.00,517.13 2235.00,515.91 2235.00,515.91
             2235.00,515.91 2220.00,515.91 2220.00,515.91
             2220.00,515.91 2210.00,515.91 2210.00,515.91
             2210.00,515.91 2196.00,519.12 2196.00,519.12
             2196.00,519.12 2173.00,525.90 2173.00,525.90
             2173.00,525.90 2143.00,544.81 2143.00,544.81
             2140.12,546.60 2134.02,551.05 2131.00,551.48
             2127.46,551.98 2123.02,548.88 2120.00,547.15
             2120.00,547.15 2096.00,533.01 2096.00,533.01
             2096.00,533.01 2081.00,524.69 2081.00,524.69
             2081.00,524.69 2058.00,521.72 2058.00,521.72
             2058.00,521.72 2038.00,519.74 2038.00,519.74
             2033.51,520.27 2028.17,526.83 2025.00,530.00
             2016.85,538.15 2007.26,550.71 1996.00,553.62
             1996.00,553.62 1957.00,563.00 1957.00,563.00
             1957.00,563.00 1924.00,568.80 1924.00,568.80
             1924.00,568.80 1907.00,571.72 1907.00,571.72
             1903.98,571.69 1901.29,570.38 1901.29,566.98
             1901.29,562.55 1905.55,561.72 1909.00,561.08
             1909.00,561.08 1934.00,556.75 1934.00,556.75
             1934.00,556.75 1978.00,547.37 1978.00,547.37
             1982.04,546.36 1995.13,543.43 1998.00,541.86
             2002.53,539.40 2017.72,523.58 2021.00,519.00
             2021.00,519.00 1987.00,520.00 1987.00,520.00
             1977.55,519.98 1968.89,515.96 1960.00,513.00
             1960.00,513.00 1943.00,506.92 1943.00,506.92
             1937.75,503.87 1932.23,496.56 1927.98,492.00
             1927.98,492.00 1912.28,475.00 1912.28,475.00
             1906.34,468.26 1900.69,461.14 1894.00,455.10
             1889.23,450.80 1877.15,444.91 1871.00,441.74
             1871.00,441.74 1838.00,424.14 1838.00,424.14
             1838.00,424.14 1784.00,396.75 1784.00,396.75
             1780.35,394.93 1771.03,391.57 1772.71,386.14
             1773.09,384.88 1773.95,384.10 1775.15,383.61
             1779.50,381.86 1789.82,388.16 1794.00,390.25
             1794.00,390.25 1843.00,414.76 1843.00,414.76
             1843.00,414.76 1881.00,435.14 1881.00,435.14
             1888.01,439.02 1894.93,441.58 1901.00,447.10
             1901.00,447.10 1933.83,483.00 1933.83,483.00
             1937.88,487.49 1943.88,494.95 1949.00,497.92
             1949.00,497.92 1964.00,503.33 1964.00,503.33
             1973.56,506.52 1980.79,509.98 1991.00,510.00
             1991.00,510.00 2003.00,510.00 2003.00,510.00
             2003.00,510.00 2022.00,509.00 2022.00,509.00
             2018.07,503.87 2005.52,483.67 2003.37,478.00 Z" />
</svg>
