<?xml version="1.0" encoding="UTF-8" standalone="no"?>
<!DOCTYPE svg PUBLIC "-//W3C//DTD SVG 20010904//EN"
              "http://www.w3.org/TR/2001/REC-SVG-20010904/DTD/svg10.dtd">

<svg xmlns="http://www.w3.org/2000/svg"
     width="17.4933in" height="8.92in"
     viewBox="0 0 2624 1338">
  <path id="crip"
        fill="none" stroke="black" stroke-width="1"
        d="M 1417.00,584.20
           C 1417.00,584.20 1389.00,578.58 1389.00,578.58
             1389.00,578.58 1345.00,570.92 1345.00,570.92
             1335.04,569.24 1325.15,567.02 1315.00,566.85
             1315.00,566.85 1295.00,566.85 1295.00,566.85
             1295.00,566.85 1282.00,566.85 1282.00,566.85
             1282.00,566.85 1228.00,587.52 1228.00,587.52
             1228.00,587.52 1191.00,595.65 1191.00,595.65
             1185.11,596.98 1173.42,600.21 1168.00,599.91
             1168.00,599.91 1157.00,599.00 1157.00,599.00
             1157.00,599.00 1124.00,599.00 1124.00,599.00
             1116.05,599.10 1108.54,602.02 1101.00,604.28
             1101.00,604.28 1070.00,613.29 1070.00,613.29
             1065.62,614.55 1053.01,619.40 1049.31,616.97
             1046.41,615.07 1046.71,610.67 1050.23,608.57
             1050.23,608.57 1074.00,601.29 1074.00,601.29
             1087.15,597.51 1110.37,589.02 1123.00,589.28
             1123.00,589.28 1162.32,589.28 1162.32,589.28
             1162.32,589.28 1170.00,589.28 1170.00,589.28
             1170.00,589.28 1201.00,582.88 1201.00,582.88
             1201.00,582.88 1231.00,575.39 1231.00,575.39
             1231.00,575.39 1261.00,563.15 1261.00,563.15
             1264.93,561.48 1275.31,556.89 1279.00,556.34
             1279.00,556.34 1292.00,557.08 1292.00,557.08
             1292.00,557.08 1312.00,557.08 1312.00,557.08
             1315.44,557.01 1323.63,558.10 1326.00,557.08
             1329.64,555.95 1334.07,550.82 1337.00,548.09
             1337.00,548.09 1355.96,530.18 1355.96,530.18
             1355.96,530.18 1390.00,497.17 1390.00,497.17
             1390.00,497.17 1413.00,478.60 1413.00,478.60
             1413.00,478.60 1432.00,463.66 1432.00,463.66
             1435.87,461.25 1452.68,456.39 1458.00,454.86
             1458.00,454.86 1498.00,443.37 1498.00,443.37
             1498.00,443.37 1516.00,438.87 1516.00,438.87
             1518.70,438.19 1522.49,437.50 1524.49,435.49
             1527.14,432.83 1527.61,425.72 1528.13,422.00
             1529.59,411.58 1531.98,400.50 1532.04,390.00
             1532.04,390.00 1532.04,375.00 1532.04,375.00
             1532.04,375.00 1533.00,364.00 1533.00,364.00
             1533.08,346.33 1527.69,327.51 1524.61,310.00
             1524.61,310.00 1522.28,284.00 1522.28,284.00
             1522.28,284.00 1520.39,259.00 1520.39,259.00
             1520.68,255.73 1523.27,252.44 1526.86,253.66
             1530.66,254.94 1530.87,261.67 1530.99,265.00
             1530.99,265.00 1532.83,286.00 1532.83,286.00
             1532.83,286.00 1533.42,296.00 1533.42,296.00
             1533.42,296.00 1535.42,312.00 1535.42,312.00
             1538.46,328.85 1543.20,345.82 1543.00,363.00
             1543.00,363.00 1542.00,376.00 1542.00,376.00
             1542.00,376.00 1542.00,394.00 1542.00,394.00
             1542.00,394.00 1537.00,433.00 1537.00,433.00
             1537.00,433.00 1594.00,424.29 1594.00,424.29
             1594.00,424.29 1626.00,421.91 1626.00,421.91
             1626.00,421.91 1656.17,419.15 1656.17,419.15
             1656.17,419.15 1696.00,416.17 1696.00,416.17
             1703.31,415.47 1707.91,416.59 1715.00,412.76
             1715.00,412.76 1757.00,387.42 1757.00,387.42
             1760.35,385.35 1768.59,379.36 1771.81,384.43
             1775.22,389.81 1765.46,394.50 1762.00,396.68
             1762.00,396.68 1722.00,420.94 1722.00,420.94
             1713.22,426.27 1707.70,425.42 1698.00,426.09
             1698.00,426.09 1672.00,428.09 1672.00,428.09
             1672.00,428.09 1653.00,429.91 1653.00,429.91
             1653.00,429.91 1599.00,434.17 1599.00,434.17
             1599.00,434.17 1575.00,437.73 1575.00,437.73
             1575.00,437.73 1549.00,441.73 1549.00,441.73
             1546.28,442.13 1539.37,442.78 1537.31,444.17
             1534.65,445.98 1534.42,451.01 1533.92,454.00
             1533.92,454.00 1529.59,480.00 1529.59,480.00
             1529.59,480.00 1517.00,560.00 1517.00,560.00
             1517.00,560.00 1514.08,576.00 1514.08,576.00
             1513.66,578.49 1513.30,582.46 1511.42,584.27
             1508.99,586.60 1502.27,586.96 1499.00,587.00
             1499.00,587.00 1478.00,588.00 1478.00,588.00
             1478.00,588.00 1455.00,589.64 1455.00,589.64
             1450.51,590.93 1435.02,601.46 1430.00,604.69
             1426.80,606.76 1415.44,613.96 1413.58,616.32
             1411.02,619.58 1411.20,625.04 1410.72,629.00
             1410.72,629.00 1407.05,657.00 1407.05,657.00
             1407.05,657.00 1389.52,700.00 1389.52,700.00
             1389.52,700.00 1378.44,742.00 1378.44,742.00
             1378.44,742.00 1375.91,771.00 1375.91,771.00
             1375.91,771.00 1375.00,782.00 1375.00,782.00
             1375.00,782.00 1402.00,782.00 1402.00,782.00
             1411.03,782.05 1414.12,784.81 1422.00,788.75
             1422.00,788.75 1448.00,801.76 1448.00,801.76
             1452.52,804.06 1459.10,808.74 1464.00,808.73
             1464.00,808.73 1484.00,805.00 1484.00,805.00
             1484.00,805.00 1522.00,797.60 1522.00,797.60
             1522.00,797.60 1575.00,786.60 1575.00,786.60
             1584.50,784.70 1593.22,782.02 1603.00,782.00
             1603.00,782.00 1625.00,782.00 1625.00,782.00
             1625.00,782.00 1639.00,783.00 1639.00,783.00
             1658.22,783.22 1661.82,780.92 1680.00,776.37
             1707.09,769.60 1707.83,769.38 1734.00,759.42
             1738.10,757.86 1750.57,752.77 1754.00,752.34
             1757.63,751.89 1761.72,753.52 1760.34,757.95
             1759.34,761.18 1755.82,762.32 1753.00,763.42
             1753.00,763.42 1733.00,771.05 1733.00,771.05
             1733.00,771.05 1712.00,778.97 1712.00,778.97
             1712.00,778.97 1681.00,786.87 1681.00,786.87
             1664.12,791.09 1660.85,793.21 1643.00,793.00
             1643.00,793.00 1630.00,792.00 1630.00,792.00
             1630.00,792.00 1605.00,792.00 1605.00,792.00
             1594.37,792.02 1578.81,796.20 1568.00,798.58
             1568.00,798.58 1518.00,808.80 1518.00,808.80
             1518.00,808.80 1481.00,816.00 1481.00,816.00
             1481.00,816.00 1462.00,819.50 1462.00,819.50
             1457.91,819.41 1449.02,814.26 1445.00,812.25
             1445.00,812.25 1407.00,793.35 1407.00,793.35
             1401.23,791.03 1383.15,792.00 1376.00,792.00
             1376.00,792.00 1386.75,852.00 1386.75,852.00
             1388.43,861.66 1392.47,889.69 1395.79,897.00
             1395.79,897.00 1410.00,925.00 1410.00,925.00
             1411.63,928.23 1414.69,933.21 1412.11,936.68
             1408.74,941.20 1404.20,936.04 1402.35,933.00
             1402.35,933.00 1387.70,904.00 1387.70,904.00
             1382.05,893.18 1381.48,879.91 1379.20,868.00
             1379.20,868.00 1365.00,792.00 1365.00,792.00
             1365.00,792.00 1323.00,806.76 1323.00,806.76
             1323.00,806.76 1293.00,811.27 1293.00,811.27
             1293.00,811.27 1256.00,816.00 1256.00,816.00
             1256.00,816.00 1212.00,817.00 1212.00,817.00
             1212.00,817.00 1200.00,817.96 1200.00,817.96
             1200.00,817.96 1188.00,817.96 1188.00,817.96
             1188.00,817.96 1175.00,819.00 1175.00,819.00
             1175.00,819.00 1146.00,820.00 1146.00,820.00
             1146.00,820.00 1133.00,821.00 1133.00,821.00
             1133.00,821.00 1104.00,822.00 1104.00,822.00
             1100.27,821.93 1095.14,821.25 1096.66,816.00
             1097.49,813.09 1100.77,810.48 1103.00,808.59
             1103.00,808.59 1118.00,796.25 1118.00,796.25
             1118.00,796.25 1160.00,761.50 1160.00,761.50
             1160.00,761.50 1180.00,748.00 1180.00,748.00
             1198.76,735.50 1201.57,734.19 1219.00,718.85
             1223.96,714.48 1240.65,698.96 1245.00,696.67
             1245.00,696.67 1280.00,685.00 1280.00,685.00
             1280.00,685.00 1304.00,676.57 1304.00,676.57
             1304.00,676.57 1325.00,666.86 1325.00,666.86
             1325.00,666.86 1352.00,654.05 1352.00,654.05
             1356.60,651.16 1365.47,643.25 1370.00,639.42
             1370.00,639.42 1397.00,616.71 1397.00,616.71
             1397.00,616.71 1406.17,608.04 1406.17,608.04
             1406.17,608.04 1436.00,589.00 1436.00,589.00
             1430.09,586.21 1423.37,585.47 1417.00,584.20 Z
           M 1464.00,463.66
           C 1464.00,463.66 1437.00,472.53 1437.00,472.53
             1437.00,472.53 1416.00,488.80 1416.00,488.80
             1390.05,509.56 1391.96,507.96 1368.58,531.72
             1360.50,539.92 1345.96,551.68 1340.00,560.00
             1340.00,560.00 1420.00,574.60 1420.00,574.60
             1420.00,574.60 1446.99,579.82 1446.99,579.82
             1446.99,579.82 1478.00,578.00 1478.00,578.00
             1478.00,578.00 1495.00,577.00 1495.00,577.00
             1495.00,577.00 1503.07,575.40 1503.07,575.40
             1503.07,575.40 1505.92,565.00 1505.92,565.00
             1505.92,565.00 1509.92,542.00 1509.92,542.00
             1509.92,542.00 1519.27,480.00 1519.27,480.00
             1519.27,480.00 1524.00,448.00 1524.00,448.00
             1512.89,448.93 1476.09,459.80 1464.00,463.66 Z
           M 1355.00,664.18
           C 1355.00,664.18 1302.00,688.46 1302.00,688.46
             1302.00,688.46 1265.00,700.67 1265.00,700.67
             1265.00,700.67 1250.00,705.55 1250.00,705.55
             1250.00,705.55 1236.00,716.84 1236.00,716.84
             1236.00,716.84 1208.00,741.10 1208.00,741.10
             1208.00,741.10 1166.00,769.43 1166.00,769.43
             1166.00,769.43 1139.00,791.59 1139.00,791.59
             1139.00,791.59 1116.00,812.00 1116.00,812.00
             1116.00,812.00 1152.00,810.00 1152.00,810.00
             1152.00,810.00 1164.00,809.04 1164.00,809.04
             1164.00,809.04 1175.00,809.04 1175.00,809.04
             1175.00,809.04 1190.00,807.96 1190.00,807.96
             1190.00,807.96 1202.00,807.96 1202.00,807.96
             1202.00,807.96 1214.00,807.00 1214.00,807.00
             1214.00,807.00 1228.00,807.00 1228.00,807.00
             1228.00,807.00 1240.00,806.04 1240.00,806.04
             1240.00,806.04 1253.00,806.04 1253.00,806.04
             1253.00,806.04 1298.00,800.27 1298.00,800.27
             1322.03,796.81 1323.69,796.64 1347.00,787.81
             1350.33,786.55 1361.50,783.30 1363.40,781.30
             1365.54,779.05 1365.86,770.24 1366.03,767.00
             1366.03,767.00 1368.89,738.00 1368.89,738.00
             1368.89,738.00 1380.81,694.00 1380.81,694.00
             1380.81,694.00 1397.21,654.00 1397.21,654.00
             1397.21,654.00 1401.00,627.00 1401.00,627.00
             1401.00,627.00 1355.00,664.18 1355.00,664.18 Z" />
</svg>
