<?xml version="1.0" encoding="UTF-8" standalone="no"?>
<!DOCTYPE svg PUBLIC "-//W3C//DTD SVG 20010904//EN"
              "http://www.w3.org/TR/2001/REC-SVG-20010904/DTD/svg10.dtd">

<svg xmlns="http://www.w3.org/2000/svg"
     width="17.4933in" height="8.92in"
     viewBox="0 0 2624 1338">
  <path id="drgw"
        fill="none" stroke="black" stroke-width="1"
        d="M 752.00,466.00
           C 752.00,466.00 752.53,491.00 752.53,491.00
             753.52,495.31 765.84,517.69 768.80,523.00
             772.88,530.33 782.50,537.82 789.00,543.42
             806.51,558.52 810.86,562.95 831.00,575.58
             835.79,578.58 847.64,587.51 852.00,588.58
             852.00,588.58 877.00,588.00 877.00,588.00
             877.00,588.00 887.00,587.04 887.00,587.04
             887.00,587.04 898.00,587.04 898.00,587.04
             908.10,586.88 914.86,583.05 924.00,579.40
             924.00,579.40 966.00,561.58 966.00,561.58
             966.00,561.58 991.00,550.42 991.00,550.42
             994.26,549.01 999.61,546.18 1003.00,546.21
             1007.99,546.25 1018.44,553.75 1023.00,556.58
             1023.00,556.58 1044.00,569.40 1044.00,569.40
             1047.10,571.26 1052.25,573.92 1053.98,577.09
             1055.06,579.08 1055.96,590.26 1056.00,593.00
             1056.20,610.20 1057.72,613.93 1062.29,630.00
             1063.40,633.91 1066.86,644.39 1065.40,647.85
             1063.76,651.74 1059.32,650.92 1056.00,650.41
             1056.00,650.41 1029.00,646.41 1029.00,646.41
             1024.03,645.61 1008.51,643.97 1005.21,641.42
             1002.56,639.37 1000.27,634.08 998.76,631.00
             998.76,631.00 985.79,604.04 985.79,604.04
             982.98,599.51 978.54,598.08 974.00,595.74
             974.00,595.74 948.00,582.45 948.00,582.45
             944.30,581.70 934.90,586.44 931.00,588.00
             915.92,594.03 912.67,596.98 896.00,597.00
             896.00,597.00 868.00,598.00 868.00,598.00
             862.44,598.01 853.62,599.66 849.00,598.73
             844.82,597.88 836.87,591.91 833.00,589.33
             833.00,589.33 800.00,566.83 800.00,566.83
             800.00,566.83 763.39,534.00 763.39,534.00
             763.39,534.00 752.14,514.00 752.14,514.00
             747.79,506.16 742.12,498.21 742.00,489.00
             742.00,489.00 742.00,468.00 742.00,468.00
             742.06,463.54 741.79,460.30 746.13,458.08
             751.59,458.38 751.91,461.17 752.00,466.00 Z
           M 1046.00,598.00
           C 1045.96,593.95 1046.15,585.72 1043.99,582.33
             1041.96,579.13 1026.22,570.34 1022.00,567.68
             1017.91,565.10 1006.31,557.23 1002.00,557.34
             999.29,557.41 990.91,561.44 988.00,562.77
             988.00,562.77 960.00,575.00 960.00,575.00
             960.00,575.00 960.00,577.00 960.00,577.00
             960.00,577.00 981.00,587.76 981.00,587.76
             985.11,589.84 990.31,592.31 993.04,596.10
             993.04,596.10 1006.25,623.00 1006.25,623.00
             1007.58,625.66 1010.02,631.43 1012.39,632.98
             1014.41,634.30 1022.21,634.99 1025.00,635.42
             1025.00,635.42 1054.00,640.00 1054.00,640.00
             1051.82,624.52 1046.23,617.24 1046.00,598.00 Z" />
</svg>
