<?xml version="1.0" encoding="UTF-8" standalone="no"?>
<!DOCTYPE svg PUBLIC "-//W3C//DTD SVG 20010904//EN"
              "http://www.w3.org/TR/2001/REC-SVG-20010904/DTD/svg10.dtd">

<svg xmlns="http://www.w3.org/2000/svg"
     width="17.4933in" height="8.92in"
     viewBox="0 0 2624 1338">
  <path id="gmo"
        fill="none" stroke="black" stroke-width="1"
        d="M 1683.00,540.34
           C 1683.00,540.34 1647.00,553.67 1647.00,553.67
             1647.00,553.67 1583.00,571.99 1583.00,571.99
             1583.00,571.99 1559.00,576.08 1559.00,576.08
             1559.00,576.08 1521.00,582.75 1521.00,582.75
             1517.20,583.41 1509.43,585.53 1508.37,579.90
             1507.10,573.11 1517.58,572.81 1522.00,572.08
             1522.00,572.08 1573.00,563.41 1573.00,563.41
             1573.00,563.41 1604.00,555.42 1604.00,555.42
             1604.00,555.42 1652.00,540.81 1652.00,540.81
             1657.93,538.56 1674.81,533.28 1679.00,530.35
             1679.00,530.35 1689.00,521.28 1689.00,521.28
             1693.01,517.75 1706.21,505.60 1708.91,501.91
             1708.91,501.91 1735.22,455.00 1735.22,455.00
             1744.04,438.28 1749.03,419.88 1755.00,402.00
             1756.21,398.37 1759.71,385.76 1765.69,389.08
             1769.48,391.19 1767.33,397.88 1766.33,401.00
             1766.33,401.00 1754.67,436.00 1754.67,436.00
             1748.08,455.76 1740.45,466.99 1730.69,485.00
             1730.69,485.00 1720.97,503.00 1720.97,503.00
             1720.97,503.00 1718.85,518.00 1718.85,518.00
             1718.85,518.00 1715.95,541.00 1715.95,541.00
             1715.95,541.00 1713.83,560.00 1713.83,560.00
             1713.14,564.64 1711.85,568.54 1713.83,573.00
             1713.83,573.00 1732.31,602.00 1732.31,602.00
             1732.31,602.00 1760.02,644.00 1760.02,644.00
             1760.02,644.00 1774.55,665.00 1774.55,665.00
             1774.55,665.00 1786.26,687.00 1786.26,687.00
             1786.26,687.00 1798.46,711.00 1798.46,711.00
             1798.46,711.00 1811.51,750.00 1811.51,750.00
             1811.51,750.00 1818.48,784.00 1818.48,784.00
             1818.48,784.00 1825.95,805.00 1825.95,805.00
             1825.95,805.00 1833.81,826.00 1833.81,826.00
             1834.89,828.83 1836.25,833.47 1838.42,835.49
             1840.66,837.58 1844.11,837.99 1847.00,838.65
             1847.00,838.65 1865.00,842.65 1865.00,842.65
             1865.00,842.65 1934.00,856.42 1934.00,856.42
             1934.00,856.42 1956.98,861.03 1956.98,861.03
             1959.71,862.11 1962.57,864.54 1960.92,867.78
             1959.38,870.79 1955.86,870.78 1953.00,870.37
             1953.00,870.37 1932.00,866.42 1932.00,866.42
             1932.00,866.42 1881.00,856.79 1881.00,856.79
             1881.00,856.79 1841.00,848.00 1841.00,848.00
             1841.00,848.00 1844.72,882.00 1844.72,882.00
             1845.34,887.06 1845.77,896.68 1847.76,901.00
             1847.76,901.00 1869.87,931.00 1869.87,931.00
             1869.87,931.00 1886.42,953.00 1886.42,953.00
             1888.42,955.63 1891.78,959.32 1889.93,962.85
             1885.52,971.31 1876.56,957.25 1874.13,954.00
             1874.13,954.00 1848.37,920.00 1848.37,920.00
             1845.06,915.58 1838.38,908.03 1837.14,903.00
             1837.14,903.00 1830.19,848.00 1830.19,848.00
             1830.19,848.00 1809.21,790.00 1809.21,790.00
             1809.21,790.00 1802.99,759.00 1802.99,759.00
             1801.21,750.91 1790.45,718.08 1787.02,711.00
             1787.02,711.00 1765.94,671.00 1765.94,671.00
             1765.94,671.00 1757.67,659.00 1757.67,659.00
             1757.67,659.00 1726.19,612.00 1726.19,612.00
             1726.19,612.00 1711.00,588.00 1711.00,588.00
             1708.61,584.38 1703.34,576.95 1702.42,573.00
             1701.64,569.63 1703.37,559.96 1703.85,556.00
             1703.85,556.00 1709.00,517.00 1709.00,517.00
             1704.19,521.59 1687.33,537.64 1683.00,540.34 Z" />
</svg>
