<?xml version="1.0" encoding="UTF-8" standalone="no"?>
<!DOCTYPE svg PUBLIC "-//W3C//DTD SVG 20010904//EN"
              "http://www.w3.org/TR/2001/REC-SVG-20010904/DTD/svg10.dtd">

<svg xmlns="http://www.w3.org/2000/svg"
     width="17.4933in" height="8.92in"
     viewBox="0 0 2624 1338">
  <path id="gn"
        fill="none" stroke="black" stroke-width="1"
        d="M 519.00,110.00
           C 519.00,110.00 495.00,111.00 495.00,111.00
             484.23,110.98 477.75,107.00 468.00,102.85
             456.90,98.12 425.91,84.30 416.00,82.59
             416.00,82.59 382.02,77.31 382.02,77.31
             376.02,77.67 375.54,85.16 370.15,83.21
             364.84,81.23 368.27,70.74 370.15,68.43
             372.24,65.70 375.89,65.92 379.00,66.29
             379.00,66.29 402.00,69.92 402.00,69.92
             402.00,69.92 425.00,73.78 425.00,73.78
             425.00,73.78 461.00,88.42 461.00,88.42
             469.96,92.18 486.99,100.88 496.00,101.00
             496.00,101.00 519.00,100.00 519.00,100.00
             519.00,100.00 548.00,100.00 548.00,100.00
             550.87,99.99 560.69,99.59 563.00,98.83
             567.11,97.49 584.18,85.54 589.00,82.33
             594.97,78.36 603.80,70.99 611.00,71.13
             611.00,71.13 626.00,72.84 626.00,72.84
             626.00,72.84 666.00,77.28 666.00,77.28
             680.73,79.22 695.08,82.17 710.00,82.00
             710.00,82.00 751.00,79.04 751.00,79.04
             751.00,79.04 759.00,79.91 759.00,79.91
             759.00,79.91 797.00,83.09 797.00,83.09
             797.00,83.09 809.00,84.00 809.00,84.00
             809.00,84.00 820.00,84.00 820.00,84.00
             820.00,84.00 835.00,85.00 835.00,85.00
             835.00,85.00 850.00,85.00 850.00,85.00
             850.00,85.00 868.00,86.00 868.00,86.00
             868.00,86.00 908.00,91.58 908.00,91.58
             908.00,91.58 935.00,95.90 935.00,95.90
             935.00,95.90 989.00,110.35 989.00,110.35
             989.00,110.35 1023.00,116.08 1023.00,116.08
             1023.00,116.08 1052.00,120.74 1052.00,120.74
             1055.66,120.83 1076.12,115.09 1081.00,113.71
             1081.00,113.71 1111.00,105.38 1111.00,105.38
             1111.00,105.38 1133.00,104.00 1133.00,104.00
             1133.00,104.00 1156.00,103.00 1156.00,103.00
             1156.00,103.00 1169.00,102.00 1169.00,102.00
             1169.00,102.00 1175.00,102.00 1175.00,102.00
             1184.05,102.04 1186.68,104.14 1195.00,106.58
             1195.00,106.58 1237.00,119.58 1237.00,119.58
             1237.00,119.58 1287.00,130.74 1287.00,130.74
             1287.00,130.74 1309.00,138.31 1309.00,138.31
             1309.00,138.31 1330.00,145.45 1330.00,145.45
             1330.00,145.45 1366.00,162.52 1366.00,162.52
             1371.49,165.39 1376.32,170.53 1381.00,174.58
             1381.00,174.58 1413.00,202.01 1413.00,202.01
             1413.00,202.01 1426.00,207.80 1426.00,207.80
             1426.00,207.80 1475.00,228.31 1475.00,228.31
             1475.00,228.31 1503.00,241.58 1503.00,241.58
             1503.00,241.58 1520.94,250.35 1520.94,250.35
             1523.17,251.81 1525.34,253.91 1524.34,256.86
             1523.12,260.48 1518.86,259.98 1516.00,259.05
             1516.00,259.05 1496.00,249.78 1496.00,249.78
             1496.00,249.78 1442.00,225.80 1442.00,225.80
             1442.00,225.80 1407.00,210.62 1407.00,210.62
             1407.00,210.62 1362.00,172.35 1362.00,172.35
             1362.00,172.35 1344.00,163.74 1344.00,163.74
             1324.38,154.25 1325.70,155.32 1306.00,148.31
             1306.00,148.31 1283.00,140.43 1283.00,140.43
             1283.00,140.43 1236.00,129.99 1236.00,129.99
             1236.00,129.99 1192.00,116.58 1192.00,116.58
             1181.76,113.58 1181.26,111.88 1170.00,112.00
             1170.00,112.00 1160.00,113.00 1160.00,113.00
             1160.00,113.00 1149.00,113.00 1149.00,113.00
             1149.00,113.00 1137.00,114.00 1137.00,114.00
             1133.53,114.01 1119.52,114.72 1117.04,116.02
             1114.14,117.55 1111.76,121.35 1109.86,124.00
             1109.86,124.00 1098.14,141.00 1098.14,141.00
             1095.06,145.32 1087.21,160.37 1080.93,158.34
             1076.28,156.72 1078.95,150.87 1080.93,148.00
             1080.93,148.00 1100.00,119.00 1100.00,119.00
             1100.00,119.00 1070.00,127.37 1070.00,127.37
             1070.00,127.37 1054.00,130.96 1054.00,130.96
             1054.00,130.96 1021.00,126.25 1021.00,126.25
             1021.00,126.25 985.00,120.11 985.00,120.11
             985.00,120.11 934.00,106.42 934.00,106.42
             934.00,106.42 871.00,96.04 871.00,96.04
             871.00,96.04 861.00,96.04 861.00,96.04
             861.00,96.04 838.00,95.00 838.00,95.00
             838.00,95.00 823.00,94.00 823.00,94.00
             823.00,94.00 803.00,94.00 803.00,94.00
             803.00,94.00 807.27,125.00 807.27,125.00
             807.81,128.65 809.57,135.72 808.40,139.00
             807.06,142.76 798.20,150.80 795.00,154.00
             781.32,167.65 778.31,167.27 767.05,185.00
             767.05,185.00 750.00,210.99 750.00,210.99
             748.17,213.63 745.02,218.38 741.14,217.27
             737.03,216.10 738.17,210.79 739.56,208.00
             739.56,208.00 756.00,183.00 756.00,183.00
             768.33,164.50 766.13,167.87 782.00,152.00
             785.45,148.55 796.00,138.91 797.40,135.00
             798.62,131.58 795.63,116.57 795.00,112.00
             794.55,108.74 793.28,97.50 791.83,95.30
             789.20,91.32 773.96,91.27 769.00,90.91
             769.00,90.91 748.00,89.09 748.00,89.09
             748.00,89.09 701.00,92.68 701.00,92.68
             701.00,92.68 677.00,89.27 677.00,89.27
             677.00,89.27 633.00,83.83 633.00,83.83
             628.32,83.36 612.44,80.96 609.00,82.17
             606.53,83.04 597.76,89.16 595.00,91.00
             595.00,91.00 568.00,110.20 568.00,110.20
             568.00,110.20 524.00,145.25 524.00,145.25
             524.00,145.25 503.00,158.42 503.00,158.42
             503.00,158.42 473.00,176.49 473.00,176.49
             470.46,177.22 463.00,177.03 460.00,177.00
             460.00,177.00 447.00,176.00 447.00,176.00
             447.00,176.00 423.00,176.00 423.00,176.00
             423.00,176.00 409.00,175.00 409.00,175.00
             406.19,174.97 401.86,174.57 399.70,176.60
             397.49,178.66 394.74,187.78 393.67,191.00
             393.67,191.00 383.00,221.00 383.00,221.00
             378.73,233.04 352.20,259.16 346.43,270.00
             344.19,274.21 345.27,279.38 344.83,284.00
             344.83,284.00 344.00,301.00 344.00,301.00
             344.00,301.00 343.00,322.00 343.00,322.00
             343.00,322.00 352.60,375.00 352.60,375.00
             353.32,378.61 356.38,392.02 348.10,389.34
             343.52,387.86 342.65,377.25 341.80,373.00
             339.42,361.09 333.02,332.57 333.00,322.00
             333.00,322.00 334.00,293.00 334.00,293.00
             334.00,293.00 335.00,279.00 335.00,279.00
             335.03,275.78 334.67,269.82 335.74,267.00
             336.87,263.98 343.78,256.02 346.20,253.00
             346.20,253.00 370.75,222.00 370.75,222.00
             370.75,222.00 389.00,174.00 389.00,174.00
             389.00,174.00 332.00,162.20 332.00,162.20
             327.57,161.30 315.06,160.16 315.54,154.04
             315.99,148.20 325.40,150.30 329.00,151.00
             329.00,151.00 374.00,160.20 374.00,160.20
             403.04,166.01 413.80,165.95 443.00,166.00
             443.00,166.00 458.00,166.75 458.00,166.75
             460.78,167.03 466.53,167.18 469.00,166.75
             472.81,165.46 488.57,155.11 493.00,152.32
             493.00,152.32 517.00,137.25 517.00,137.25
             517.00,137.25 551.00,110.00 551.00,110.00
             551.00,110.00 519.00,110.00 519.00,110.00 Z" />
</svg>
