<?xml version="1.0" encoding="UTF-8" standalone="no"?>
<!DOCTYPE svg PUBLIC "-//W3C//DTD SVG 20010904//EN"
              "http://www.w3.org/TR/2001/REC-SVG-20010904/DTD/svg10.dtd">

<svg xmlns="http://www.w3.org/2000/svg"
     width="17.4933in" height="8.92in"
     viewBox="0 0 2624 1338">
  <path id="ic"
        fill="none" stroke="black" stroke-width="1"
        d="M 1753.09,574.00
           C 1753.09,574.00 1755.84,551.00 1755.84,551.00
             1755.84,551.00 1757.00,531.00 1757.00,531.00
             1757.00,531.00 1758.00,516.00 1758.00,516.00
             1758.00,516.00 1758.00,508.00 1758.00,508.00
             1758.04,498.65 1763.67,476.46 1765.80,466.00
             1765.80,466.00 1768.82,451.00 1768.82,451.00
             1768.82,451.00 1767.17,428.00 1767.17,428.00
             1767.17,428.00 1765.28,399.00 1765.28,399.00
             1764.87,395.46 1764.43,389.26 1769.09,388.37
             1770.25,388.15 1771.59,388.37 1772.57,389.03
             1775.70,391.12 1775.97,402.30 1776.00,406.00
             1776.00,406.00 1776.91,417.00 1776.91,417.00
             1776.91,417.00 1778.09,440.00 1778.09,440.00
             1778.48,445.69 1779.59,448.80 1778.70,455.00
             1776.45,470.76 1768.07,495.03 1768.00,510.00
             1768.00,510.00 1767.00,538.00 1767.00,538.00
             1767.00,538.00 1763.32,577.00 1763.32,577.00
             1763.32,577.00 1765.58,591.00 1765.58,591.00
             1765.58,591.00 1776.00,663.00 1776.00,663.00
             1776.00,663.00 1821.00,644.60 1821.00,644.60
             1821.00,644.60 1848.00,626.02 1848.00,626.02
             1852.47,622.93 1865.79,614.07 1868.82,610.91
             1868.82,610.91 1892.67,576.00 1892.67,576.00
             1894.99,572.51 1899.80,563.75 1904.00,563.08
             1907.68,562.49 1909.62,565.72 1908.96,569.00
             1908.31,572.26 1902.13,580.80 1900.00,584.00
             1900.00,584.00 1876.82,617.91 1876.82,617.91
             1876.82,617.91 1857.00,633.00 1857.00,633.00
             1859.97,635.45 1864.78,640.11 1865.51,644.00
             1866.22,647.77 1863.50,650.35 1860.00,649.34
             1854.58,647.78 1851.65,639.32 1847.71,639.71
             1844.78,640.00 1832.22,650.20 1829.00,652.37
             1829.00,652.37 1792.00,668.00 1792.00,668.00
             1788.50,669.40 1778.90,672.53 1777.02,675.39
             1775.68,677.43 1775.16,684.34 1774.85,687.00
             1774.85,687.00 1771.86,711.00 1771.86,711.00
             1771.86,711.00 1762.12,744.00 1762.12,744.00
             1761.14,747.20 1759.01,752.89 1758.81,756.00
             1758.62,759.00 1761.52,770.32 1762.35,774.00
             1764.82,784.90 1766.43,798.43 1772.01,808.00
             1772.01,808.00 1792.30,842.00 1792.30,842.00
             1793.21,844.78 1793.01,849.01 1793.00,852.00
             1793.00,852.00 1791.91,866.00 1791.91,866.00
             1791.91,866.00 1791.91,882.00 1791.91,882.00
             1791.41,884.62 1790.45,888.31 1791.91,890.69
             1793.94,893.59 1801.69,893.76 1805.00,894.15
             1805.00,894.15 1835.00,897.87 1835.00,897.87
             1838.22,898.32 1844.25,898.78 1846.38,901.43
             1848.86,904.50 1847.12,909.73 1838.00,908.58
             1838.00,908.58 1789.00,902.00 1789.00,902.00
             1789.00,902.00 1775.58,932.00 1775.58,932.00
             1774.11,935.37 1770.42,942.77 1769.92,946.00
             1769.36,949.52 1771.02,959.03 1771.58,963.00
             1771.58,963.00 1775.42,990.00 1775.42,990.00
             1776.47,994.67 1781.27,1011.59 1784.42,1014.28
             1787.31,1016.75 1792.73,1016.59 1795.85,1018.85
             1798.14,1020.50 1799.38,1023.12 1797.38,1025.78
             1794.43,1029.18 1788.68,1027.06 1785.00,1025.78
             1782.23,1025.21 1778.44,1024.40 1776.27,1022.49
             1773.73,1020.25 1772.72,1016.15 1771.67,1013.00
             1771.67,1013.00 1766.04,996.00 1766.04,996.00
             1766.04,996.00 1760.85,960.00 1760.85,960.00
             1760.33,955.66 1758.64,947.95 1759.38,944.00
             1760.08,940.28 1763.00,934.63 1764.58,931.00
             1764.58,931.00 1777.00,904.00 1777.00,904.00
             1777.00,904.00 1745.00,912.68 1745.00,912.68
             1745.00,912.68 1718.00,914.00 1718.00,914.00
             1718.00,914.00 1704.00,915.00 1704.00,915.00
             1704.00,915.00 1674.00,917.84 1674.00,917.84
             1674.00,917.84 1637.00,921.00 1637.00,921.00
             1637.00,921.00 1620.00,922.13 1620.00,922.13
             1615.42,922.02 1605.72,923.88 1602.15,922.13
             1598.62,920.67 1598.31,916.18 1601.31,914.17
             1603.15,912.95 1607.65,912.89 1610.00,912.58
             1610.00,912.58 1638.00,911.00 1638.00,911.00
             1638.00,911.00 1648.00,910.09 1648.00,910.09
             1648.00,910.09 1702.00,905.00 1702.00,905.00
             1702.00,905.00 1716.00,904.00 1716.00,904.00
             1727.15,903.95 1738.19,903.73 1749.00,900.88
             1749.00,900.88 1771.00,894.85 1771.00,894.85
             1773.73,894.11 1778.38,893.17 1779.98,890.70
             1781.54,888.29 1782.00,878.18 1782.04,875.00
             1782.04,875.00 1782.04,861.00 1782.04,861.00
             1782.37,856.81 1783.20,854.72 1782.96,850.00
             1782.65,844.11 1779.36,839.92 1776.40,835.00
             1776.40,835.00 1761.05,810.00 1761.05,810.00
             1757.78,803.94 1755.19,789.31 1753.58,782.00
             1753.58,782.00 1748.21,757.00 1748.21,757.00
             1747.96,752.64 1750.32,747.28 1751.58,743.00
             1751.58,743.00 1761.50,710.00 1761.50,710.00
             1761.50,710.00 1766.66,669.00 1766.66,669.00
             1766.66,669.00 1764.27,651.00 1764.27,651.00
             1764.27,651.00 1760.86,628.00 1760.86,628.00
             1759.29,621.71 1753.60,618.04 1749.00,613.95
             1749.00,613.95 1720.00,588.73 1720.00,588.73
             1716.48,585.71 1705.92,578.33 1707.66,573.15
             1709.98,566.18 1718.34,573.53 1721.00,575.85
             1721.00,575.85 1758.00,608.00 1758.00,608.00
             1756.77,603.02 1752.85,578.36 1753.09,574.00 Z" />
</svg>
