<?xml version="1.0" encoding="UTF-8" standalone="no"?>
<!DOCTYPE svg PUBLIC "-//W3C//DTD SVG 20010904//EN"
              "http://www.w3.org/TR/2001/REC-SVG-20010904/DTD/svg10.dtd">

<svg xmlns="http://www.w3.org/2000/svg"
     width="17.4933in" height="8.92in"
     viewBox="0 0 2624 1338">
  <path id="ln"
        fill="none" stroke="black" stroke-width="1"
        d="M 1888.26,635.00
           C 1891.14,629.38 1902.25,609.75 1903.27,605.00
             1903.68,603.11 1903.47,601.86 1903.27,600.00
             1903.27,600.00 1899.35,568.00 1899.35,568.00
             1900.08,563.64 1904.40,557.88 1906.81,554.00
             1906.81,554.00 1926.31,524.00 1926.31,524.00
             1926.31,524.00 1937.95,506.00 1937.95,506.00
             1939.68,503.34 1941.76,499.61 1945.01,498.66
             1951.79,496.66 1952.55,506.72 1953.25,511.00
             1953.25,511.00 1961.35,559.00 1961.35,559.00
             1961.35,559.00 1968.69,573.00 1968.69,573.00
             1968.69,573.00 2003.42,632.00 2003.42,632.00
             2003.42,632.00 2016.42,653.00 2016.42,653.00
             2018.31,656.02 2021.84,660.70 2022.57,664.00
             2023.37,667.60 2021.80,671.52 2020.88,675.00
             2020.88,675.00 2016.13,693.00 2016.13,693.00
             2011.01,713.39 2011.65,717.16 2012.00,738.00
             2012.21,750.17 2025.26,756.44 2031.11,766.00
             2034.70,771.87 2031.00,775.49 2027.00,774.34
             2023.07,773.21 2016.10,764.34 2013.07,761.00
             2001.34,748.07 1999.72,747.04 1987.00,735.85
             1979.33,729.10 1977.50,725.02 1967.00,725.00
             1967.00,725.00 1931.00,726.77 1931.00,726.77
             1927.83,727.04 1922.87,727.79 1920.09,726.77
             1916.60,724.95 1913.14,719.15 1910.85,716.00
             1910.85,716.00 1894.00,693.00 1894.00,693.00
             1894.00,693.00 1895.00,709.00 1895.00,709.00
             1895.06,722.64 1898.67,734.79 1901.58,748.00
             1901.58,748.00 1907.03,772.00 1907.03,772.00
             1907.03,772.00 1913.19,788.00 1913.19,788.00
             1913.19,788.00 1923.73,814.00 1923.73,814.00
             1923.73,814.00 1951.00,849.00 1951.00,849.00
             1954.04,852.81 1961.12,860.42 1961.74,865.00
             1962.26,868.86 1958.90,878.81 1957.71,883.00
             1951.86,903.57 1954.01,901.41 1943.14,921.00
             1943.14,921.00 1935.43,935.00 1935.43,935.00
             1934.04,937.57 1932.55,939.94 1934.52,942.67
             1936.60,945.54 1951.55,954.40 1955.00,954.09
             1957.36,953.88 1964.49,950.01 1967.00,948.75
             1977.69,943.41 1984.78,938.02 1997.00,938.00
             1997.00,938.00 2032.00,938.00 2032.00,938.00
             2035.87,938.01 2046.69,937.97 2044.34,944.86
             2043.28,948.00 2039.72,947.95 2037.00,948.00
             2037.00,948.00 1998.00,948.00 1998.00,948.00
             1988.63,948.13 1974.71,956.89 1966.00,961.25
             1963.06,962.72 1958.17,965.48 1955.00,965.74
             1949.84,966.14 1937.80,957.72 1933.00,954.80
             1931.00,953.58 1928.08,951.32 1925.72,951.38
             1923.60,951.44 1919.07,953.76 1917.00,954.70
             1917.00,954.70 1901.00,961.72 1901.00,961.72
             1888.73,967.01 1878.51,973.38 1867.00,980.00
             1867.00,980.00 1845.00,993.38 1845.00,993.38
             1845.00,993.38 1827.00,1011.00 1827.00,1011.00
             1823.92,1014.08 1814.11,1024.47 1811.00,1025.97
             1806.52,1028.14 1802.68,1025.21 1803.84,1021.00
             1804.61,1018.23 1808.01,1015.03 1810.00,1013.00
             1810.00,1013.00 1824.00,999.00 1824.00,999.00
             1824.00,999.00 1838.00,985.38 1838.00,985.38
             1838.00,985.38 1857.00,973.80 1857.00,973.80
             1857.00,973.80 1885.00,957.37 1885.00,957.37
             1885.00,957.37 1917.90,942.30 1917.90,942.30
             1921.84,939.37 1924.98,932.40 1927.26,928.00
             1927.26,928.00 1941.55,901.00 1941.55,901.00
             1941.55,901.00 1948.88,876.00 1948.88,876.00
             1949.51,873.63 1951.31,868.80 1950.74,866.58
             1950.06,863.92 1942.16,854.71 1940.00,852.00
             1934.31,844.89 1915.79,822.59 1912.88,816.00
             1912.88,816.00 1897.57,777.00 1897.57,777.00
             1897.57,777.00 1890.58,746.00 1890.58,746.00
             1887.30,731.15 1885.18,725.56 1885.00,710.00
             1885.00,710.00 1884.09,700.00 1884.09,700.00
             1884.09,700.00 1883.00,682.00 1883.00,682.00
             1883.00,682.00 1844.00,683.00 1844.00,683.00
             1832.77,683.14 1829.35,688.12 1821.00,694.80
             1821.00,694.80 1796.01,715.09 1796.01,715.09
             1796.01,715.09 1768.27,747.00 1768.27,747.00
             1765.68,750.02 1760.56,757.02 1756.11,756.42
             1748.51,755.41 1754.89,746.68 1757.08,744.00
             1757.08,744.00 1787.28,709.04 1787.28,709.04
             1787.28,709.04 1816.00,685.40 1816.00,685.40
             1819.45,682.64 1827.26,675.81 1831.00,674.56
             1836.76,672.62 1849.58,673.06 1856.00,673.00
             1856.00,673.00 1878.00,672.00 1878.00,672.00
             1878.00,672.00 1863.06,653.00 1863.06,653.00
             1861.41,650.72 1859.30,647.24 1860.61,644.31
             1862.20,640.79 1866.70,642.53 1868.91,644.31
             1868.91,644.31 1884.00,662.00 1884.00,662.00
             1884.00,649.98 1882.57,646.11 1888.26,635.00 Z
           M 1919.31,553.00
           C 1916.75,556.97 1910.24,565.67 1909.70,570.00
             1908.90,576.44 1915.39,600.85 1913.37,608.00
             1913.37,608.00 1894.63,646.00 1894.63,646.00
             1893.62,649.58 1893.93,665.35 1894.00,670.00
             1894.14,677.92 1897.61,680.88 1902.12,687.00
             1902.12,687.00 1915.00,705.00 1915.00,705.00
             1917.06,707.89 1921.20,714.41 1924.09,715.98
             1926.61,717.34 1932.04,717.03 1935.00,717.00
             1935.00,717.00 1945.00,716.09 1945.00,716.09
             1945.00,716.09 1967.00,715.12 1967.00,715.12
             1970.00,714.96 1974.38,714.18 1977.00,715.12
             1977.00,715.12 2002.00,735.00 2002.00,735.00
             2002.00,735.00 2002.00,712.00 2002.00,712.00
             2002.00,712.00 2011.68,669.00 2011.68,669.00
             2012.28,663.28 2007.63,657.68 2004.68,653.00
             2004.68,653.00 1984.20,620.00 1984.20,620.00
             1984.20,620.00 1962.14,582.00 1962.14,582.00
             1962.14,582.00 1950.97,561.00 1950.97,561.00
             1950.97,561.00 1947.73,542.00 1947.73,542.00
             1947.73,542.00 1944.00,516.00 1944.00,516.00
             1944.00,516.00 1919.31,553.00 1919.31,553.00 Z" />
</svg>
