<?xml version="1.0" encoding="UTF-8" standalone="no"?>
<!DOCTYPE svg PUBLIC "-//W3C//DTD SVG 20010904//EN"
              "http://www.w3.org/TR/2001/REC-SVG-20010904/DTD/svg10.dtd">

<svg xmlns="http://www.w3.org/2000/svg"
     width="17.4933in" height="8.92in"
     viewBox="0 0 2624 1338">
  <path id="mp"
        fill="none" stroke="black" stroke-width="1"
        d="M 1473.00,613.12
           C 1470.20,615.28 1465.04,619.86 1462.00,620.96
             1458.90,622.07 1448.69,620.72 1445.00,620.28
             1445.00,620.28 1425.00,618.72 1425.00,618.72
             1425.00,618.72 1409.00,617.48 1409.00,617.48
             1406.33,617.86 1398.93,621.35 1396.00,622.58
             1396.00,622.58 1370.00,633.42 1370.00,633.42
             1366.21,635.04 1357.73,638.85 1354.00,639.40
             1350.84,639.85 1340.67,638.52 1337.00,638.17
             1337.00,638.17 1320.00,636.83 1320.00,636.83
             1320.00,636.83 1300.00,635.00 1300.00,635.00
             1284.31,634.82 1257.65,639.67 1241.00,641.87
             1233.79,642.82 1231.22,642.96 1224.00,643.00
             1224.00,643.00 1213.00,644.00 1213.00,644.00
             1213.00,644.00 1203.00,644.00 1203.00,644.00
             1203.00,644.00 1188.00,645.00 1188.00,645.00
             1188.00,645.00 1126.00,654.25 1126.00,654.25
             1126.00,654.25 1109.00,656.90 1109.00,656.90
             1109.00,656.90 1086.00,653.92 1086.00,653.92
             1086.00,653.92 1062.00,650.24 1062.00,650.24
             1058.84,649.66 1055.29,649.01 1055.29,644.98
             1055.29,640.92 1058.66,640.05 1062.00,640.06
             1062.00,640.06 1084.00,643.13 1084.00,643.13
             1084.00,643.13 1109.00,646.40 1109.00,646.40
             1109.00,646.40 1187.00,635.00 1187.00,635.00
             1187.00,635.00 1207.00,634.00 1207.00,634.00
             1207.00,634.00 1221.00,633.00 1221.00,633.00
             1221.00,633.00 1247.00,630.72 1247.00,630.72
             1247.00,630.72 1294.00,624.37 1294.00,624.37
             1294.00,624.37 1338.00,628.09 1338.00,628.09
             1342.90,628.45 1346.85,629.53 1352.00,628.79
             1352.00,628.79 1407.00,607.21 1407.00,607.21
             1407.00,607.21 1444.00,610.09 1444.00,610.09
             1448.04,610.38 1452.96,611.61 1457.00,610.70
             1460.88,609.83 1465.84,605.50 1469.00,603.00
             1469.00,603.00 1488.00,588.12 1488.00,588.12
             1491.65,585.31 1495.25,581.70 1500.00,581.14
             1504.24,580.63 1514.35,583.07 1519.00,584.00
             1530.91,586.38 1554.00,591.98 1565.00,592.00
             1565.00,592.00 1582.00,592.00 1582.00,592.00
             1582.00,592.00 1602.00,591.00 1602.00,591.00
             1602.00,591.00 1635.00,586.41 1635.00,586.41
             1651.96,583.57 1660.30,583.52 1677.00,577.19
             1677.00,577.19 1699.00,569.19 1699.00,569.19
             1701.52,568.55 1705.26,567.45 1707.69,569.19
             1711.40,571.45 1709.35,578.46 1708.58,582.00
             1708.58,582.00 1703.42,605.00 1703.42,605.00
             1702.80,607.82 1701.10,614.49 1701.30,617.00
             1701.51,619.75 1704.79,627.05 1706.01,630.00
             1706.01,630.00 1719.47,663.00 1719.47,663.00
             1720.04,665.48 1720.04,668.45 1719.99,671.00
             1719.99,671.00 1719.09,680.00 1719.09,680.00
             1719.09,680.00 1717.28,700.00 1717.28,700.00
             1716.81,704.00 1717.33,708.09 1716.21,712.00
             1716.21,712.00 1696.00,754.00 1696.00,754.00
             1696.00,754.00 1714.00,753.00 1714.00,753.00
             1714.00,753.00 1749.00,752.00 1749.00,752.00
             1752.51,752.02 1759.18,752.32 1757.34,757.87
             1755.84,762.41 1748.79,761.99 1745.00,762.00
             1745.00,762.00 1726.00,763.00 1726.00,763.00
             1726.00,763.00 1714.00,763.00 1714.00,763.00
             1714.00,763.00 1701.00,764.00 1701.00,764.00
             1697.34,764.04 1691.27,763.64 1688.00,764.89
             1684.25,766.32 1680.15,770.84 1677.00,773.58
             1677.00,773.58 1652.00,795.60 1652.00,795.60
             1652.00,795.60 1609.33,830.09 1609.33,830.09
             1609.33,830.09 1592.58,856.00 1592.58,856.00
             1592.58,856.00 1577.31,881.00 1577.31,881.00
             1577.31,881.00 1553.74,927.00 1553.74,927.00
             1553.74,927.00 1530.58,960.00 1530.58,960.00
             1528.17,963.33 1522.39,970.26 1521.67,974.00
             1521.03,977.39 1524.71,993.57 1525.60,998.00
             1525.60,998.00 1538.87,1056.00 1538.87,1056.00
             1538.87,1056.00 1543.69,1076.00 1543.69,1076.00
             1543.99,1078.68 1543.76,1082.11 1540.78,1083.21
             1537.92,1084.25 1535.82,1082.29 1534.57,1079.94
             1534.57,1079.94 1529.63,1062.00 1529.63,1062.00
             1525.44,1045.19 1514.24,1000.14 1513.00,985.00
             1513.00,985.00 1489.99,1011.72 1489.99,1011.72
             1489.99,1011.72 1440.00,1055.85 1440.00,1055.85
             1440.00,1055.85 1417.18,1076.01 1417.18,1076.01
             1417.18,1076.01 1395.34,1107.00 1395.34,1107.00
             1393.09,1110.31 1388.71,1118.21 1384.97,1119.15
             1383.74,1119.71 1382.42,1119.64 1381.31,1119.15
             1376.81,1116.20 1380.71,1109.99 1382.67,1107.00
             1382.67,1107.00 1399.98,1082.00 1399.98,1082.00
             1403.47,1076.93 1406.48,1071.51 1411.04,1067.28
             1411.04,1067.28 1467.00,1018.16 1467.00,1018.16
             1467.00,1018.16 1483.96,1002.99 1483.96,1002.99
             1491.96,994.82 1508.33,972.93 1515.43,963.00
             1515.43,963.00 1540.81,928.00 1540.81,928.00
             1540.81,928.00 1561.26,889.00 1561.26,889.00
             1561.26,889.00 1586.58,846.00 1586.58,846.00
             1586.58,846.00 1601.38,823.09 1601.38,823.09
             1601.38,823.09 1628.00,801.35 1628.00,801.35
             1628.00,801.35 1665.00,770.42 1665.00,770.42
             1677.39,759.67 1688.30,751.50 1693.00,735.00
             1693.00,735.00 1659.00,724.43 1659.00,724.43
             1659.00,724.43 1625.00,716.12 1625.00,716.12
             1625.00,716.12 1590.00,708.42 1590.00,708.42
             1590.00,708.42 1559.00,702.75 1559.00,702.75
             1554.92,702.04 1547.23,701.17 1544.21,698.57
             1540.87,695.69 1537.89,687.31 1535.75,683.00
             1533.25,677.97 1526.22,663.75 1525.04,659.00
             1525.04,659.00 1519.70,623.00 1519.70,623.00
             1519.70,623.00 1503.00,591.00 1503.00,591.00
             1496.31,593.85 1479.84,607.83 1473.00,613.12 Z
           M 1667.00,591.40
           C 1667.00,591.40 1637.00,596.27 1637.00,596.27
             1637.00,596.27 1604.00,601.04 1604.00,601.04
             1604.00,601.04 1591.00,601.04 1591.00,601.04
             1591.00,601.04 1579.00,602.00 1579.00,602.00
             1579.00,602.00 1563.00,602.00 1563.00,602.00
             1563.00,602.00 1516.00,594.00 1516.00,594.00
             1516.00,594.00 1529.63,620.00 1529.63,620.00
             1529.63,620.00 1534.68,655.00 1534.68,655.00
             1534.68,655.00 1542.69,674.00 1542.69,674.00
             1542.69,674.00 1550.63,689.44 1550.63,689.44
             1550.63,689.44 1563.00,693.20 1563.00,693.20
             1563.00,693.20 1593.00,698.80 1593.00,698.80
             1593.00,698.80 1641.00,709.63 1641.00,709.63
             1641.00,709.63 1661.00,714.43 1661.00,714.43
             1661.00,714.43 1699.00,726.00 1699.00,726.00
             1699.00,726.00 1706.07,710.00 1706.07,710.00
             1706.07,710.00 1709.22,680.00 1709.22,680.00
             1709.22,680.00 1709.22,665.00 1709.22,665.00
             1709.22,665.00 1691.07,619.00 1691.07,619.00
             1691.07,619.00 1693.00,606.00 1693.00,606.00
             1693.00,606.00 1698.00,581.00 1698.00,581.00
             1698.00,581.00 1667.00,591.40 1667.00,591.40 Z" />
</svg>
