<?xml version="1.0" encoding="UTF-8" standalone="no"?>
<!DOCTYPE svg PUBLIC "-//W3C//DTD SVG 20010904//EN"
              "http://www.w3.org/TR/2001/REC-SVG-20010904/DTD/svg10.dtd">

<svg xmlns="http://www.w3.org/2000/svg"
     width="17.4933in" height="8.92in"
     viewBox="0 0 2624 1338">
  <path id="np"
        fill="none" stroke="black" stroke-width="1"
        d="M 357.96,107.43
           C 352.68,110.15 335.74,113.08 332.58,116.51
             330.88,118.35 330.24,122.52 329.63,125.00
             329.63,125.00 325.13,143.00 325.13,143.00
             323.99,147.56 322.40,163.81 315.14,161.34
             312.06,160.30 311.94,156.70 312.18,154.00
             312.18,154.00 320.13,120.00 320.13,120.00
             321.13,115.99 321.94,110.28 325.22,107.56
             329.68,103.87 348.61,101.30 353.82,96.70
             359.83,91.39 364.44,76.69 372.01,74.69
             376.84,73.42 382.82,78.02 387.00,80.22
             387.00,80.22 419.00,96.75 419.00,96.75
             423.00,98.76 430.59,102.09 432.64,106.10
             432.64,106.10 435.28,122.96 435.28,122.96
             436.69,127.59 447.88,135.74 452.00,139.07
             453.97,140.67 456.29,142.86 459.00,142.79
             461.57,142.73 468.44,138.29 471.00,136.86
             471.00,136.86 497.00,122.49 497.00,122.49
             497.00,122.49 569.00,95.14 569.00,95.14
             569.00,95.14 596.00,79.20 596.00,79.20
             599.64,77.03 605.73,72.90 610.00,73.20
             614.27,73.49 620.42,78.78 624.00,81.28
             640.99,93.17 640.71,91.71 656.00,107.00
             656.00,107.00 688.00,137.92 688.00,137.92
             688.00,137.92 721.67,166.17 721.67,166.17
             721.67,166.17 740.68,196.00 740.68,196.00
             743.00,199.68 745.68,204.76 749.09,207.35
             751.96,209.54 765.72,214.16 770.00,215.66
             770.00,215.66 792.00,223.47 792.00,223.47
             792.00,223.47 823.00,226.00 823.00,226.00
             823.00,226.00 849.00,227.52 849.00,227.52
             849.00,227.52 867.00,234.00 867.00,234.00
             867.00,234.00 888.00,242.20 888.00,242.20
             891.11,243.42 895.72,245.69 899.00,245.44
             901.89,245.22 908.04,242.23 911.00,241.01
             911.00,241.01 936.00,230.60 936.00,230.60
             936.00,230.60 975.00,214.42 975.00,214.42
             975.00,214.42 1014.00,201.31 1014.00,201.31
             1014.00,201.31 1053.00,187.69 1053.00,187.69
             1057.22,186.19 1065.64,184.06 1068.44,180.73
             1070.93,177.76 1073.32,162.87 1074.93,158.00
             1075.89,155.08 1078.02,151.34 1081.78,152.66
             1084.40,153.57 1084.89,156.59 1084.79,159.00
             1084.79,159.00 1081.00,178.00 1081.00,178.00
             1092.10,177.09 1092.28,175.02 1107.00,174.90
             1107.00,174.90 1142.00,174.90 1142.00,174.90
             1142.00,174.90 1152.00,174.90 1152.00,174.90
             1152.00,174.90 1160.00,174.90 1160.00,174.90
             1160.00,174.90 1209.00,174.90 1209.00,174.90
             1209.00,174.90 1219.00,174.04 1219.00,174.04
             1219.00,174.04 1233.00,174.04 1233.00,174.04
             1233.00,174.04 1250.00,173.00 1250.00,173.00
             1250.00,173.00 1328.00,164.96 1328.00,164.96
             1328.00,164.96 1340.00,164.96 1340.00,164.96
             1340.00,164.96 1350.00,163.82 1350.00,163.82
             1350.00,163.82 1367.00,163.82 1367.00,163.82
             1367.00,163.82 1389.00,169.13 1389.00,169.13
             1389.00,169.13 1427.00,178.90 1427.00,178.90
             1433.71,181.22 1436.93,186.67 1441.20,192.00
             1441.20,192.00 1458.20,213.00 1458.20,213.00
             1460.47,215.84 1465.58,222.58 1468.09,224.57
             1471.29,227.12 1477.01,228.28 1481.00,229.42
             1481.00,229.42 1505.00,236.12 1505.00,236.12
             1508.05,236.92 1515.49,238.71 1517.91,240.14
             1521.08,242.00 1527.83,250.64 1529.49,254.00
             1530.74,256.25 1531.48,259.38 1529.49,261.39
             1524.29,266.30 1517.72,254.49 1513.96,251.22
             1509.86,247.65 1504.15,246.55 1499.00,245.15
             1499.00,245.15 1475.00,238.58 1475.00,238.58
             1470.14,237.23 1464.95,236.23 1461.09,232.78
             1461.09,232.78 1435.80,202.00 1435.80,202.00
             1432.84,198.30 1427.92,191.33 1423.99,189.14
             1423.99,189.14 1395.00,181.29 1395.00,181.29
             1395.00,181.29 1366.00,174.09 1366.00,174.09
             1366.00,174.09 1352.00,174.09 1352.00,174.09
             1352.00,174.09 1332.00,175.00 1332.00,175.00
             1332.00,175.00 1261.00,183.00 1261.00,183.00
             1261.00,183.00 1250.00,183.00 1250.00,183.00
             1250.00,183.00 1238.00,183.96 1238.00,183.96
             1238.00,183.96 1222.00,183.96 1222.00,183.96
             1222.00,183.96 1207.00,185.00 1207.00,185.00
             1207.00,185.00 1165.00,185.00 1165.00,185.00
             1165.00,185.00 1155.00,184.33 1155.00,184.33
             1155.00,184.33 1140.00,185.00 1140.00,185.00
             1140.00,185.00 1107.00,185.00 1107.00,185.00
             1086.05,185.03 1068.34,193.82 1049.00,200.33
             1049.00,200.33 1012.00,213.00 1012.00,213.00
             1012.00,213.00 981.00,223.42 981.00,223.42
             981.00,223.42 951.00,235.85 951.00,235.85
             951.00,235.85 917.00,250.01 917.00,250.01
             913.40,251.50 903.21,256.10 900.00,256.58
             895.63,257.25 890.07,254.43 886.00,252.80
             886.00,252.80 859.00,242.20 859.00,242.20
             859.00,242.20 846.00,237.53 846.00,237.53
             846.00,237.53 834.00,236.83 834.00,236.83
             834.00,236.83 819.00,235.91 819.00,235.91
             819.00,235.91 809.00,235.00 809.00,235.00
             804.54,234.95 793.00,234.38 789.00,233.47
             789.00,233.47 759.00,222.81 759.00,222.81
             754.11,220.95 743.95,218.20 740.52,214.73
             740.52,214.73 713.67,173.09 713.67,173.09
             713.67,173.09 697.00,158.92 697.00,158.92
             697.00,158.92 663.00,129.00 663.00,129.00
             649.37,115.37 641.13,105.75 625.00,94.66
             621.91,92.54 613.12,85.73 610.00,85.23
             606.46,84.65 601.03,88.60 598.00,90.40
             598.00,90.40 570.00,106.68 570.00,106.68
             570.00,106.68 501.00,132.32 501.00,132.32
             501.00,132.32 472.00,148.42 472.00,148.42
             468.61,150.34 461.72,154.71 458.00,154.76
             454.28,154.82 451.70,152.45 449.00,150.24
             449.00,150.24 433.00,136.92 433.00,136.92
             430.35,134.69 427.03,132.29 425.74,128.99
             423.76,123.94 425.61,114.61 421.57,110.63
             419.58,108.67 410.15,104.39 407.00,102.69
             407.00,102.69 374.00,85.00 374.00,85.00
             371.45,90.22 362.76,104.97 357.96,107.43 Z" />
</svg>
