<?xml version="1.0" encoding="UTF-8" standalone="no"?>
<!DOCTYPE svg PUBLIC "-//W3C//DTD SVG 20010904//EN"
              "http://www.w3.org/TR/2001/REC-SVG-20010904/DTD/svg10.dtd">

<svg xmlns="http://www.w3.org/2000/svg"
     width="17.4933in" height="8.92in"
     viewBox="0 0 2624 1338">
  <path id="nw"
        fill="none" stroke="black" stroke-width="1"
        d="M 2005.18,481.00
           C 2005.18,481.00 1997.28,457.00 1997.28,457.00
             1996.07,452.99 1991.55,442.97 1996.31,439.85
             1997.39,439.38 1998.71,439.27 1999.90,439.85
             2003.56,440.84 2004.91,446.71 2006.00,450.00
             2008.48,457.50 2012.47,472.82 2016.09,479.00
             2016.09,479.00 2024.58,492.00 2024.58,492.00
             2032.97,505.41 2041.22,518.55 2051.00,531.00
             2053.94,534.74 2063.12,547.26 2066.09,549.44
             2068.72,551.37 2084.76,556.00 2089.00,557.28
             2089.00,557.28 2111.00,563.54 2111.00,563.54
             2111.00,563.54 2134.00,565.09 2134.00,565.09
             2134.00,565.09 2143.00,565.99 2143.00,565.99
             2145.57,566.04 2148.53,566.07 2151.00,565.37
             2151.00,565.37 2195.00,543.53 2195.00,543.53
             2195.00,543.53 2214.00,541.83 2214.00,541.83
             2214.00,541.83 2235.00,540.00 2235.00,540.00
             2235.00,540.00 2280.00,543.72 2280.00,543.72
             2280.00,543.72 2303.00,545.28 2303.00,545.28
             2303.00,545.28 2321.00,546.40 2321.00,546.40
             2325.54,545.36 2329.58,539.83 2334.00,538.58
             2337.74,537.52 2341.60,539.74 2340.34,543.99
             2339.50,546.85 2336.25,549.13 2334.00,550.88
             2323.55,559.01 2324.94,556.91 2313.00,556.09
             2313.00,556.09 2277.00,553.83 2277.00,553.83
             2277.00,553.83 2238.00,550.00 2238.00,550.00
             2238.00,550.00 2214.00,551.92 2214.00,551.92
             2214.00,551.92 2197.00,553.85 2197.00,553.85
             2197.00,553.85 2174.00,565.74 2174.00,565.74
             2174.00,565.74 2124.00,591.78 2124.00,591.78
             2116.43,595.82 2106.67,605.89 2100.00,612.09
             2097.01,614.87 2092.62,620.45 2088.06,619.63
             2086.83,619.41 2085.71,618.79 2085.07,617.69
             2082.41,613.16 2090.25,607.68 2093.00,604.99
             2099.81,598.33 2106.24,591.18 2114.00,585.59
             2114.00,585.59 2133.00,575.00 2133.00,575.00
             2133.00,575.00 2108.00,573.68 2108.00,573.68
             2108.00,573.68 2079.00,565.02 2079.00,565.02
             2073.64,563.36 2063.07,561.13 2059.09,557.72
             2059.09,557.72 2037.12,530.00 2037.12,530.00
             2033.76,525.59 2030.11,520.17 2025.00,517.80
             2025.00,517.80 2011.00,513.34 2011.00,513.34
             1984.72,505.13 1985.20,505.05 1958.00,505.00
             1955.66,505.00 1952.19,505.19 1950.15,503.98
             1946.67,501.91 1944.85,495.08 1957.00,495.00
             1957.00,495.00 1990.00,496.46 1990.00,496.46
             1990.00,496.46 2021.00,505.00 2021.00,505.00
             2017.82,500.88 2007.10,485.23 2005.18,481.00 Z" />
</svg>
