<?xml version="1.0" encoding="UTF-8" standalone="no"?>
<!DOCTYPE svg PUBLIC "-//W3C//DTD SVG 20010904//EN"
              "http://www.w3.org/TR/2001/REC-SVG-20010904/DTD/svg10.dtd">

<svg xmlns="http://www.w3.org/2000/svg"
     width="17.4933in" height="8.92in"
     viewBox="0 0 2624 1338">
  <path id="nyc"
        fill="none" stroke="black" stroke-width="1"
        d="M 1976.00,358.58
           C 1979.58,359.11 1986.76,360.50 1990.00,359.75
             1994.08,358.80 2013.28,346.68 2018.00,343.68
             2028.04,337.31 2036.77,329.26 2046.00,321.80
             2046.00,321.80 2072.57,299.71 2072.57,299.71
             2072.57,299.71 2084.08,286.00 2084.08,286.00
             2084.08,286.00 2093.06,275.00 2093.06,275.00
             2096.83,269.57 2098.07,257.77 2099.25,251.00
             2099.91,247.23 2100.53,242.38 2103.42,239.63
             2106.00,237.17 2113.46,234.42 2117.00,233.00
             2117.00,233.00 2143.00,222.60 2143.00,222.60
             2162.64,214.75 2182.67,208.92 2203.00,203.14
             2203.00,203.14 2230.00,195.32 2230.00,195.32
             2230.00,195.32 2263.00,192.09 2263.00,192.09
             2263.00,192.09 2289.00,190.04 2289.00,190.04
             2292.71,189.64 2297.39,188.17 2300.79,190.04
             2305.21,192.78 2307.16,204.02 2308.58,209.00
             2308.58,209.00 2318.02,243.00 2318.02,243.00
             2318.02,243.00 2323.95,259.00 2323.95,259.00
             2323.95,259.00 2337.58,294.00 2337.58,294.00
             2338.89,297.50 2341.33,303.59 2336.77,305.92
             2333.51,307.59 2330.94,304.54 2329.53,301.98
             2329.53,301.98 2322.00,283.00 2322.00,283.00
             2322.00,283.00 2309.52,251.00 2309.52,251.00
             2309.52,251.00 2295.00,199.00 2295.00,199.00
             2291.07,200.12 2279.68,200.75 2275.00,201.09
             2275.00,201.09 2258.00,202.83 2258.00,202.83
             2258.00,202.83 2234.00,205.14 2234.00,205.14
             2234.00,205.14 2202.00,214.28 2202.00,214.28
             2202.00,214.28 2149.00,231.60 2149.00,231.60
             2149.00,231.60 2124.00,241.60 2124.00,241.60
             2121.44,242.63 2114.08,245.32 2112.31,246.81
             2109.63,249.08 2109.26,253.70 2108.60,257.00
             2107.17,264.13 2106.36,274.08 2102.37,280.00
             2102.37,280.00 2093.58,291.00 2093.58,291.00
             2076.72,311.57 2073.18,313.21 2053.00,329.61
             2053.00,329.61 2026.00,351.14 2026.00,351.14
             2026.00,351.14 2003.00,365.00 2003.00,365.00
             1999.16,367.31 1994.55,370.67 1990.00,370.81
             1990.00,370.81 1960.00,366.61 1960.00,366.61
             1957.01,366.14 1950.93,364.62 1948.51,366.61
             1946.70,368.15 1945.93,371.78 1945.29,374.00
             1945.29,374.00 1941.00,389.00 1941.00,389.00
             1941.00,389.00 1933.47,417.00 1933.47,417.00
             1933.33,420.08 1935.67,430.34 1936.40,434.00
             1936.40,434.00 1943.20,468.00 1943.20,468.00
             1943.20,468.00 1947.56,495.00 1947.56,495.00
             1947.90,498.04 1947.57,502.35 1943.90,503.26
             1937.13,504.92 1936.45,491.15 1935.87,487.00
             1935.87,487.00 1925.00,428.00 1925.00,428.00
             1925.00,428.00 1899.00,453.70 1899.00,453.70
             1887.09,463.91 1858.85,483.27 1845.00,492.05
             1845.00,492.05 1826.00,504.05 1826.00,504.05
             1822.79,506.06 1817.54,509.72 1814.00,510.59
             1808.33,511.97 1799.92,510.07 1794.00,509.95
             1794.00,509.95 1778.00,509.95 1778.00,509.95
             1774.21,509.47 1769.63,508.15 1766.04,509.95
             1762.52,511.86 1753.44,524.20 1750.40,528.00
             1750.40,528.00 1715.83,570.94 1715.83,570.94
             1709.50,577.41 1704.11,574.82 1705.45,569.00
             1706.36,565.03 1715.42,554.72 1718.40,551.00
             1718.40,551.00 1748.20,514.00 1748.20,514.00
             1755.55,504.81 1757.41,498.73 1770.00,499.01
             1770.00,499.01 1779.00,500.09 1779.00,500.09
             1779.00,500.09 1792.00,500.09 1792.00,500.09
             1797.64,500.01 1806.24,501.79 1811.00,500.09
             1814.50,499.30 1828.77,489.81 1833.00,487.19
             1833.00,487.19 1887.00,449.87 1887.00,449.87
             1897.63,441.90 1900.79,438.21 1910.00,429.00
             1913.21,425.79 1919.84,419.62 1921.91,416.00
             1923.51,413.21 1925.68,404.57 1926.71,401.00
             1926.71,401.00 1937.00,366.00 1937.00,366.00
             1937.00,366.00 1896.00,377.68 1896.00,377.68
             1896.00,377.68 1882.00,379.17 1882.00,379.17
             1882.00,379.17 1841.00,383.17 1841.00,383.17
             1841.00,383.17 1812.00,388.40 1812.00,388.40
             1812.00,388.40 1782.00,394.16 1782.00,394.16
             1778.91,394.58 1773.63,394.29 1773.63,389.96
             1773.63,386.58 1777.27,385.01 1780.00,384.25
             1780.00,384.25 1802.00,379.80 1802.00,379.80
             1802.00,379.80 1831.00,374.28 1831.00,374.28
             1831.00,374.28 1860.00,371.17 1860.00,371.17
             1860.00,371.17 1895.00,367.24 1895.00,367.24
             1895.00,367.24 1927.00,357.66 1927.00,357.66
             1930.40,356.60 1937.08,355.24 1939.26,352.58
             1941.05,350.41 1941.44,344.91 1941.92,342.00
             1941.92,342.00 1945.87,317.00 1945.87,317.00
             1946.38,313.45 1947.39,305.39 1952.90,306.74
             1957.85,307.96 1956.48,314.45 1956.00,318.00
             1956.00,318.00 1950.00,355.00 1950.00,355.00
             1950.00,355.00 1976.00,358.58 1976.00,358.58 Z" />
</svg>
