<?xml version="1.0" encoding="UTF-8" standalone="no"?>
<!DOCTYPE svg PUBLIC "-//W3C//DTD SVG 20010904//EN"
              "http://www.w3.org/TR/2001/REC-SVG-20010904/DTD/svg10.dtd">

<svg xmlns="http://www.w3.org/2000/svg"
     width="17.4933in" height="8.92in"
     viewBox="0 0 2624 1338">
  <path id="nynhh"
        fill="none" stroke="black" stroke-width="1"
        d="M 2409.00,190.00
           C 2409.00,190.00 2409.00,219.00 2409.00,219.00
             2409.00,221.37 2409.13,224.78 2408.26,226.96
             2406.80,230.62 2397.32,238.36 2394.00,241.28
             2394.00,241.28 2370.83,262.02 2370.83,262.02
             2366.40,265.43 2356.72,271.20 2353.96,275.09
             2353.96,275.09 2343.75,295.00 2343.75,295.00
             2342.27,297.94 2340.15,302.53 2336.96,303.87
             2333.41,305.36 2330.32,302.39 2330.97,298.00
             2331.44,294.87 2339.34,279.65 2341.31,276.00
             2349.87,260.17 2351.94,263.60 2365.00,253.33
             2365.00,253.33 2383.00,237.28 2383.00,237.28
             2386.25,234.42 2397.09,225.36 2398.40,221.96
             2399.12,220.11 2399.00,217.02 2399.00,215.00
             2399.00,215.00 2399.00,188.00 2399.00,188.00
             2399.02,183.75 2398.47,181.38 2402.22,178.79
             2409.47,178.03 2408.99,184.75 2409.00,190.00 Z" />
</svg>
