<?xml version="1.0" encoding="UTF-8" standalone="no"?>
<!DOCTYPE svg PUBLIC "-//W3C//DTD SVG 20010904//EN"
              "http://www.w3.org/TR/2001/REC-SVG-20010904/DTD/svg10.dtd">

<svg xmlns="http://www.w3.org/2000/svg"
     width="17.4933in" height="8.92in"
     viewBox="0 0 2624 1338">
  <path id="pa"
        fill="none" stroke="black" stroke-width="1"
        d="M 2056.00,366.42
           C 2059.11,365.53 2064.14,364.59 2065.98,361.73
             2067.51,359.35 2067.90,351.12 2068.28,348.00
             2068.28,348.00 2071.72,318.00 2071.72,318.00
             2072.17,314.34 2072.39,307.25 2074.17,304.18
             2075.63,301.68 2079.60,299.14 2082.00,297.42
             2086.76,294.01 2103.86,283.00 2105.98,278.96
             2107.19,276.65 2106.99,273.56 2107.00,271.00
             2107.00,271.00 2106.36,248.00 2106.36,248.00
             2106.93,244.90 2109.18,241.40 2112.86,242.66
             2116.55,243.91 2115.96,248.92 2116.00,252.00
             2116.00,252.00 2116.95,262.00 2116.95,262.00
             2116.95,262.00 2116.95,279.00 2116.95,279.00
             2116.85,287.16 2113.22,288.13 2107.00,292.58
             2107.00,292.58 2084.43,309.18 2084.43,309.18
             2081.73,312.45 2081.48,320.58 2081.07,325.00
             2081.07,325.00 2077.84,355.00 2077.84,355.00
             2077.53,357.86 2076.26,366.58 2076.88,368.96
             2077.87,372.74 2083.87,375.87 2087.00,378.02
             2090.54,380.47 2098.23,386.49 2102.00,387.48
             2104.92,388.25 2116.62,386.50 2120.00,385.79
             2120.00,385.79 2158.00,376.00 2158.00,376.00
             2158.00,376.00 2185.00,366.53 2185.00,366.53
             2193.05,364.69 2204.63,365.04 2213.00,365.00
             2213.00,365.00 2229.00,364.00 2229.00,364.00
             2247.25,363.97 2261.17,361.40 2279.00,358.41
             2279.00,358.41 2303.90,354.11 2303.90,354.11
             2307.99,352.33 2310.34,345.87 2312.24,342.00
             2312.24,342.00 2325.81,308.00 2325.81,308.00
             2327.08,304.63 2330.80,292.65 2336.48,297.62
             2339.11,299.92 2338.13,304.13 2337.25,307.00
             2337.25,307.00 2329.05,330.00 2329.05,330.00
             2329.05,330.00 2315.07,360.00 2315.07,360.00
             2315.07,360.00 2301.05,381.00 2301.05,381.00
             2301.05,381.00 2282.96,408.81 2282.96,408.81
             2277.94,414.90 2272.18,413.67 2268.85,418.22
             2266.61,421.30 2262.21,440.80 2260.56,446.00
             2259.55,449.18 2257.36,453.77 2253.14,452.34
             2249.00,450.94 2250.14,445.18 2250.90,442.00
             2250.90,442.00 2258.47,413.00 2258.47,413.00
             2258.50,409.62 2255.78,405.06 2254.25,402.00
             2254.25,402.00 2244.75,383.00 2244.75,383.00
             2243.59,380.67 2241.78,376.41 2239.61,375.02
             2237.98,373.98 2235.86,374.04 2234.00,374.00
             2234.00,374.00 2212.00,375.00 2212.00,375.00
             2203.87,375.01 2195.97,374.52 2188.00,376.51
             2188.00,376.51 2158.00,386.98 2158.00,386.98
             2158.00,386.98 2118.00,396.70 2118.00,396.70
             2118.00,396.70 2110.00,397.29 2110.00,397.29
             2104.37,397.98 2102.22,398.92 2096.00,399.00
             2090.85,399.06 2079.32,398.50 2075.00,399.80
             2070.42,401.18 2063.31,406.53 2059.00,409.31
             2059.00,409.31 2031.00,426.58 2031.00,426.58
             2031.00,426.58 1998.00,446.49 1998.00,446.49
             1998.00,446.49 1953.00,468.00 1953.00,468.00
             1954.03,471.63 1956.14,489.28 1955.95,493.00
             1955.79,496.30 1954.45,500.78 1950.09,499.34
             1946.79,498.26 1946.34,494.93 1945.95,492.00
             1945.95,492.00 1944.00,471.00 1944.00,471.00
             1944.00,471.00 1894.00,481.42 1894.00,481.42
             1894.00,481.42 1870.00,486.00 1870.00,486.00
             1871.92,492.07 1879.68,504.76 1883.14,511.00
             1883.14,511.00 1901.25,546.00 1901.25,546.00
             1903.60,550.70 1911.88,564.11 1909.59,568.85
             1907.95,572.25 1904.73,571.86 1902.21,569.68
             1899.52,567.35 1896.46,560.41 1894.75,557.00
             1894.75,557.00 1877.69,523.00 1877.69,523.00
             1877.69,523.00 1862.00,494.00 1862.00,494.00
             1862.00,494.00 1816.00,514.32 1816.00,514.32
             1816.00,514.32 1790.00,529.58 1790.00,529.58
             1790.00,529.58 1742.00,557.42 1742.00,557.42
             1742.00,557.42 1713.00,574.16 1713.00,574.16
             1706.62,576.97 1703.53,572.69 1704.66,569.09
             1705.70,565.74 1711.10,563.24 1714.00,561.58
             1714.00,561.58 1741.00,545.80 1741.00,545.80
             1741.00,545.80 1776.00,525.55 1776.00,525.55
             1796.51,513.39 1807.63,506.12 1830.00,496.58
             1836.67,493.73 1852.04,486.12 1858.00,485.00
             1853.95,479.82 1848.17,476.33 1843.00,472.35
             1843.00,472.35 1814.09,450.12 1814.09,450.12
             1808.39,445.32 1794.33,426.07 1788.79,419.00
             1785.91,415.33 1774.50,401.11 1773.14,398.00
             1770.84,392.75 1774.22,389.54 1777.99,390.66
             1781.10,391.57 1783.73,395.53 1785.65,398.00
             1785.65,398.00 1800.42,417.00 1800.42,417.00
             1805.75,423.84 1814.19,435.35 1820.00,440.96
             1820.00,440.96 1847.00,462.13 1847.00,462.13
             1851.00,465.16 1862.90,475.36 1867.00,476.15
             1869.70,476.67 1876.04,474.84 1879.00,474.21
             1879.00,474.21 1905.00,468.65 1905.00,468.65
             1905.00,468.65 1944.00,460.23 1944.00,460.23
             1944.00,460.23 1972.00,447.25 1972.00,447.25
             1976.72,444.89 1989.45,439.81 1992.37,436.61
             1995.17,433.54 2000.31,421.36 2002.31,417.00
             2002.31,417.00 2013.26,394.00 2013.26,394.00
             2016.51,387.27 2018.89,384.75 2019.00,377.00
             2019.00,377.00 2019.54,355.00 2019.54,355.00
             2019.86,351.09 2018.72,337.25 2025.88,339.66
             2028.85,340.65 2029.75,344.23 2029.87,347.00
             2029.87,347.00 2029.16,354.00 2029.16,354.00
             2029.16,354.00 2029.16,360.00 2029.16,360.00
             2029.16,360.00 2029.16,370.00 2029.16,370.00
             2029.16,370.00 2029.16,374.00 2029.16,374.00
             2029.16,374.00 2056.00,366.42 2056.00,366.42 Z
           M 2251.00,373.00
           C 2251.00,373.00 2267.00,406.00 2267.00,406.00
             2267.00,406.00 2273.82,403.19 2273.82,403.19
             2273.82,403.19 2288.05,383.00 2288.05,383.00
             2288.05,383.00 2298.00,366.00 2298.00,366.00
             2298.00,366.00 2251.00,373.00 2251.00,373.00 Z
           M 2065.00,375.79
           C 2061.29,374.82 2051.93,378.11 2048.00,379.34
             2044.21,380.52 2031.83,383.67 2029.41,385.72
             2027.42,387.42 2024.16,395.19 2022.75,398.00
             2022.75,398.00 2009.00,427.00 2009.00,427.00
             2009.00,427.00 2031.00,414.69 2031.00,414.69
             2031.00,414.69 2052.00,401.95 2052.00,401.95
             2052.00,401.95 2067.96,391.52 2067.96,391.52
             2067.96,391.52 2084.00,388.00 2084.00,388.00
             2080.30,385.53 2068.16,376.61 2065.00,375.79 Z" />
</svg>
