<?xml version="1.0" encoding="UTF-8" standalone="no"?>
<!DOCTYPE svg PUBLIC "-//W3C//DTD SVG 20010904//EN"
              "http://www.w3.org/TR/2001/REC-SVG-20010904/DTD/svg10.dtd">

<svg xmlns="http://www.w3.org/2000/svg"
     width="17.4933in" height="8.92in"
     viewBox="0 0 2624 1338">
  <path id="sal"
        fill="none" stroke="black" stroke-width="1"
        d="M 2212.00,681.58
           C 2214.85,680.50 2221.52,678.38 2223.42,676.35
             2225.49,674.15 2225.73,669.89 2226.13,667.00
             2226.73,662.68 2228.17,650.30 2229.65,647.00
             2229.65,647.00 2254.43,616.00 2254.43,616.00
             2256.18,612.30 2256.69,599.82 2257.17,595.00
             2258.71,579.53 2258.76,582.32 2262.86,568.00
             2264.05,563.83 2268.06,551.42 2268.07,548.00
             2268.07,548.00 2261.18,517.00 2261.18,517.00
             2260.86,513.44 2261.96,508.06 2266.90,509.66
             2270.52,510.83 2271.32,515.80 2272.13,519.00
             2272.13,519.00 2278.67,547.00 2278.67,547.00
             2279.08,551.74 2277.06,556.52 2275.72,561.00
             2275.72,561.00 2268.46,587.00 2268.46,587.00
             2266.92,595.15 2266.31,616.66 2263.35,622.00
             2258.04,631.57 2240.45,645.20 2238.32,655.00
             2237.40,659.27 2234.36,674.48 2236.64,677.67
             2239.79,682.11 2256.48,688.52 2259.69,694.18
             2261.00,696.49 2262.57,705.84 2263.20,709.00
             2263.20,709.00 2268.82,737.00 2268.82,737.00
             2269.14,741.24 2267.47,746.70 2266.60,751.00
             2266.60,751.00 2260.80,779.00 2260.80,779.00
             2260.04,782.80 2259.07,790.84 2256.49,793.50
             2256.49,793.50 2234.17,804.07 2234.17,804.07
             2230.61,806.46 2227.09,812.36 2224.67,816.00
             2224.67,816.00 2210.22,838.00 2210.22,838.00
             2208.72,841.69 2208.23,853.50 2207.91,858.00
             2207.39,865.42 2205.44,874.73 2206.17,882.00
             2206.17,882.00 2212.68,918.00 2212.68,918.00
             2212.68,918.00 2206.59,958.00 2206.59,958.00
             2206.59,958.00 2212.41,995.00 2212.41,995.00
             2212.91,997.99 2213.57,1003.47 2214.98,1005.96
             2217.21,1009.88 2232.55,1021.20 2237.00,1024.65
             2241.78,1028.35 2251.42,1036.57 2256.00,1039.10
             2256.00,1039.10 2273.00,1045.81 2273.00,1045.81
             2273.00,1045.81 2306.00,1057.58 2306.00,1057.58
             2306.00,1057.58 2336.00,1066.34 2336.00,1066.34
             2339.12,1067.31 2346.57,1069.17 2348.85,1070.84
             2352.49,1073.50 2352.64,1078.87 2353.00,1083.00
             2353.00,1083.00 2356.07,1110.00 2356.07,1110.00
             2356.43,1113.84 2358.21,1119.54 2354.69,1122.39
             2348.98,1126.99 2346.99,1118.85 2346.43,1115.00
             2346.43,1115.00 2343.42,1089.00 2343.42,1089.00
             2342.91,1085.17 2343.37,1081.37 2339.85,1078.85
             2337.64,1077.26 2329.11,1075.21 2326.00,1074.28
             2326.00,1074.28 2293.00,1064.49 2293.00,1064.49
             2293.00,1064.49 2251.00,1048.59 2251.00,1048.59
             2251.00,1048.59 2217.00,1022.00 2217.00,1022.00
             2217.00,1022.00 2219.72,1044.00 2219.72,1044.00
             2219.68,1047.11 2217.84,1051.17 2214.04,1050.26
             2210.83,1049.48 2209.96,1045.78 2209.44,1043.00
             2209.44,1043.00 2206.27,1021.00 2206.27,1021.00
             2206.27,1021.00 2198.92,977.00 2198.92,977.00
             2198.14,972.27 2195.88,961.15 2196.18,957.00
             2196.18,957.00 2200.00,930.00 2200.00,930.00
             2200.00,930.00 2162.00,942.41 2162.00,942.41
             2162.00,942.41 2138.00,946.42 2138.00,946.42
             2129.15,947.80 2118.81,949.99 2110.00,950.00
             2110.00,950.00 2048.00,950.00 2048.00,950.00
             2045.66,950.00 2042.19,950.19 2040.15,948.98
             2036.79,946.98 2036.77,943.18 2040.15,941.17
             2042.46,939.79 2046.35,940.00 2049.00,940.00
             2049.00,940.00 2063.00,940.00 2063.00,940.00
             2061.87,935.37 2062.21,930.36 2060.36,926.00
             2060.36,926.00 2038.42,894.00 2038.42,894.00
             2035.28,889.56 2029.88,879.93 2024.96,878.03
             2024.96,878.03 2003.00,875.91 2003.00,875.91
             2003.00,875.91 1971.00,873.01 1971.00,873.01
             1966.88,872.89 1954.86,873.00 1954.86,867.00
             1954.86,859.76 1967.74,862.86 1972.00,863.01
             1972.00,863.01 2005.00,865.91 2005.00,865.91
             2005.00,865.91 2030.00,868.30 2030.00,868.30
             2035.57,869.85 2042.14,881.15 2045.58,886.00
             2045.58,886.00 2061.72,909.00 2061.72,909.00
             2063.96,912.20 2069.04,918.72 2070.29,922.00
             2071.51,925.22 2072.45,935.85 2073.00,940.00
             2073.00,940.00 2107.00,940.00 2107.00,940.00
             2115.08,939.99 2149.54,934.75 2158.00,932.76
             2158.00,932.76 2202.00,919.00 2202.00,919.00
             2202.00,919.00 2196.00,880.00 2196.00,880.00
             2196.00,880.00 2197.91,856.00 2197.91,856.00
             2198.22,851.73 2198.99,837.03 2200.22,834.00
             2200.22,834.00 2218.14,807.00 2218.14,807.00
             2220.63,803.50 2223.74,798.31 2227.09,795.85
             2232.48,791.89 2244.92,789.27 2248.27,784.79
             2250.08,782.36 2250.79,777.07 2251.40,774.00
             2251.40,774.00 2256.20,751.00 2256.20,751.00
             2259.93,732.61 2257.57,732.86 2254.00,715.00
             2253.29,711.43 2252.02,702.88 2250.15,700.21
             2248.28,697.55 2242.91,694.75 2240.00,693.00
             2236.26,690.75 2231.51,686.72 2227.00,687.45
             2227.00,687.45 2204.00,695.81 2204.00,695.81
             2204.00,695.81 2187.00,702.37 2187.00,702.37
             2187.00,702.37 2164.00,716.95 2164.00,716.95
             2164.00,716.95 2106.00,751.73 2106.00,751.73
             2106.00,751.73 2059.00,771.05 2059.00,771.05
             2059.00,771.05 2034.00,779.69 2034.00,779.69
             2034.00,779.69 2018.00,781.17 2018.00,781.17
             2018.00,781.17 1979.00,785.06 1979.00,785.06
             1979.00,785.06 1971.00,785.06 1971.00,785.06
             1962.76,786.38 1958.49,790.57 1952.00,795.37
             1952.00,795.37 1932.00,809.71 1932.00,809.71
             1928.80,812.00 1921.62,818.61 1917.60,815.11
             1912.65,810.79 1921.04,804.84 1924.00,802.71
             1924.00,802.71 1948.00,785.42 1948.00,785.42
             1951.72,782.76 1957.84,777.95 1962.00,776.64
             1966.46,775.25 1972.39,775.28 1977.00,774.83
             1977.00,774.83 2017.00,771.17 2017.00,771.17
             2024.86,770.42 2027.86,770.97 2036.00,768.33
             2050.48,763.63 2093.63,746.66 2106.00,739.72
             2106.00,739.72 2151.00,712.95 2151.00,712.95
             2151.00,712.95 2178.00,696.00 2178.00,696.00
             2178.00,696.00 2166.82,677.00 2166.82,677.00
             2165.91,674.32 2165.94,670.74 2169.14,669.66
             2172.13,668.64 2174.31,670.95 2175.96,673.06
             2178.81,676.70 2184.93,686.76 2187.00,691.00
             2187.00,691.00 2212.00,681.58 2212.00,681.58 Z" />
</svg>
