<?xml version="1.0" encoding="UTF-8" standalone="no"?>
<!DOCTYPE svg PUBLIC "-//W3C//DTD SVG 20010904//EN"
              "http://www.w3.org/TR/2001/REC-SVG-20010904/DTD/svg10.dtd">

<svg xmlns="http://www.w3.org/2000/svg"
     width="17.4933in" height="8.92in"
     viewBox="0 0 2624 1338">
  <path id="slsf"
        fill="none" stroke="black" stroke-width="1"
        d="M 1539.00,665.42
           C 1536.00,664.99 1529.52,664.39 1527.10,662.99
             1524.49,661.48 1522.16,657.52 1520.41,655.00
             1520.41,655.00 1507.67,636.00 1507.67,636.00
             1505.70,633.06 1501.16,626.99 1500.12,624.00
             1500.12,624.00 1500.12,598.00 1500.12,598.00
             1500.05,594.22 1500.55,584.51 1506.86,586.66
             1510.52,587.90 1509.99,592.93 1510.00,596.00
             1510.00,596.00 1510.51,620.00 1510.51,620.00
             1511.57,623.68 1520.34,636.01 1523.00,640.00
             1525.59,643.88 1530.10,651.75 1534.04,653.83
             1536.23,654.98 1540.40,655.20 1543.00,655.58
             1543.00,655.58 1563.00,658.15 1563.00,658.15
             1567.02,658.64 1581.01,661.18 1584.00,660.32
             1587.53,659.30 1594.06,652.79 1597.00,650.16
             1601.84,645.84 1620.85,628.71 1625.00,626.53
             1625.00,626.53 1664.00,609.93 1664.00,609.93
             1668.84,607.04 1686.97,588.12 1691.42,583.00
             1693.80,580.27 1703.35,569.32 1706.38,577.15
             1707.71,580.57 1705.08,583.66 1702.94,586.00
             1702.94,586.00 1686.01,603.00 1686.01,603.00
             1681.27,607.86 1675.64,615.57 1670.00,618.93
             1670.00,618.93 1629.00,636.53 1629.00,636.53
             1624.22,639.30 1604.73,657.28 1600.00,662.04
             1600.00,662.04 1611.00,662.04 1611.00,662.04
             1611.00,662.04 1620.00,662.99 1620.00,662.99
             1624.06,663.09 1634.57,663.64 1638.00,665.08
             1638.00,665.08 1676.00,691.60 1676.00,691.60
             1676.00,691.60 1713.00,707.70 1713.00,707.70
             1713.00,707.70 1759.00,748.47 1759.00,748.47
             1759.00,748.47 1783.00,763.20 1783.00,763.20
             1783.00,763.20 1816.00,782.65 1816.00,782.65
             1816.00,782.65 1842.00,791.33 1842.00,791.33
             1873.36,801.79 1874.97,800.21 1906.00,805.41
             1908.71,805.87 1914.73,806.61 1916.85,807.98
             1920.11,810.10 1920.32,813.80 1916.85,815.82
             1913.21,817.94 1900.50,815.00 1896.00,814.25
             1896.00,814.25 1860.00,808.25 1860.00,808.25
             1860.00,808.25 1841.00,802.00 1841.00,802.00
             1841.00,802.00 1811.00,791.96 1811.00,791.96
             1811.00,791.96 1777.00,771.60 1777.00,771.60
             1777.00,771.60 1752.00,756.32 1752.00,756.32
             1752.00,756.32 1709.00,717.94 1709.00,717.94
             1709.00,717.94 1670.00,700.48 1670.00,700.48
             1670.00,700.48 1636.00,676.11 1636.00,676.11
             1629.50,672.44 1621.11,673.40 1614.00,672.91
             1614.00,672.91 1591.00,671.50 1591.00,671.50
             1587.78,672.08 1583.68,675.23 1581.00,677.14
             1581.00,677.14 1563.00,690.00 1563.00,690.00
             1560.73,691.61 1555.34,695.12 1554.02,697.32
             1552.56,699.77 1552.97,706.94 1553.00,710.00
             1553.00,710.00 1553.96,720.00 1553.96,720.00
             1553.96,720.00 1553.96,732.00 1553.96,732.00
             1553.96,732.00 1554.99,744.00 1554.99,744.00
             1555.22,754.41 1549.41,763.64 1545.42,773.00
             1545.42,773.00 1529.91,807.00 1529.91,807.00
             1529.91,807.00 1501.08,850.00 1501.08,850.00
             1501.08,850.00 1494.58,891.00 1494.58,891.00
             1493.06,896.13 1484.02,903.98 1480.00,908.00
             1476.06,911.94 1462.86,925.90 1459.00,927.83
             1456.33,929.16 1437.11,930.81 1433.00,930.80
             1427.99,931.31 1412.93,934.92 1410.03,930.80
             1405.67,924.03 1416.13,922.56 1420.00,922.17
             1420.00,922.17 1453.00,918.41 1453.00,918.41
             1456.54,917.06 1461.22,911.78 1464.00,909.00
             1464.00,909.00 1482.69,890.00 1482.69,890.00
             1485.55,886.21 1485.62,881.54 1486.27,877.00
             1487.15,870.93 1489.55,849.02 1491.56,845.00
             1491.56,845.00 1520.63,802.00 1520.63,802.00
             1520.63,802.00 1535.28,770.00 1535.28,770.00
             1538.66,762.16 1545.38,750.35 1544.91,742.00
             1544.91,742.00 1543.00,702.00 1543.00,702.00
             1543.00,702.00 1494.00,724.65 1494.00,724.65
             1490.50,727.10 1484.55,733.60 1481.00,736.91
             1481.00,736.91 1456.00,760.68 1456.00,760.68
             1456.00,760.68 1443.00,769.86 1443.00,769.86
             1443.00,769.86 1418.00,786.56 1418.00,786.56
             1411.64,789.53 1408.55,785.68 1409.66,782.03
             1410.76,778.38 1417.83,774.50 1421.00,772.28
             1421.00,772.28 1451.00,751.49 1451.00,751.49
             1451.00,751.49 1487.00,716.41 1487.00,716.41
             1490.26,713.95 1498.87,710.56 1503.00,708.70
             1503.00,708.70 1542.00,691.22 1542.00,691.22
             1542.00,691.22 1573.00,671.00 1573.00,671.00
             1565.98,667.75 1547.61,666.67 1539.00,665.42 Z" />
</svg>
