<?xml version="1.0" encoding="UTF-8" standalone="no"?>
<!DOCTYPE svg PUBLIC "-//W3C//DTD SVG 20010904//EN"
              "http://www.w3.org/TR/2001/REC-SVG-20010904/DTD/svg10.dtd">

<svg xmlns="http://www.w3.org/2000/svg"
     width="17.4933in" height="8.92in"
     viewBox="0 0 2624 1338">
  <path id="sou"
        fill="none" stroke="black" stroke-width="1"
        d="M 2037.72,757.00
           C 2037.72,757.00 2049.38,738.00 2049.38,738.00
             2049.38,738.00 2068.00,719.00 2068.00,719.00
             2072.76,714.24 2081.22,704.65 2087.00,702.11
             2087.00,702.11 2124.00,688.55 2124.00,688.55
             2124.00,688.55 2146.00,676.85 2146.00,676.85
             2151.26,673.85 2162.01,668.57 2165.30,663.96
             2165.30,663.96 2172.78,648.00 2172.78,648.00
             2172.78,648.00 2189.85,610.00 2189.85,610.00
             2189.85,610.00 2199.44,587.00 2199.44,587.00
             2199.44,587.00 2192.49,546.00 2192.49,546.00
             2192.49,546.00 2199.33,524.00 2199.33,524.00
             2199.33,524.00 2204.52,508.00 2204.52,508.00
             2204.52,508.00 2224.78,472.00 2224.78,472.00
             2226.91,468.98 2231.45,463.74 2234.03,461.00
             2237.25,457.60 2248.80,443.86 2252.08,442.79
             2256.11,441.49 2260.69,445.45 2255.02,453.00
             2255.02,453.00 2235.38,475.00 2235.38,475.00
             2232.28,478.88 2228.43,486.40 2225.86,491.00
             2213.79,512.64 2215.73,507.80 2208.00,531.00
             2206.61,535.17 2203.22,544.03 2203.18,548.00
             2203.18,548.00 2209.79,589.00 2209.79,589.00
             2209.16,593.50 2199.77,613.54 2197.30,619.00
             2197.30,619.00 2173.79,670.96 2173.79,670.96
             2170.59,676.13 2159.53,681.25 2154.00,684.42
             2154.00,684.42 2130.00,697.55 2130.00,697.55
             2130.00,697.55 2090.00,712.41 2090.00,712.41
             2085.59,714.83 2079.73,721.27 2076.00,725.00
             2062.88,738.12 2060.53,738.79 2051.01,755.00
             2051.01,755.00 2041.67,771.00 2041.67,771.00
             2039.95,774.15 2039.00,777.83 2035.87,779.92
             2035.87,779.92 2010.00,789.68 2010.00,789.68
             2010.00,789.68 1973.00,803.31 1973.00,803.31
             1973.00,803.31 1946.00,812.58 1946.00,812.58
             1946.00,812.58 1922.00,821.08 1922.00,821.08
             1919.51,822.52 1914.41,827.16 1912.00,829.28
             1912.00,829.28 1885.30,855.00 1885.30,855.00
             1885.30,855.00 1864.85,883.00 1864.85,883.00
             1864.85,883.00 1847.37,908.00 1847.37,908.00
             1847.37,908.00 1831.14,958.00 1831.14,958.00
             1831.14,958.00 1822.65,987.00 1822.65,987.00
             1822.65,987.00 1813.68,1011.00 1813.68,1011.00
             1812.22,1014.96 1808.49,1027.92 1804.78,1029.38
             1803.67,1029.82 1802.25,1029.82 1801.14,1029.38
             1796.08,1027.40 1798.87,1020.52 1800.19,1017.00
             1800.19,1017.00 1818.00,966.00 1818.00,966.00
             1818.00,966.00 1831.33,923.00 1831.33,923.00
             1833.19,917.28 1835.80,906.87 1838.53,902.00
             1838.53,902.00 1862.12,869.00 1862.12,869.00
             1862.12,869.00 1878.30,847.17 1878.30,847.17
             1886.35,838.65 1904.09,824.25 1910.00,816.00
             1903.01,813.79 1888.95,804.57 1882.00,800.40
             1882.00,800.40 1833.00,771.42 1833.00,771.42
             1827.02,767.95 1809.69,756.46 1804.00,756.14
             1804.00,756.14 1766.00,759.72 1766.00,759.72
             1762.52,760.13 1754.11,760.96 1752.66,756.78
             1750.94,751.84 1756.43,750.29 1760.00,749.98
             1760.00,749.98 1793.00,746.99 1793.00,746.99
             1793.00,746.99 1809.00,745.59 1809.00,745.59
             1809.00,745.59 1862.42,749.18 1862.42,749.18
             1862.42,749.18 1894.00,746.16 1894.00,746.16
             1900.92,745.42 1923.94,743.47 1929.00,741.53
             1929.00,741.53 1973.00,717.19 1973.00,717.19
             1980.15,713.87 1984.95,717.80 1988.41,714.40
             1991.77,711.10 1990.17,698.44 1994.34,692.00
             1994.34,692.00 2009.13,672.00 2009.13,672.00
             2011.75,668.51 2016.02,662.10 2019.09,659.53
             2019.09,659.53 2050.00,641.99 2050.00,641.99
             2058.35,637.04 2070.12,626.48 2078.00,619.92
             2080.95,617.47 2085.81,612.62 2089.92,613.37
             2096.28,614.52 2092.75,620.82 2089.92,623.57
             2089.92,623.57 2062.00,646.76 2062.00,646.76
             2062.00,646.76 2025.30,668.38 2025.30,668.38
             2025.30,668.38 2011.63,686.00 2011.63,686.00
             2009.13,689.37 2003.74,696.36 2002.42,700.00
             2002.42,700.00 1998.00,732.00 1998.00,732.00
             1997.82,735.72 1995.78,748.18 1997.11,750.79
             1998.49,753.49 2004.23,755.91 2007.00,757.14
             2007.00,757.14 2032.00,768.00 2032.00,768.00
             2033.55,763.13 2035.24,761.30 2037.72,757.00 Z
           M 1978.00,726.21
           C 1978.00,726.21 1965.00,733.15 1965.00,733.15
             1965.00,733.15 1944.00,744.85 1944.00,744.85
             1944.00,744.85 1929.00,752.32 1929.00,752.32
             1929.00,752.32 1895.00,756.16 1895.00,756.16
             1895.00,756.16 1862.00,759.49 1862.00,759.49
             1862.00,759.49 1839.00,757.99 1839.00,757.99
             1839.00,757.99 1830.00,757.99 1830.00,757.99
             1830.00,757.99 1891.00,794.20 1891.00,794.20
             1891.00,794.20 1909.00,804.80 1909.00,804.80
             1909.00,804.80 1919.00,809.69 1919.00,809.69
             1919.00,809.69 1930.00,807.33 1930.00,807.33
             1930.00,807.33 1949.00,800.69 1949.00,800.69
             1949.00,800.69 2003.00,781.42 2003.00,781.42
             2003.00,781.42 2020.00,775.00 2020.00,775.00
             2015.78,771.66 2002.59,766.26 1997.00,763.69
             1993.80,762.22 1988.77,760.04 1986.87,756.90
             1985.27,753.74 1986.31,749.38 1986.87,746.00
             1986.87,746.00 1988.00,726.21 1988.00,726.21
             1988.00,726.21 1978.00,726.21 1978.00,726.21 Z" />
</svg>
