<?xml version="1.0" encoding="UTF-8" standalone="no"?>
<!DOCTYPE svg PUBLIC "-//W3C//DTD SVG 20010904//EN"
              "http://www.w3.org/TR/2001/REC-SVG-20010904/DTD/svg10.dtd">

<svg xmlns="http://www.w3.org/2000/svg"
     width="17.4933in" height="8.92in"
     viewBox="0 0 2624 1338">
  <path id="sp"
        fill="none" stroke="black" stroke-width="1"
        d="M 1566.00,1063.00
           C 1566.00,1063.00 1596.00,1051.08 1596.00,1051.08
             1596.00,1051.08 1627.00,1041.58 1627.00,1041.58
             1627.00,1041.58 1661.00,1031.63 1661.00,1031.63
             1661.00,1031.63 1675.00,1032.93 1675.00,1032.93
             1675.00,1032.93 1713.00,1037.16 1713.00,1037.16
             1723.15,1038.25 1727.58,1039.79 1738.00,1038.08
             1738.00,1038.08 1789.00,1029.73 1789.00,1029.73
             1792.96,1029.17 1804.70,1027.33 1803.04,1034.96
             1802.23,1038.65 1798.16,1039.73 1795.00,1040.38
             1795.00,1040.38 1770.00,1044.42 1770.00,1044.42
             1770.00,1044.42 1731.00,1050.66 1731.00,1050.66
             1731.00,1050.66 1663.00,1043.08 1663.00,1043.08
             1658.00,1043.10 1635.35,1050.68 1629.00,1052.66
             1629.00,1052.66 1598.00,1062.42 1598.00,1062.42
             1598.00,1062.42 1561.00,1077.20 1561.00,1077.20
             1561.00,1077.20 1545.00,1083.48 1545.00,1083.48
             1545.00,1083.48 1480.00,1095.88 1480.00,1095.88
             1480.00,1095.88 1422.00,1110.42 1422.00,1110.42
             1422.00,1110.42 1384.00,1120.59 1384.00,1120.59
             1384.00,1120.59 1348.00,1118.04 1348.00,1118.04
             1348.00,1118.04 1340.00,1118.04 1340.00,1118.04
             1340.00,1118.04 1318.00,1115.89 1318.00,1115.89
             1318.00,1115.89 1310.00,1115.89 1310.00,1115.89
             1310.00,1115.89 1293.00,1112.00 1293.00,1112.00
             1293.00,1112.00 1259.00,1104.58 1259.00,1104.58
             1259.00,1104.58 1239.00,1100.43 1239.00,1100.43
             1239.00,1100.43 1210.00,1097.83 1210.00,1097.83
             1210.00,1097.83 1163.00,1093.16 1163.00,1093.16
             1163.00,1093.16 1119.00,1088.15 1119.00,1088.15
             1114.52,1087.62 1099.12,1086.23 1096.00,1084.92
             1096.00,1084.92 1063.00,1062.67 1063.00,1062.67
             1063.00,1062.67 1003.00,1019.13 1003.00,1019.13
             1003.00,1019.13 978.00,1000.10 978.00,1000.10
             978.00,1000.10 955.00,987.69 955.00,987.69
             955.00,987.69 929.00,973.96 929.00,973.96
             929.00,973.96 903.00,969.87 903.00,969.87
             903.00,969.87 870.00,965.09 870.00,965.09
             870.00,965.09 824.00,972.08 824.00,972.08
             818.75,972.95 809.76,975.57 805.00,973.57
             805.00,973.57 762.00,949.42 762.00,949.42
             756.80,946.45 746.29,941.33 742.90,936.90
             742.90,936.90 721.86,900.00 721.86,900.00
             720.10,896.84 715.70,887.57 712.79,886.11
             709.84,884.63 700.44,887.77 697.00,888.63
             697.00,888.63 657.00,898.98 657.00,898.98
             651.18,900.44 640.31,898.10 634.00,897.28
             634.00,897.28 603.00,893.42 603.00,893.42
             599.95,893.00 591.38,892.20 589.00,891.27
             584.56,889.52 576.82,880.70 573.00,877.04
             573.00,877.04 564.00,868.96 564.00,868.96
             555.62,860.95 539.21,843.28 530.00,837.87
             530.00,837.87 491.00,816.00 491.00,816.00
             491.00,816.00 465.00,801.85 465.00,801.85
             465.00,801.85 436.00,798.42 436.00,798.42
             433.52,798.10 429.11,798.11 427.13,796.98
             422.40,794.26 424.65,789.82 419.86,785.90
             419.86,785.90 391.00,769.30 391.00,769.30
             391.00,769.30 354.00,750.25 354.00,750.25
             350.07,748.28 340.13,744.04 337.85,740.79
             335.57,737.54 335.24,728.19 334.72,724.00
             334.72,724.00 329.84,685.00 329.84,685.00
             329.84,685.00 315.00,641.00 315.00,641.00
             315.00,641.00 298.13,592.00 298.13,592.00
             298.13,592.00 282.43,560.00 282.43,560.00
             281.26,557.27 277.95,549.59 277.86,547.00
             277.73,542.89 282.02,537.50 284.19,534.00
             290.88,523.24 296.14,520.01 296.00,507.00
             296.00,507.00 295.34,498.00 295.34,498.00
             295.34,498.00 295.98,491.00 295.98,491.00
             295.98,491.00 295.98,479.00 295.98,479.00
             295.98,479.00 289.00,416.00 289.00,416.00
             289.00,416.00 289.00,383.00 289.00,383.00
             289.00,383.00 288.00,366.00 288.00,366.00
             288.00,366.00 288.00,318.00 288.00,318.00
             287.98,307.37 283.81,304.35 277.63,296.00
             277.63,296.00 263.88,277.00 263.88,277.00
             259.78,271.42 253.54,265.40 255.95,258.00
             258.42,250.41 265.22,238.59 269.06,231.00
             269.06,231.00 280.31,208.00 280.31,208.00
             280.31,208.00 298.28,177.00 298.28,177.00
             298.28,177.00 309.36,158.04 309.36,158.04
             311.17,155.53 313.51,152.90 316.96,153.42
             320.88,154.01 321.92,157.65 320.69,161.00
             320.69,161.00 310.28,179.00 310.28,179.00
             310.28,179.00 289.31,215.00 289.31,215.00
             289.31,215.00 278.68,237.00 278.68,237.00
             278.68,237.00 267.55,259.72 267.55,259.72
             266.65,263.52 274.72,272.74 277.12,276.00
             277.12,276.00 292.29,297.00 292.29,297.00
             294.32,299.84 298.26,304.90 299.30,308.00
             300.13,310.45 300.00,313.42 300.00,316.00
             300.00,316.00 300.00,392.00 300.00,392.00
             300.00,392.00 301.00,416.00 301.00,416.00
             301.00,416.00 308.00,482.00 308.00,482.00
             308.00,482.00 308.00,494.00 308.00,494.00
             311.67,494.49 322.20,496.79 325.00,496.13
             330.55,494.84 350.67,478.27 359.00,476.30
             359.00,476.30 400.00,470.34 400.00,470.34
             400.00,470.34 448.00,459.12 448.00,459.12
             462.50,455.68 468.71,453.18 484.00,453.00
             484.00,453.00 494.00,452.04 494.00,452.04
             494.00,452.04 506.00,452.04 506.00,452.04
             506.00,452.04 520.00,451.00 520.00,451.00
             520.00,451.00 543.00,450.00 543.00,450.00
             543.00,450.00 601.00,449.00 601.00,449.00
             601.00,449.00 616.00,448.01 616.00,448.01
             616.00,448.01 633.00,449.00 633.00,449.00
             633.00,449.00 647.00,450.00 647.00,450.00
             647.00,450.00 669.00,451.00 669.00,451.00
             669.00,451.00 684.00,452.04 684.00,452.04
             684.00,452.04 697.00,452.04 697.00,452.04
             697.00,452.04 709.00,453.00 709.00,453.00
             709.00,453.00 735.00,453.00 735.00,453.00
             738.36,453.01 742.95,452.77 745.77,454.85
             749.88,457.90 748.25,462.51 743.96,464.09
             739.71,465.99 728.37,464.01 723.00,464.09
             723.00,464.09 693.00,464.09 693.00,464.09
             693.00,464.09 674.00,463.00 674.00,463.00
             674.00,463.00 660.00,462.00 660.00,462.00
             660.00,462.00 637.00,461.00 637.00,461.00
             637.00,461.00 621.00,460.00 621.00,460.00
             621.00,460.00 556.00,461.00 556.00,461.00
             556.00,461.00 544.00,461.96 544.00,461.96
             544.00,461.96 529.00,461.96 529.00,461.96
             529.00,461.96 514.00,463.00 514.00,463.00
             514.00,463.00 486.00,464.00 486.00,464.00
             471.38,464.02 454.50,469.20 440.00,472.42
             440.00,472.42 396.00,482.72 396.00,482.72
             396.00,482.72 360.00,487.99 360.00,487.99
             360.00,487.99 337.00,502.36 337.00,502.36
             334.50,504.04 330.71,507.21 328.00,508.03
             324.46,509.08 311.88,506.19 308.00,505.00
             308.00,508.40 308.27,515.01 307.35,518.00
             306.39,521.13 301.61,527.76 299.58,531.00
             297.21,534.78 290.32,543.88 290.41,548.00
             290.46,550.40 293.73,557.47 294.86,560.00
             294.86,560.00 309.55,590.00 309.55,590.00
             309.55,590.00 321.69,626.00 321.69,626.00
             321.69,626.00 335.67,667.00 335.67,667.00
             335.67,667.00 340.96,682.00 340.96,682.00
             340.96,682.00 345.72,720.00 345.72,720.00
             346.09,722.82 346.74,731.62 348.02,733.61
             349.82,736.41 363.28,742.39 367.00,744.25
             367.00,744.25 414.00,769.23 414.00,769.23
             417.31,771.03 431.72,778.25 433.26,780.27
             434.87,782.37 434.85,784.52 435.00,787.00
             435.00,787.00 454.00,788.93 454.00,788.93
             454.00,788.93 469.00,790.72 469.00,790.72
             469.00,790.72 483.00,798.58 483.00,798.58
             483.00,798.58 508.00,812.70 508.00,812.70
             508.00,812.70 542.00,832.38 542.00,832.38
             542.00,832.38 575.00,864.00 575.00,864.00
             578.46,867.46 588.27,877.08 592.00,879.41
             595.49,881.59 607.38,882.53 612.00,883.05
             612.00,883.05 653.00,887.81 653.00,887.81
             653.00,887.81 699.00,876.63 699.00,876.63
             704.24,875.30 712.83,871.64 717.91,873.74
             722.35,875.58 725.60,883.80 728.00,888.00
             728.00,888.00 750.63,927.98 750.63,927.98
             754.47,933.18 763.23,937.11 769.00,940.42
             769.00,940.42 807.00,961.77 807.00,961.77
             811.14,963.41 815.77,961.95 820.00,961.25
             820.00,961.25 845.00,957.08 845.00,957.08
             845.00,957.08 868.00,953.57 868.00,953.57
             868.00,953.57 902.00,958.13 902.00,958.13
             902.00,958.13 931.00,962.63 931.00,962.63
             931.00,962.63 955.00,975.00 955.00,975.00
             955.00,975.00 968.00,981.77 968.00,981.77
             969.96,982.75 972.42,984.36 974.61,983.13
             976.34,982.16 977.85,978.75 978.78,977.00
             978.78,977.00 985.75,964.00 985.75,964.00
             988.53,958.44 995.68,945.33 996.68,940.00
             996.68,940.00 1003.47,890.00 1003.47,890.00
             1003.47,890.00 1019.25,859.00 1019.25,859.00
             1021.27,854.95 1024.98,846.32 1028.21,843.65
             1030.53,841.73 1038.79,838.53 1042.00,837.15
             1042.00,837.15 1070.00,825.28 1070.00,825.28
             1070.00,825.28 1093.00,815.46 1093.00,815.46
             1096.00,814.37 1099.91,813.46 1102.22,816.43
             1105.61,820.79 1100.46,824.41 1096.98,826.00
             1096.98,826.00 1065.00,839.58 1065.00,839.58
             1059.57,841.90 1038.56,850.35 1035.39,853.41
             1033.49,855.25 1026.38,868.81 1024.76,872.00
             1022.22,877.00 1014.58,891.48 1013.53,896.00
             1013.53,896.00 1007.69,943.00 1007.69,943.00
             1006.41,949.41 999.59,960.92 996.31,967.00
             996.31,967.00 984.00,991.00 984.00,991.00
             984.00,991.00 1017.00,1015.50 1017.00,1015.50
             1017.00,1015.50 1073.00,1056.00 1073.00,1056.00
             1073.00,1056.00 1100.00,1074.00 1100.00,1074.00
             1100.00,1074.00 1134.00,1078.28 1134.00,1078.28
             1134.00,1078.28 1221.00,1087.17 1221.00,1087.17
             1221.00,1087.17 1243.00,1089.32 1243.00,1089.32
             1243.00,1089.32 1257.00,1092.58 1257.00,1092.58
             1257.00,1092.58 1285.00,1098.65 1285.00,1098.65
             1285.00,1098.65 1308.00,1103.72 1308.00,1103.72
             1308.00,1103.72 1325.00,1105.09 1325.00,1105.09
             1325.00,1105.09 1354.00,1107.09 1354.00,1107.09
             1354.00,1107.09 1382.00,1108.91 1382.00,1108.91
             1382.00,1108.91 1401.00,1104.42 1401.00,1104.42
             1401.00,1104.42 1435.00,1095.15 1435.00,1095.15
             1435.00,1095.15 1510.00,1078.58 1510.00,1078.58
             1510.00,1078.58 1535.00,1074.00 1535.00,1074.00
             1535.00,1074.00 1538.85,1042.00 1538.85,1042.00
             1538.85,1042.00 1543.10,1013.00 1543.10,1013.00
             1543.10,1013.00 1552.75,994.00 1552.75,994.00
             1552.75,994.00 1562.74,975.00 1562.74,975.00
             1562.74,975.00 1568.92,963.00 1568.92,963.00
             1568.92,963.00 1577.67,950.00 1577.67,950.00
             1577.67,950.00 1594.00,926.00 1594.00,926.00
             1595.82,923.27 1598.89,917.80 1602.09,916.84
             1605.98,915.68 1609.58,919.43 1608.23,924.00
             1608.23,924.00 1594.00,946.00 1594.00,946.00
             1577.11,971.21 1577.70,969.95 1563.74,997.00
             1560.93,1002.46 1555.99,1010.35 1554.10,1016.00
             1554.10,1016.00 1550.85,1039.00 1550.85,1039.00
             1550.85,1039.00 1547.00,1071.00 1547.00,1071.00
             1547.00,1071.00 1566.00,1063.00 1566.00,1063.00 Z" />
</svg>
