<?xml version="1.0" encoding="UTF-8" standalone="no"?>
<!DOCTYPE svg PUBLIC "-//W3C//DTD SVG 20010904//EN"
              "http://www.w3.org/TR/2001/REC-SVG-20010904/DTD/svg10.dtd">

<svg xmlns="http://www.w3.org/2000/svg"
     width="17.4933in" height="8.92in"
     viewBox="0 0 2624 1338">
  <path id="tp"
        fill="none" stroke="black" stroke-width="1"
        d="M 1577.44,886.00
           C 1575.39,883.02 1571.85,877.85 1575.52,874.62
             1579.72,870.93 1584.62,878.10 1586.66,881.00
             1586.66,881.00 1610.06,915.00 1610.06,915.00
             1614.98,923.56 1626.85,935.27 1633.83,943.00
             1645.30,955.70 1655.27,964.13 1668.00,975.28
             1668.00,975.28 1686.00,990.78 1686.00,990.78
             1686.00,990.78 1709.00,1003.31 1709.00,1003.31
             1709.00,1003.31 1739.00,1018.65 1739.00,1018.65
             1743.97,1019.94 1747.16,1019.75 1752.00,1020.09
             1752.00,1020.09 1783.00,1022.83 1783.00,1022.83
             1783.00,1022.83 1793.00,1023.42 1793.00,1023.42
             1796.60,1023.91 1805.98,1024.65 1802.92,1030.86
             1800.58,1035.59 1793.04,1033.56 1789.00,1033.17
             1789.00,1033.17 1780.00,1032.58 1780.00,1032.58
             1780.00,1032.58 1769.00,1031.83 1769.00,1031.83
             1769.00,1031.83 1751.00,1030.09 1751.00,1030.09
             1746.32,1029.77 1738.43,1029.70 1734.00,1028.36
             1734.00,1028.36 1718.00,1020.22 1718.00,1020.22
             1718.00,1020.22 1681.00,1000.21 1681.00,1000.21
             1681.00,1000.21 1637.04,961.83 1637.04,961.83
             1637.04,961.83 1629.91,954.00 1629.91,954.00
             1629.91,954.00 1613.17,936.00 1613.17,936.00
             1610.32,932.85 1604.74,925.69 1601.00,924.19
             1597.98,922.98 1590.44,925.15 1587.00,925.75
             1587.00,925.75 1554.00,932.03 1554.00,932.03
             1549.52,932.97 1544.64,932.01 1540.00,932.03
             1540.00,932.03 1490.00,932.03 1490.00,932.03
             1490.00,932.03 1469.00,932.03 1469.00,932.03
             1469.00,932.03 1418.00,939.71 1418.00,939.71
             1407.37,941.01 1408.36,936.33 1402.91,937.57
             1402.91,937.57 1370.00,949.11 1370.00,949.11
             1370.00,949.11 1343.00,955.87 1343.00,955.87
             1334.46,958.01 1325.86,960.95 1317.00,961.00
             1317.00,961.00 1301.00,962.00 1301.00,962.00
             1301.00,962.00 1288.00,962.00 1288.00,962.00
             1288.00,962.00 1268.00,963.38 1268.00,963.38
             1268.00,963.38 1251.00,969.80 1251.00,969.80
             1251.00,969.80 1220.00,982.00 1220.00,982.00
             1220.00,982.00 1164.00,1004.42 1164.00,1004.42
             1164.00,1004.42 1121.00,1021.97 1121.00,1021.97
             1121.00,1021.97 1094.00,1028.21 1094.00,1028.21
             1094.00,1028.21 1064.00,1034.88 1064.00,1034.88
             1059.40,1035.94 1050.34,1038.36 1046.00,1037.87
             1041.06,1037.30 1030.71,1030.22 1026.00,1027.40
             1026.00,1027.40 986.00,1003.80 986.00,1003.80
             982.37,1001.60 967.48,994.53 973.60,988.75
             977.90,984.69 989.87,993.92 994.00,996.40
             994.00,996.40 1033.00,1019.58 1033.00,1019.58
             1037.47,1022.17 1044.96,1027.64 1050.00,1027.28
             1050.00,1027.28 1084.00,1019.88 1084.00,1019.88
             1084.00,1019.88 1118.00,1011.97 1118.00,1011.97
             1118.00,1011.97 1148.00,999.60 1148.00,999.60
             1148.00,999.60 1210.00,974.60 1210.00,974.60
             1210.00,974.60 1247.00,960.00 1247.00,960.00
             1254.50,957.00 1261.80,953.10 1270.00,953.00
             1270.00,953.00 1288.00,952.00 1288.00,952.00
             1288.00,952.00 1301.00,952.00 1301.00,952.00
             1301.00,952.00 1321.00,950.70 1321.00,950.70
             1321.00,950.70 1375.00,936.33 1375.00,936.33
             1375.00,936.33 1402.00,926.76 1402.00,926.76
             1411.36,924.38 1410.71,929.89 1418.00,929.14
             1418.00,929.14 1469.00,921.93 1469.00,921.93
             1469.00,921.93 1490.00,921.93 1490.00,921.93
             1490.00,921.93 1502.00,921.93 1502.00,921.93
             1502.00,921.93 1539.00,921.93 1539.00,921.93
             1539.00,921.93 1546.00,921.93 1546.00,921.93
             1546.00,921.93 1596.00,914.00 1596.00,914.00
             1593.42,907.36 1582.08,892.76 1577.44,886.00 Z" />
</svg>
