<?xml version="1.0" encoding="UTF-8" standalone="no"?>
<!DOCTYPE svg PUBLIC "-//W3C//DTD SVG 20010904//EN"
              "http://www.w3.org/TR/2001/REC-SVG-20010904/DTD/svg10.dtd">

<svg xmlns="http://www.w3.org/2000/svg"
     width="17.4933in" height="8.92in"
     viewBox="0 0 2624 1338">
  <path id="up"
        fill="none" stroke="black" stroke-width="1"
        d="M 747.09,482.00
           C 747.09,482.00 746.54,491.00 746.54,491.00
             746.54,491.00 736.71,526.00 736.71,526.00
             736.71,526.00 728.65,553.00 728.65,553.00
             728.65,553.00 711.80,582.00 711.80,582.00
             711.80,582.00 695.79,607.82 695.79,607.82
             695.79,607.82 674.00,623.71 674.00,623.71
             674.00,623.71 634.00,652.58 634.00,652.58
             626.98,657.64 617.88,663.45 612.46,670.00
             612.46,670.00 584.92,707.00 584.92,707.00
             584.92,707.00 574.25,728.00 574.25,728.00
             574.25,728.00 564.25,748.00 564.25,748.00
             562.72,751.03 561.02,755.16 557.90,756.94
             555.06,758.31 549.47,757.04 546.00,756.94
             546.00,756.94 527.00,756.94 527.00,756.94
             527.00,756.94 515.00,756.04 515.00,756.04
             515.00,756.04 501.00,756.04 501.00,756.04
             490.59,756.02 490.88,758.75 486.25,768.00
             486.25,768.00 477.26,785.00 477.26,785.00
             475.65,788.13 473.48,793.33 470.79,795.48
             466.13,799.19 451.87,795.23 446.00,794.25
             441.93,793.57 432.16,792.68 429.61,789.57
             427.33,786.78 428.39,781.99 435.00,782.21
             435.00,782.21 456.00,785.45 456.00,785.45
             458.57,786.01 462.15,787.02 464.39,785.45
             466.29,783.88 469.09,778.27 470.24,776.00
             470.24,776.00 480.22,757.00 480.22,757.00
             481.73,754.13 483.63,749.52 486.21,747.60
             488.56,745.85 491.23,746.02 494.00,746.00
             494.00,746.00 509.00,746.00 509.00,746.00
             509.00,746.00 523.00,746.94 523.00,746.94
             523.00,746.94 542.00,746.94 542.00,746.94
             544.31,747.03 549.03,747.65 550.90,746.94
             553.53,745.63 554.99,742.43 556.24,740.00
             556.24,740.00 564.25,724.00 564.25,724.00
             564.25,724.00 575.46,702.00 575.46,702.00
             575.46,702.00 605.46,662.00 605.46,662.00
             610.27,656.23 619.68,650.14 626.00,645.58
             626.00,645.58 666.00,616.71 666.00,616.71
             666.00,616.71 687.68,600.70 687.68,600.70
             691.74,596.52 703.75,575.33 707.42,569.00
             707.42,569.00 718.60,550.00 718.60,550.00
             718.60,550.00 727.86,519.00 727.86,519.00
             727.86,519.00 736.54,488.00 736.54,488.00
             736.54,488.00 738.56,463.00 738.56,463.00
             738.56,463.00 741.00,420.00 741.00,420.00
             740.84,410.67 731.08,398.92 726.05,391.00
             723.96,387.70 721.49,382.88 717.96,381.02
             715.25,379.60 710.13,380.03 707.00,380.00
             707.00,380.00 697.00,379.04 697.00,379.04
             697.00,379.04 681.00,379.04 681.00,379.04
             681.00,379.04 631.00,373.13 631.00,373.13
             626.12,372.45 612.68,371.31 609.17,368.99
             605.88,366.82 594.33,352.09 590.92,348.00
             590.92,348.00 572.63,326.00 572.63,326.00
             572.63,326.00 546.33,284.00 546.33,284.00
             546.33,284.00 516.80,247.00 516.80,247.00
             516.80,247.00 496.96,210.00 496.96,210.00
             493.00,204.40 487.74,199.99 483.09,195.00
             479.26,190.89 472.80,182.57 468.00,180.17
             464.46,178.41 458.99,179.18 455.00,178.91
             455.00,178.91 425.00,177.00 425.00,177.00
             425.00,177.00 415.00,176.09 415.00,176.09
             415.00,176.09 393.00,174.83 393.00,174.83
             393.00,174.83 338.00,167.28 338.00,167.28
             338.00,167.28 317.06,164.11 317.06,164.11
             314.21,162.91 311.92,159.56 314.00,156.65
             316.06,153.78 321.00,154.73 324.00,155.05
             324.00,155.05 351.00,158.73 351.00,158.73
             351.00,158.73 385.00,163.28 385.00,163.28
             385.00,163.28 395.00,164.83 395.00,164.83
             395.00,164.83 417.00,166.09 417.00,166.09
             417.00,166.09 427.00,167.00 427.00,167.00
             427.00,167.00 465.00,169.00 465.00,169.00
             476.63,169.14 478.82,175.19 486.09,183.00
             486.09,183.00 506.37,205.00 506.37,205.00
             506.37,205.00 517.25,225.00 517.25,225.00
             519.77,230.04 525.24,240.73 528.30,245.00
             528.30,245.00 554.43,277.00 554.43,277.00
             554.43,277.00 588.75,329.00 588.75,329.00
             588.75,329.00 606.08,350.00 606.08,350.00
             608.69,353.13 612.47,358.13 616.00,359.99
             619.30,361.73 631.62,362.81 636.00,363.42
             636.00,363.42 683.00,369.04 683.00,369.04
             683.00,369.04 696.00,369.04 696.00,369.04
             696.00,369.04 706.00,370.00 706.00,370.00
             708.82,370.03 715.36,370.41 717.61,368.98
             719.68,367.66 723.36,360.46 724.69,358.00
             727.27,353.23 735.70,338.22 736.81,334.00
             737.07,331.88 737.00,329.19 736.81,327.00
             737.02,313.73 737.62,300.14 735.56,287.00
             735.56,287.00 728.46,251.00 728.46,251.00
             728.39,247.80 730.28,241.37 731.13,238.00
             731.13,238.00 735.63,221.00 735.63,221.00
             736.30,218.47 737.06,215.27 739.27,213.62
             742.76,211.02 746.78,213.78 746.43,219.00
             746.43,219.00 739.19,250.00 739.19,250.00
             739.19,250.00 745.56,285.00 745.56,285.00
             745.56,285.00 747.00,331.00 747.00,331.00
             747.00,333.66 747.11,336.42 746.36,339.00
             746.36,339.00 728.00,375.00 728.00,375.00
             734.05,378.19 747.05,388.85 753.00,393.60
             753.00,393.60 797.00,430.13 797.00,430.13
             801.73,434.20 819.90,450.63 824.00,452.28
             824.00,452.28 853.00,456.16 853.00,456.16
             853.00,456.16 888.00,460.00 888.00,460.00
             888.00,460.00 911.00,460.00 911.00,460.00
             911.00,460.00 922.00,459.02 922.00,459.02
             922.00,459.02 939.00,459.02 939.00,459.02
             948.76,459.02 970.30,463.65 981.00,465.58
             986.46,466.56 1003.01,469.05 1007.00,471.12
             1007.00,471.12 1036.00,495.27 1036.00,495.27
             1038.78,497.65 1044.65,503.36 1048.00,504.12
             1050.38,504.66 1061.92,502.22 1065.00,501.60
             1065.00,501.60 1100.00,495.00 1100.00,495.00
             1108.40,493.35 1122.46,492.01 1131.00,492.00
             1131.00,492.00 1149.00,491.00 1149.00,491.00
             1149.00,491.00 1177.00,490.00 1177.00,490.00
             1177.00,490.00 1186.00,489.47 1186.00,489.47
             1186.00,489.47 1203.00,492.58 1203.00,492.58
             1203.00,492.58 1242.00,499.58 1242.00,499.58
             1247.91,500.64 1260.10,501.97 1266.00,502.00
             1266.00,502.00 1302.00,504.00 1302.00,504.00
             1310.78,503.88 1316.94,498.09 1324.00,493.33
             1324.00,493.33 1366.00,464.78 1366.00,464.78
             1369.78,462.92 1380.17,464.05 1385.00,464.00
             1385.00,464.00 1414.03,463.34 1414.03,463.34
             1420.68,463.24 1429.47,463.06 1435.98,464.14
             1438.92,464.63 1441.48,466.53 1440.34,469.86
             1439.40,472.62 1436.47,472.91 1434.00,473.06
             1434.00,473.06 1416.00,473.06 1416.00,473.06
             1416.00,473.06 1379.00,473.06 1379.00,473.06
             1369.49,473.12 1365.66,477.55 1358.00,482.67
             1358.00,482.67 1321.00,508.00 1321.00,508.00
             1321.00,508.00 1366.00,524.86 1366.00,524.86
             1366.00,524.86 1392.00,537.75 1392.00,537.75
             1392.00,537.75 1414.00,548.87 1414.00,548.87
             1414.00,548.87 1443.00,568.98 1443.00,568.98
             1445.50,570.71 1452.71,576.00 1455.00,576.83
             1458.07,577.93 1467.44,576.72 1471.00,576.28
             1471.00,576.28 1499.00,574.02 1499.00,574.02
             1502.36,574.16 1506.84,575.36 1505.34,579.87
             1503.79,584.56 1495.97,583.90 1492.00,584.42
             1492.00,584.42 1464.00,587.09 1464.00,587.09
             1455.66,587.70 1454.74,589.65 1447.00,584.41
             1447.00,584.41 1408.00,557.45 1408.00,557.45
             1408.00,557.45 1389.00,547.75 1389.00,547.75
             1367.63,537.07 1360.58,533.66 1338.00,525.32
             1338.00,525.32 1308.00,514.67 1308.00,514.67
             1302.97,513.60 1299.80,514.24 1295.00,513.91
             1295.00,513.91 1288.00,513.00 1288.00,513.00
             1288.00,513.00 1278.00,513.00 1278.00,513.00
             1278.00,513.00 1268.00,512.00 1268.00,512.00
             1248.77,511.78 1230.85,507.98 1212.00,504.58
             1204.23,503.17 1190.25,500.09 1183.00,500.00
             1183.00,500.00 1151.00,501.00 1151.00,501.00
             1151.00,501.00 1135.00,502.00 1135.00,502.00
             1115.01,502.03 1100.37,505.19 1081.00,509.00
             1081.00,509.00 1062.00,512.58 1062.00,512.58
             1059.54,513.02 1054.21,513.61 1052.31,514.98
             1049.98,516.68 1049.97,519.39 1050.17,522.00
             1050.17,522.00 1051.00,532.00 1051.00,532.00
             1051.00,532.00 1053.00,571.00 1053.00,571.00
             1052.93,574.45 1052.17,580.02 1047.13,578.34
             1042.82,576.92 1043.03,570.62 1043.00,567.00
             1043.00,567.00 1041.00,533.00 1041.00,533.00
             1040.96,530.19 1039.85,514.73 1038.98,513.00
             1037.01,509.09 1025.89,500.36 1022.00,497.00
             1018.04,493.59 1005.61,482.29 1002.00,480.45
             998.51,478.67 983.73,476.38 979.00,475.59
             979.00,475.59 939.00,469.00 939.00,469.00
             939.00,469.00 887.00,470.00 887.00,470.00
             887.00,470.00 826.00,463.57 826.00,463.57
             826.00,463.57 778.00,473.90 778.00,473.90
             778.00,473.90 749.00,466.00 749.00,466.00
             749.00,466.00 747.09,482.00 747.09,482.00 Z
           M 744.00,400.00
           C 744.00,400.00 745.00,401.00 745.00,401.00
             745.00,401.00 745.00,400.00 745.00,400.00
             745.00,400.00 744.00,400.00 744.00,400.00 Z
           M 751.44,415.00
           C 751.44,415.00 750.01,444.00 750.01,444.00
             750.01,444.00 750.01,454.30 750.01,454.30
             750.01,454.30 763.00,459.34 763.00,459.34
             763.00,459.34 779.00,463.73 779.00,463.73
             779.00,463.73 811.00,456.00 811.00,456.00
             811.00,456.00 786.00,433.58 786.00,433.58
             786.00,433.58 746.00,401.00 746.00,401.00
             746.00,401.00 751.44,415.00 751.44,415.00 Z" />
</svg>
