<?xml version="1.0" encoding="UTF-8" standalone="no"?>
<!DOCTYPE svg PUBLIC "-//W3C//DTD SVG 20010904//EN"
              "http://www.w3.org/TR/2001/REC-SVG-20010904/DTD/svg10.dtd">

<svg xmlns="http://www.w3.org/2000/svg"
     width="17.4933in" height="8.92in"
     viewBox="0 0 2624 1338">
  <path id="Selection"
        stroke="black" stroke-width="1"
        d="M 344.00,392.00
           C 344.01,388.23 343.52,382.26 348.10,380.84
             354.93,378.73 354.99,387.92 355.00,392.00
             355.00,392.00 354.00,423.00 354.00,423.00
             354.02,434.89 356.55,435.30 357.00,445.00
             375.05,438.35 412.64,433.27 433.00,429.92
             439.15,428.91 462.53,424.63 467.00,425.33
             471.30,425.99 479.46,429.45 484.00,431.00
             484.00,431.00 522.00,444.00 522.00,444.00
             531.96,447.40 534.99,449.98 546.00,450.00
             546.00,450.00 568.00,450.00 568.00,450.00
             568.00,450.00 584.00,449.00 584.00,449.00
             584.00,449.00 612.00,449.00 612.00,449.00
             622.34,449.02 626.84,452.50 636.00,456.69
             636.00,456.69 665.00,469.58 665.00,469.58
             665.00,469.58 687.00,479.07 687.00,479.07
             687.00,479.07 726.00,486.00 726.00,486.00
             731.04,486.98 744.49,487.68 745.97,493.10
             746.54,494.35 746.40,495.63 745.97,496.78
             743.27,501.45 736.12,499.28 732.00,498.59
             732.00,498.59 698.00,492.61 698.00,492.61
             691.11,491.32 685.53,491.08 679.00,488.22
             679.00,488.22 635.00,468.58 635.00,468.58
             625.27,464.33 619.94,460.02 609.00,460.00
             609.00,460.00 587.00,460.00 587.00,460.00
             587.00,460.00 571.00,461.00 571.00,461.00
             571.00,461.00 543.00,461.00 543.00,461.00
             532.23,460.98 529.73,458.72 520.00,455.34
             520.00,455.34 483.00,442.67 483.00,442.67
             483.00,442.67 466.00,436.93 466.00,436.93
             461.65,436.25 449.13,438.97 444.00,439.73
             444.00,439.73 392.00,448.00 392.00,448.00
             392.00,448.00 401.43,474.00 401.43,474.00
             402.20,478.65 399.15,482.39 395.10,481.16
             391.81,480.15 390.35,475.88 389.20,473.00
             389.20,473.00 381.00,450.00 381.00,450.00
             381.00,450.00 361.00,455.44 361.00,455.44
             361.00,455.44 348.00,460.14 348.00,460.14
             344.35,461.20 337.26,462.47 335.58,466.14
             335.58,466.14 333.58,478.00 333.58,478.00
             332.58,484.77 328.86,504.47 330.32,510.00
             330.32,510.00 341.00,538.00 341.00,538.00
             342.01,540.54 345.32,548.75 345.52,551.00
             346.07,557.25 340.76,557.93 336.00,558.00
             336.00,558.00 323.00,558.00 323.00,558.00
             323.00,558.00 313.00,558.96 313.00,558.96
             313.00,558.96 296.00,558.96 296.00,558.96
             291.92,558.99 282.73,558.93 284.84,552.10
             286.07,548.14 290.61,548.05 294.00,548.00
             294.00,548.00 332.00,547.00 332.00,547.00
             332.00,547.00 318.38,510.00 318.38,510.00
             317.71,506.42 319.01,499.83 319.58,496.00
             319.58,496.00 323.13,471.00 323.13,471.00
             323.68,467.08 324.28,459.33 326.72,456.39
             329.56,452.96 342.41,449.71 347.00,449.00
             339.99,422.57 343.96,417.25 344.00,392.00 Z" />
</svg>
